<svg xmlns="http://www.w3.org/2000/svg" xmlns:xlink="http://www.w3.org/1999/xlink" width="600" zoomAndPan="magnify" viewBox="0 0 450 449.999984" height="600" preserveAspectRatio="xMidYMid meet" version="1.0"><defs><clipPath id="798411c4f6"><path d="M 135 196.691406 L 315 196.691406 L 315 252.941406 L 135 252.941406 Z M 135 196.691406 " clip-rule="nonzero"/></clipPath></defs><rect x="-45" width="540" fill="#ffffff" y="-44.999998" height="539.99998" fill-opacity="1"/><rect x="-45" width="540" fill="#ffffff" y="-44.999998" height="539.99998" fill-opacity="1"/><g clip-path="url(#798411c4f6)"><path fill="#000000" d="M 229.09375 198.023438 L 229.097656 198.023438 L 229.09375 198.023438 C 229.089844 198.023438 229.089844 198.023438 229.089844 198.023438 C 229.089844 198.023438 229.089844 198.023438 229.09375 198.023438 Z M 229.148438 198.023438 L 229.15625 198.023438 L 229.152344 198.023438 C 229.152344 198.023438 229.152344 198.023438 229.148438 198.023438 Z M 229.121094 198.023438 L 229.128906 198.023438 Z M 229.109375 198.023438 C 229.113281 198.023438 229.113281 198.023438 229.113281 198.023438 C 229.113281 198.023438 229.113281 198.023438 229.109375 198.023438 Z M 229.164062 198.023438 Z M 229.144531 226.328125 L 229.136719 226.328125 Z M 237.679688 226.296875 L 237.605469 226.734375 L 235.921875 227.664062 L 229.109375 227.664062 L 229.144531 227.664062 L 222.300781 227.664062 L 220.613281 226.734375 L 220.539062 226.296875 L 222.300781 226.328125 L 235.921875 226.328125 Z M 285.839844 233.375 C 285.824219 233.378906 285.8125 233.378906 285.796875 233.382812 C 285.8125 233.378906 285.824219 233.378906 285.839844 233.375 Z M 214.179688 233.761719 L 214.183594 233.761719 Z M 262.214844 236.765625 Z M 262.296875 236.765625 Z M 262.296875 236.765625 Z M 171.859375 238.742188 Z M 172.707031 240.226562 L 172.703125 240.226562 Z M 172.703125 240.226562 Z M 172.703125 240.226562 Z M 172.703125 240.226562 Z M 172.703125 240.226562 Z M 172.703125 240.226562 Z M 172.703125 240.226562 Z M 172.703125 240.226562 Z M 172.703125 240.226562 Z M 172.703125 240.226562 Z M 286.101562 240.386719 L 286.097656 240.386719 Z M 287.261719 240.722656 Z M 172.667969 241.265625 L 172.664062 241.265625 Z M 172.664062 241.269531 Z M 172.664062 241.269531 Z M 285.511719 237.339844 C 286.140625 237.339844 286.765625 237.609375 287.183594 238.082031 C 287.605469 238.550781 287.808594 239.214844 287.6875 239.839844 C 287.628906 240.152344 287.488281 240.449219 287.28125 240.695312 L 287.265625 240.714844 L 287.261719 240.722656 L 287.097656 240.917969 L 287.261719 240.722656 C 287.054688 240.957031 286.789062 241.136719 286.492188 241.234375 C 286.324219 241.292969 286.148438 241.320312 285.96875 241.320312 C 285.820312 241.320312 285.671875 241.300781 285.527344 241.257812 C 285.210938 241.167969 284.925781 240.972656 284.726562 240.707031 C 284.53125 240.441406 284.429688 240.109375 284.453125 239.777344 C 284.476562 239.445312 284.628906 239.121094 284.878906 238.894531 C 285.089844 238.699219 285.367188 238.578125 285.65625 238.558594 L 285.664062 238.558594 C 285.6875 238.558594 285.710938 238.554688 285.734375 238.554688 C 285.941406 238.554688 286.152344 238.609375 286.332031 238.71875 C 286.535156 238.839844 286.699219 239.03125 286.773438 239.261719 C 286.851562 239.492188 286.832031 239.753906 286.710938 239.972656 L 286.929688 239.585938 L 286.710938 239.972656 C 286.589844 240.191406 286.363281 240.351562 286.109375 240.382812 L 286.101562 240.386719 L 286.085938 240.386719 L 286.097656 240.386719 C 286.066406 240.390625 286.039062 240.390625 286.007812 240.390625 C 285.824219 240.390625 285.636719 240.324219 285.496094 240.203125 C 285.328125 240.058594 285.226562 239.84375 285.226562 239.621094 L 285.226562 239.441406 L 285.59375 239.441406 L 285.59375 239.621094 C 285.59375 239.738281 285.644531 239.851562 285.734375 239.929688 C 285.808594 239.992188 285.90625 240.027344 286.007812 240.027344 C 286.023438 240.027344 286.042969 240.027344 286.0625 240.023438 C 286.195312 240.007812 286.324219 239.917969 286.390625 239.796875 C 286.460938 239.671875 286.472656 239.515625 286.425781 239.375 C 286.378906 239.234375 286.277344 239.109375 286.144531 239.027344 L 285.972656 238.925781 L 286.144531 239.027344 C 286.023438 238.957031 285.878906 238.917969 285.734375 238.917969 C 285.71875 238.917969 285.699219 238.917969 285.683594 238.917969 C 285.484375 238.933594 285.285156 239.015625 285.136719 239.148438 L 285.285156 239.011719 L 285.125 239.160156 C 284.945312 239.324219 284.835938 239.558594 284.816406 239.800781 C 284.800781 240.042969 284.875 240.292969 285.023438 240.492188 C 285.167969 240.691406 285.386719 240.839844 285.628906 240.910156 C 285.738281 240.941406 285.855469 240.957031 285.96875 240.957031 C 286.101562 240.957031 286.234375 240.9375 286.359375 240.898438 L 286.285156 240.921875 L 286.378906 240.890625 C 286.617188 240.8125 286.835938 240.660156 287.003906 240.464844 C 287.167969 240.269531 287.28125 240.027344 287.328125 239.773438 C 287.425781 239.265625 287.261719 238.710938 286.910156 238.320312 C 286.5625 237.929688 286.039062 237.699219 285.511719 237.699219 C 285.476562 237.699219 285.441406 237.703125 285.40625 237.703125 L 285.222656 237.714844 L 285.203125 237.351562 L 285.382812 237.34375 C 285.425781 237.339844 285.46875 237.339844 285.511719 237.339844 Z M 172.714844 237.339844 C 172.757812 237.339844 172.800781 237.339844 172.84375 237.34375 L 173.023438 237.351562 L 173.003906 237.714844 L 172.820312 237.703125 C 172.785156 237.703125 172.75 237.699219 172.714844 237.699219 C 172.1875 237.699219 171.664062 237.929688 171.316406 238.320312 C 170.964844 238.710938 170.800781 239.265625 170.898438 239.773438 C 170.945312 240.027344 171.058594 240.269531 171.222656 240.464844 C 171.390625 240.660156 171.609375 240.8125 171.847656 240.890625 C 171.980469 240.933594 172.117188 240.957031 172.257812 240.957031 C 172.371094 240.957031 172.488281 240.941406 172.597656 240.910156 C 172.839844 240.839844 173.058594 240.691406 173.203125 240.492188 C 173.351562 240.292969 173.425781 240.042969 173.410156 239.800781 C 173.390625 239.558594 173.28125 239.324219 173.101562 239.160156 C 172.949219 239.019531 172.746094 238.933594 172.542969 238.917969 C 172.527344 238.917969 172.511719 238.917969 172.492188 238.917969 C 172.347656 238.917969 172.203125 238.957031 172.085938 239.027344 C 171.949219 239.109375 171.847656 239.234375 171.800781 239.375 C 171.753906 239.515625 171.765625 239.671875 171.835938 239.796875 C 171.902344 239.917969 172.03125 240.007812 172.167969 240.023438 C 172.183594 240.027344 172.203125 240.027344 172.21875 240.027344 C 172.320312 240.027344 172.421875 239.992188 172.492188 239.929688 C 172.582031 239.851562 172.632812 239.738281 172.632812 239.621094 L 172.632812 239.441406 L 173 239.441406 L 173 239.621094 C 173 239.84375 172.898438 240.058594 172.734375 240.203125 L 172.707031 240.226562 L 172.703125 240.226562 L 172.707031 240.226562 L 172.703125 240.226562 L 172.691406 240.238281 L 172.703125 240.226562 L 172.691406 240.238281 L 172.703125 240.226562 C 172.566406 240.335938 172.390625 240.390625 172.21875 240.390625 C 172.1875 240.390625 172.152344 240.390625 172.117188 240.382812 C 171.863281 240.351562 171.636719 240.191406 171.515625 239.972656 C 171.394531 239.753906 171.378906 239.492188 171.453125 239.261719 C 171.523438 239.046875 171.675781 238.863281 171.859375 238.742188 L 171.820312 238.761719 L 171.859375 238.738281 L 171.820312 238.761719 L 171.859375 238.738281 L 171.894531 238.71875 C 172.078125 238.609375 172.285156 238.554688 172.492188 238.554688 C 172.515625 238.554688 172.539062 238.558594 172.5625 238.558594 L 172.566406 238.558594 C 172.855469 238.574219 173.136719 238.699219 173.351562 238.894531 C 173.597656 239.121094 173.75 239.445312 173.773438 239.777344 C 173.796875 240.109375 173.695312 240.441406 173.5 240.707031 C 173.300781 240.972656 173.015625 241.167969 172.699219 241.257812 L 172.667969 241.265625 L 172.417969 241.339844 L 172.664062 241.269531 L 172.660156 241.269531 C 172.53125 241.304688 172.394531 241.320312 172.257812 241.320312 C 172.09375 241.320312 171.929688 241.296875 171.769531 241.246094 L 171.734375 241.234375 C 171.425781 241.132812 171.152344 240.941406 170.945312 240.695312 C 170.738281 240.449219 170.597656 240.152344 170.539062 239.839844 C 170.417969 239.214844 170.621094 238.550781 171.042969 238.082031 C 171.460938 237.609375 172.085938 237.339844 172.714844 237.339844 Z M 172.664062 241.269531 L 172.417969 241.339844 Z M 285.957031 235.609375 C 285.691406 235.609375 285.421875 235.640625 285.152344 235.699219 C 284.785156 235.78125 284.40625 235.917969 284.027344 236.109375 C 283.617188 236.339844 283.269531 236.617188 282.980469 236.941406 C 282.957031 236.96875 282.933594 236.996094 282.90625 237.015625 C 282.820312 237.113281 282.65625 237.375 282.410156 237.792969 C 282.3125 237.992188 282.226562 238.203125 282.152344 238.425781 C 282.085938 238.671875 282.042969 238.914062 282.015625 239.148438 C 282.011719 239.1875 282.007812 239.222656 281.996094 239.253906 C 281.980469 239.386719 281.992188 239.699219 282.039062 240.199219 C 282.109375 240.632812 282.253906 241.050781 282.480469 241.453125 C 282.59375 241.652344 282.71875 241.839844 282.855469 242.011719 L 283.09375 242.28125 C 283.246094 242.4375 283.40625 242.578125 283.582031 242.707031 C 283.933594 242.964844 284.34375 243.167969 284.804688 243.320312 L 285.359375 243.441406 C 285.5625 243.46875 285.761719 243.480469 285.957031 243.480469 C 286.226562 243.480469 286.484375 243.457031 286.734375 243.40625 C 287.203125 243.285156 287.492188 243.195312 287.609375 243.136719 C 287.636719 243.117188 287.667969 243.097656 287.703125 243.082031 C 287.898438 242.984375 288.085938 242.871094 288.273438 242.738281 C 288.652344 242.425781 288.886719 242.21875 288.96875 242.117188 C 288.988281 242.085938 289.007812 242.054688 289.03125 242.027344 C 289.171875 241.855469 289.292969 241.671875 289.402344 241.476562 C 289.617188 241.085938 289.769531 240.644531 289.863281 240.152344 C 289.984375 239.171875 289.816406 238.296875 289.347656 237.53125 C 289.058594 237.121094 288.867188 236.867188 288.773438 236.777344 C 288.742188 236.753906 288.714844 236.734375 288.691406 236.707031 C 288.53125 236.554688 288.355469 236.414062 288.171875 236.292969 C 287.800781 236.046875 287.378906 235.859375 286.90625 235.738281 C 286.902344 235.738281 286.898438 235.738281 286.898438 235.738281 C 286.585938 235.652344 286.273438 235.609375 285.957031 235.609375 Z M 172.269531 235.609375 C 171.953125 235.609375 171.640625 235.652344 171.328125 235.738281 C 171.328125 235.738281 171.324219 235.738281 171.320312 235.738281 C 170.847656 235.859375 170.425781 236.046875 170.054688 236.292969 C 169.871094 236.414062 169.695312 236.554688 169.535156 236.707031 C 169.511719 236.734375 169.484375 236.753906 169.453125 236.777344 C 169.359375 236.867188 169.167969 237.121094 168.878906 237.53125 C 168.410156 238.296875 168.242188 239.171875 168.363281 240.152344 C 168.457031 240.644531 168.609375 241.085938 168.824219 241.476562 C 168.933594 241.671875 169.054688 241.855469 169.195312 242.027344 C 169.21875 242.054688 169.238281 242.085938 169.257812 242.117188 C 169.339844 242.21875 169.574219 242.425781 169.953125 242.738281 C 170.140625 242.871094 170.328125 242.984375 170.527344 243.082031 C 170.558594 243.097656 170.589844 243.117188 170.617188 243.136719 C 170.734375 243.195312 171.023438 243.285156 171.492188 243.40625 C 171.742188 243.457031 172 243.480469 172.269531 243.480469 C 172.464844 243.480469 172.664062 243.46875 172.867188 243.441406 L 173.421875 243.320312 C 173.882812 243.167969 174.292969 242.964844 174.644531 242.707031 C 174.820312 242.578125 174.980469 242.4375 175.132812 242.28125 L 175.371094 242.011719 C 175.507812 241.839844 175.632812 241.652344 175.746094 241.453125 C 175.972656 241.050781 176.117188 240.632812 176.1875 240.199219 C 176.234375 239.699219 176.246094 239.386719 176.230469 239.253906 C 176.222656 239.222656 176.214844 239.1875 176.210938 239.148438 C 176.183594 238.914062 176.140625 238.671875 176.074219 238.425781 C 176 238.203125 175.914062 237.992188 175.816406 237.792969 C 175.570312 237.375 175.40625 237.113281 175.324219 237.015625 C 175.296875 236.996094 175.269531 236.96875 175.246094 236.941406 C 174.957031 236.617188 174.609375 236.339844 174.203125 236.109375 C 173.820312 235.917969 173.441406 235.78125 173.074219 235.699219 C 172.804688 235.640625 172.535156 235.609375 172.269531 235.609375 Z M 285.957031 234.878906 C 286.339844 234.878906 286.714844 234.929688 287.089844 235.03125 C 287.644531 235.175781 288.140625 235.390625 288.582031 235.6875 C 288.804688 235.832031 289.007812 236 289.203125 236.183594 C 289.316406 236.253906 289.570312 236.570312 289.964844 237.132812 C 290.53125 238.054688 290.738281 239.097656 290.589844 240.261719 C 290.484375 240.839844 290.304688 241.363281 290.046875 241.828125 C 289.917969 242.0625 289.769531 242.28125 289.601562 242.488281 C 289.542969 242.605469 289.25 242.882812 288.722656 243.316406 C 288.5 243.476562 288.269531 243.617188 288.03125 243.738281 C 287.917969 243.824219 287.542969 243.953125 286.898438 244.121094 C 286.597656 244.179688 286.28125 244.210938 285.957031 244.210938 C 285.71875 244.210938 285.480469 244.195312 285.234375 244.164062 L 284.609375 244.023438 C 284.058594 243.847656 283.570312 243.605469 283.144531 243.292969 C 282.933594 243.136719 282.734375 242.964844 282.550781 242.777344 L 282.289062 242.476562 C 282.125 242.269531 281.972656 242.046875 281.835938 241.804688 C 281.566406 241.320312 281.390625 240.816406 281.308594 240.289062 C 281.25 239.625 281.242188 239.21875 281.285156 239.070312 C 281.316406 238.792969 281.371094 238.511719 281.445312 238.222656 C 281.535156 237.949219 281.640625 237.691406 281.761719 237.449219 C 282.097656 236.867188 282.320312 236.539062 282.429688 236.460938 C 282.777344 236.066406 283.195312 235.734375 283.679688 235.464844 C 284.121094 235.242188 284.5625 235.082031 284.996094 234.988281 C 285.316406 234.914062 285.640625 234.878906 285.957031 234.878906 Z M 172.269531 234.878906 C 172.589844 234.878906 172.910156 234.914062 173.230469 234.988281 C 173.667969 235.082031 174.105469 235.242188 174.546875 235.464844 C 175.035156 235.734375 175.449219 236.066406 175.796875 236.460938 C 175.90625 236.539062 176.128906 236.867188 176.464844 237.449219 C 176.585938 237.691406 176.691406 237.949219 176.78125 238.222656 C 176.859375 238.511719 176.910156 238.792969 176.941406 239.070312 C 176.984375 239.21875 176.976562 239.625 176.917969 240.289062 C 176.835938 240.816406 176.660156 241.320312 176.390625 241.804688 C 176.253906 242.046875 176.101562 242.269531 175.9375 242.476562 L 175.675781 242.777344 C 175.492188 242.964844 175.296875 243.136719 175.082031 243.292969 C 174.65625 243.605469 174.167969 243.847656 173.617188 244.023438 L 172.992188 244.164062 C 172.746094 244.195312 172.507812 244.210938 172.269531 244.210938 C 171.945312 244.210938 171.632812 244.179688 171.328125 244.121094 C 170.683594 243.953125 170.308594 243.824219 170.199219 243.738281 C 169.957031 243.617188 169.726562 243.476562 169.503906 243.316406 C 168.976562 242.882812 168.683594 242.605469 168.625 242.488281 C 168.457031 242.28125 168.308594 242.0625 168.179688 241.828125 C 167.921875 241.363281 167.742188 240.839844 167.636719 240.261719 C 167.488281 239.097656 167.695312 238.054688 168.261719 237.132812 C 168.65625 236.570312 168.910156 236.253906 169.027344 236.183594 C 169.21875 236 169.425781 235.832031 169.644531 235.6875 C 170.085938 235.390625 170.582031 235.175781 171.136719 235.03125 C 171.511719 234.929688 171.890625 234.878906 172.269531 234.878906 Z M 197.65625 246.371094 L 197.652344 246.371094 Z M 261.726562 246.589844 Z M 261.554688 241.953125 C 262.371094 241.953125 263.179688 242.304688 263.722656 242.914062 C 264.269531 243.523438 264.535156 244.386719 264.378906 245.199219 C 264.300781 245.601562 264.121094 245.992188 263.851562 246.308594 C 263.585938 246.628906 263.226562 246.875 262.828125 247.007812 C 262.609375 247.082031 262.378906 247.117188 262.148438 247.117188 C 261.957031 247.117188 261.761719 247.089844 261.574219 247.039062 C 261.164062 246.917969 260.792969 246.667969 260.539062 246.324219 C 260.28125 245.980469 260.148438 245.542969 260.179688 245.113281 C 260.210938 244.683594 260.410156 244.265625 260.730469 243.96875 C 261.007812 243.714844 261.371094 243.558594 261.75 243.535156 C 261.78125 243.53125 261.8125 243.53125 261.84375 243.53125 C 262.109375 243.53125 262.382812 243.601562 262.617188 243.742188 C 262.878906 243.902344 263.09375 244.148438 263.191406 244.449219 L 263.203125 244.476562 L 263.246094 244.609375 L 263.203125 244.476562 C 263.289062 244.769531 263.265625 245.097656 263.109375 245.371094 C 262.953125 245.652344 262.660156 245.859375 262.332031 245.902344 L 262.328125 245.90625 C 262.285156 245.910156 262.242188 245.914062 262.199219 245.914062 C 261.957031 245.914062 261.714844 245.828125 261.53125 245.667969 C 261.316406 245.480469 261.1875 245.199219 261.1875 244.914062 L 261.1875 244.679688 L 261.660156 244.679688 L 261.660156 244.914062 C 261.660156 245.066406 261.726562 245.214844 261.84375 245.3125 C 261.9375 245.394531 262.066406 245.441406 262.199219 245.441406 C 262.222656 245.441406 262.246094 245.441406 262.265625 245.4375 C 262.441406 245.414062 262.609375 245.300781 262.699219 245.140625 C 262.785156 244.980469 262.804688 244.777344 262.742188 244.59375 C 262.683594 244.410156 262.546875 244.25 262.375 244.144531 C 262.21875 244.050781 262.03125 244.003906 261.84375 244.003906 C 261.820312 244.003906 261.800781 244.003906 261.78125 244.003906 L 261.777344 244.003906 C 261.511719 244.019531 261.25 244.132812 261.050781 244.316406 C 260.820312 244.527344 260.675781 244.832031 260.652344 245.148438 C 260.632812 245.457031 260.726562 245.777344 260.910156 246.035156 L 260.695312 245.746094 L 260.917969 246.046875 C 261.109375 246.304688 261.394531 246.496094 261.707031 246.585938 L 261.726562 246.589844 L 261.726562 246.59375 L 261.804688 246.613281 L 261.730469 246.59375 C 261.867188 246.628906 262.007812 246.648438 262.148438 246.648438 C 262.328125 246.648438 262.507812 246.617188 262.679688 246.5625 C 262.980469 246.460938 263.253906 246.277344 263.464844 246.035156 L 263.46875 246.035156 L 263.25 246.292969 L 263.46875 246.035156 L 263.488281 246.007812 C 263.703125 245.753906 263.851562 245.441406 263.914062 245.109375 C 264.035156 244.464844 263.832031 243.765625 263.398438 243.257812 L 264.179688 244.132812 L 263.371094 243.226562 C 262.917969 242.722656 262.238281 242.421875 261.554688 242.421875 C 261.507812 242.421875 261.464844 242.425781 261.417969 242.425781 L 261.179688 242.441406 L 261.152344 241.972656 L 261.386719 241.957031 L 261.390625 241.957031 C 261.445312 241.953125 261.5 241.953125 261.554688 241.953125 Z M 196.671875 241.953125 C 196.726562 241.953125 196.78125 241.953125 196.839844 241.957031 L 196.824219 241.957031 L 197.074219 241.972656 L 197.046875 242.441406 L 196.808594 242.425781 C 196.765625 242.425781 196.71875 242.421875 196.671875 242.421875 C 195.988281 242.421875 195.308594 242.722656 194.855469 243.226562 C 194.40625 243.730469 194.191406 244.441406 194.308594 245.09375 L 194.3125 245.109375 C 194.375 245.441406 194.523438 245.753906 194.738281 246.007812 C 194.953125 246.261719 195.234375 246.457031 195.550781 246.5625 C 195.71875 246.617188 195.898438 246.648438 196.078125 246.648438 C 196.222656 246.648438 196.367188 246.628906 196.503906 246.589844 L 196.519531 246.585938 C 196.832031 246.496094 197.117188 246.304688 197.308594 246.046875 C 197.5 245.789062 197.597656 245.464844 197.574219 245.148438 C 197.550781 244.832031 197.40625 244.527344 197.175781 244.316406 C 196.980469 244.136719 196.726562 244.023438 196.464844 244.003906 L 196.535156 244.007812 L 196.449219 244.003906 C 196.425781 244.003906 196.40625 244.003906 196.382812 244.003906 C 196.195312 244.003906 196.007812 244.050781 195.855469 244.144531 C 195.679688 244.25 195.542969 244.410156 195.484375 244.59375 C 195.421875 244.777344 195.441406 244.980469 195.53125 245.140625 C 195.617188 245.300781 195.785156 245.414062 195.960938 245.4375 L 195.972656 245.441406 C 195.992188 245.441406 196.011719 245.441406 196.027344 245.441406 C 196.160156 245.441406 196.289062 245.394531 196.386719 245.3125 C 196.5 245.214844 196.566406 245.066406 196.566406 244.914062 L 196.566406 244.679688 L 197.039062 244.679688 L 197.039062 244.914062 C 197.042969 245.199219 196.914062 245.480469 196.695312 245.667969 C 196.511719 245.828125 196.269531 245.914062 196.027344 245.914062 C 195.984375 245.914062 195.941406 245.910156 195.898438 245.90625 C 195.566406 245.859375 195.273438 245.652344 195.117188 245.371094 L 195.113281 245.367188 C 194.957031 245.085938 194.9375 244.746094 195.035156 244.449219 L 195.039062 244.441406 C 195.136719 244.144531 195.347656 243.898438 195.609375 243.742188 C 195.84375 243.601562 196.117188 243.53125 196.382812 243.53125 C 196.414062 243.53125 196.445312 243.53125 196.476562 243.535156 C 196.855469 243.558594 197.21875 243.714844 197.496094 243.96875 C 197.816406 244.265625 198.011719 244.679688 198.046875 245.109375 L 198.046875 245.113281 C 198.078125 245.542969 197.945312 245.980469 197.6875 246.324219 L 197.65625 246.371094 L 197.652344 246.371094 L 197.65625 246.371094 L 197.621094 246.417969 L 197.652344 246.371094 C 197.398438 246.691406 197.042969 246.925781 196.652344 247.039062 C 196.464844 247.089844 196.269531 247.117188 196.078125 247.117188 C 195.859375 247.117188 195.644531 247.085938 195.4375 247.019531 L 195.398438 247.007812 C 195.019531 246.882812 194.679688 246.652344 194.414062 246.359375 L 194.375 246.308594 C 194.105469 245.992188 193.925781 245.601562 193.847656 245.199219 C 193.691406 244.386719 193.957031 243.523438 194.503906 242.914062 C 195.046875 242.304688 195.859375 241.953125 196.671875 241.953125 Z M 262.132812 239.710938 C 261.789062 239.710938 261.441406 239.75 261.089844 239.828125 C 260.609375 239.933594 260.121094 240.109375 259.625 240.359375 C 259.097656 240.65625 258.648438 241.015625 258.273438 241.4375 C 258.242188 241.472656 258.207031 241.503906 258.171875 241.535156 C 258.0625 241.660156 257.847656 241.996094 257.53125 242.542969 C 257.402344 242.800781 257.289062 243.074219 257.195312 243.363281 C 257.113281 243.683594 257.050781 243.996094 257.019531 244.300781 C 257.015625 244.347656 257.007812 244.394531 256.996094 244.441406 C 256.972656 244.605469 256.992188 245.015625 257.050781 245.667969 C 257.140625 246.226562 257.332031 246.769531 257.621094 247.289062 C 257.769531 247.550781 257.929688 247.792969 258.109375 248.015625 L 258.417969 248.367188 C 258.613281 248.566406 258.824219 248.75 259.050781 248.917969 C 259.507812 249.25 260.039062 249.515625 260.636719 249.710938 L 261.355469 249.871094 C 261.621094 249.902344 261.878906 249.917969 262.128906 249.917969 C 262.480469 249.917969 262.816406 249.890625 263.144531 249.828125 C 263.746094 249.667969 264.125 249.550781 264.273438 249.476562 C 264.3125 249.449219 264.355469 249.425781 264.394531 249.40625 C 264.648438 249.28125 264.898438 249.128906 265.136719 248.957031 C 265.632812 248.550781 265.933594 248.28125 266.039062 248.152344 C 266.066406 248.109375 266.089844 248.074219 266.121094 248.035156 C 266.300781 247.8125 266.460938 247.574219 266.601562 247.324219 C 266.882812 246.816406 267.082031 246.242188 267.199219 245.601562 C 267.359375 244.328125 267.136719 243.195312 266.535156 242.203125 C 266.160156 241.667969 265.910156 241.339844 265.785156 241.222656 C 265.75 241.195312 265.710938 241.167969 265.679688 241.132812 C 265.46875 240.933594 265.246094 240.753906 265.007812 240.59375 C 264.527344 240.273438 263.976562 240.035156 263.363281 239.878906 C 263.359375 239.875 263.355469 239.875 263.351562 239.875 C 262.949219 239.765625 262.542969 239.710938 262.132812 239.710938 Z M 196.09375 239.710938 C 195.683594 239.710938 195.277344 239.765625 194.875 239.875 C 194.871094 239.875 194.867188 239.875 194.863281 239.878906 C 194.25 240.035156 193.703125 240.273438 193.21875 240.59375 C 192.980469 240.753906 192.757812 240.933594 192.546875 241.132812 C 192.515625 241.167969 192.476562 241.195312 192.441406 241.222656 C 192.316406 241.339844 192.066406 241.667969 191.691406 242.203125 C 191.089844 243.195312 190.867188 244.328125 191.027344 245.601562 C 191.144531 246.242188 191.34375 246.816406 191.625 247.324219 C 191.765625 247.574219 191.925781 247.8125 192.105469 248.035156 C 192.136719 248.074219 192.160156 248.109375 192.1875 248.152344 C 192.292969 248.28125 192.59375 248.550781 193.089844 248.957031 C 193.328125 249.128906 193.578125 249.28125 193.832031 249.40625 C 193.875 249.425781 193.914062 249.449219 193.953125 249.476562 C 194.101562 249.550781 194.480469 249.667969 195.082031 249.828125 C 195.410156 249.890625 195.746094 249.917969 196.097656 249.917969 C 196.347656 249.917969 196.605469 249.902344 196.871094 249.871094 L 197.589844 249.710938 C 198.191406 249.515625 198.71875 249.25 199.175781 248.917969 C 199.402344 248.75 199.613281 248.566406 199.808594 248.367188 L 200.117188 248.015625 C 200.296875 247.792969 200.457031 247.550781 200.605469 247.289062 C 200.898438 246.769531 201.085938 246.226562 201.179688 245.667969 C 201.234375 245.015625 201.253906 244.605469 201.234375 244.441406 C 201.222656 244.394531 201.210938 244.347656 201.207031 244.300781 C 201.175781 243.996094 201.117188 243.683594 201.03125 243.363281 C 200.9375 243.074219 200.824219 242.800781 200.695312 242.542969 C 200.378906 241.996094 200.164062 241.660156 200.054688 241.535156 C 200.019531 241.503906 199.984375 241.472656 199.957031 241.4375 C 199.578125 241.015625 199.128906 240.65625 198.601562 240.359375 C 198.105469 240.109375 197.617188 239.933594 197.136719 239.828125 C 196.785156 239.75 196.4375 239.710938 196.09375 239.710938 Z M 262.132812 238.761719 C 262.625 238.761719 263.117188 238.828125 263.601562 238.960938 C 264.320312 239.144531 264.964844 239.425781 265.539062 239.808594 C 265.824219 240 266.09375 240.214844 266.34375 240.453125 C 266.492188 240.546875 266.824219 240.957031 267.332031 241.683594 C 268.070312 242.878906 268.339844 244.234375 268.144531 245.746094 C 268.007812 246.496094 267.773438 247.171875 267.4375 247.777344 C 267.269531 248.082031 267.078125 248.367188 266.863281 248.632812 C 266.785156 248.789062 266.40625 249.144531 265.722656 249.707031 C 265.433594 249.917969 265.132812 250.101562 264.820312 250.253906 C 264.679688 250.367188 264.191406 250.53125 263.355469 250.75 C 262.960938 250.828125 262.554688 250.867188 262.132812 250.867188 C 261.824219 250.867188 261.511719 250.847656 261.191406 250.804688 L 260.382812 250.625 C 259.671875 250.398438 259.039062 250.082031 258.484375 249.679688 C 258.207031 249.476562 257.949219 249.253906 257.714844 249.007812 L 257.375 248.621094 C 257.160156 248.351562 256.964844 248.0625 256.785156 247.75 C 256.4375 247.121094 256.207031 246.464844 256.101562 245.78125 C 256.023438 244.917969 256.011719 244.390625 256.070312 244.199219 C 256.109375 243.839844 256.179688 243.472656 256.28125 243.097656 C 256.394531 242.742188 256.53125 242.410156 256.691406 242.09375 C 257.125 241.34375 257.414062 240.914062 257.554688 240.8125 C 258.007812 240.304688 258.546875 239.875 259.175781 239.523438 C 259.75 239.230469 260.320312 239.023438 260.886719 238.902344 C 261.304688 238.808594 261.71875 238.761719 262.132812 238.761719 Z M 196.09375 238.761719 C 196.507812 238.761719 196.921875 238.808594 197.34375 238.902344 C 197.90625 239.023438 198.476562 239.230469 199.050781 239.523438 C 199.679688 239.875 200.21875 240.304688 200.671875 240.8125 C 200.8125 240.914062 201.101562 241.34375 201.535156 242.09375 C 201.695312 242.410156 201.832031 242.742188 201.945312 243.097656 C 202.046875 243.472656 202.117188 243.839844 202.15625 244.199219 C 202.214844 244.390625 202.203125 244.917969 202.125 245.78125 C 202.019531 246.464844 201.789062 247.121094 201.441406 247.75 C 201.265625 248.0625 201.066406 248.351562 200.851562 248.621094 L 200.511719 249.007812 C 200.277344 249.253906 200.019531 249.476562 199.742188 249.679688 C 199.191406 250.082031 198.554688 250.398438 197.84375 250.625 L 197.035156 250.804688 C 196.714844 250.847656 196.402344 250.867188 196.097656 250.867188 C 195.675781 250.867188 195.265625 250.828125 194.871094 250.75 C 194.035156 250.53125 193.546875 250.367188 193.40625 250.253906 C 193.09375 250.101562 192.792969 249.917969 192.503906 249.707031 C 191.820312 249.144531 191.441406 248.789062 191.363281 248.632812 C 191.148438 248.367188 190.957031 248.082031 190.789062 247.777344 C 190.453125 247.171875 190.21875 246.496094 190.082031 245.746094 C 189.886719 244.234375 190.160156 242.878906 190.894531 241.683594 C 191.402344 240.957031 191.734375 240.546875 191.886719 240.453125 C 192.132812 240.214844 192.402344 240 192.6875 239.808594 C 193.261719 239.425781 193.90625 239.144531 194.625 238.960938 C 195.109375 238.828125 195.601562 238.761719 196.09375 238.761719 Z M 229.167969 196.71875 L 229.125 196.753906 L 229.085938 198.023438 L 229.058594 198.023438 C 229.058594 198.023438 229.0625 198.023438 229.070312 198.023438 L 229.078125 198.023438 C 229.082031 198.023438 229.085938 198.023438 229.089844 198.023438 L 229.085938 198.023438 L 229.089844 198.023438 L 229.085938 198.023438 L 228.601562 214.585938 C 223.621094 214.78125 219.382812 217.839844 217.503906 222.152344 C 214.53125 222.257812 211.640625 222.402344 204.480469 222.535156 C 203.875 222.722656 203.273438 222.914062 202.765625 223.101562 C 204.40625 223.449219 210.859375 223.796875 216.875 223.976562 C 216.707031 224.613281 216.589844 225.269531 216.527344 225.945312 C 216.515625 226.082031 216.46875 226.214844 216.394531 226.335938 C 215.796875 227.296875 215.308594 228.328125 214.941406 229.417969 C 214.941406 229.421875 214.941406 229.421875 214.9375 229.425781 C 214.9375 229.425781 214.9375 229.429688 214.9375 229.429688 C 214.480469 230.792969 214.21875 232.25 214.179688 233.761719 C 201.253906 232.667969 188.339844 231.609375 175.640625 231.03125 C 161.925781 230.410156 148.457031 230.347656 134.988281 230.289062 L 134.984375 230.289062 C 147.222656 231.273438 159.460938 232.257812 170.84375 233.515625 C 169.332031 233.886719 168.132812 234.675781 167.242188 235.878906 C 166.261719 237.214844 165.882812 238.753906 166.109375 240.5 C 166.421875 242.230469 167.25 243.585938 168.589844 244.5625 C 169.300781 245.078125 170.066406 245.425781 170.890625 245.605469 C 171.335938 245.703125 171.796875 245.753906 172.277344 245.753906 C 172.589844 245.753906 172.910156 245.734375 173.238281 245.691406 L 174.066406 245.507812 C 175.714844 244.980469 176.945312 243.996094 177.757812 242.554688 C 178.570312 241.101562 178.742188 239.511719 178.277344 237.78125 C 177.75 236.144531 176.761719 234.921875 175.308594 234.113281 C 175.242188 234.078125 175.171875 234.042969 175.105469 234.007812 C 177.078125 234.242188 179.023438 234.488281 180.929688 234.746094 C 185.738281 235.394531 190.324219 236.113281 194.765625 236.882812 C 192.558594 237.300781 190.828125 238.359375 189.574219 240.0625 C 188.296875 241.789062 187.804688 243.789062 188.097656 246.050781 C 188.507812 248.300781 189.582031 250.058594 191.320312 251.324219 C 192.238281 251.992188 193.234375 252.445312 194.304688 252.679688 C 194.878906 252.808594 195.480469 252.871094 196.101562 252.871094 C 196.507812 252.871094 196.925781 252.84375 197.351562 252.789062 L 198.425781 252.550781 C 200.566406 251.871094 202.160156 250.59375 203.214844 248.71875 C 204.269531 246.835938 204.492188 244.769531 203.890625 242.527344 C 203.222656 240.457031 201.984375 238.898438 200.175781 237.847656 C 205.527344 238.835938 210.699219 239.882812 215.84375 240.9375 C 218.328125 245.703125 223.335938 248.957031 229.261719 250.851562 C 235.023438 248.957031 240.136719 245.539062 242.554688 240.585938 C 247.976562 239.472656 253.4375 238.371094 259.105469 237.335938 C 258.792969 237.460938 258.488281 237.605469 258.191406 237.769531 C 256.304688 238.816406 255.019531 240.402344 254.335938 242.527344 C 253.734375 244.769531 253.960938 246.835938 255.011719 248.71875 C 256.066406 250.59375 257.660156 251.871094 259.800781 252.550781 L 260.875 252.789062 C 261.300781 252.84375 261.71875 252.871094 262.125 252.871094 C 262.746094 252.871094 263.347656 252.808594 263.925781 252.679688 C 264.992188 252.445312 265.988281 251.992188 266.90625 251.324219 C 268.644531 250.058594 269.71875 248.300781 270.128906 246.050781 C 270.421875 243.789062 269.929688 241.789062 268.652344 240.0625 C 267.378906 238.332031 265.609375 237.265625 263.347656 236.859375 C 262.992188 236.808594 262.644531 236.777344 262.296875 236.765625 C 267.085938 235.925781 272.039062 235.140625 277.253906 234.4375 C 279.5625 234.128906 281.921875 233.832031 284.320312 233.550781 C 283.828125 233.683594 283.363281 233.871094 282.917969 234.113281 C 281.464844 234.921875 280.476562 236.144531 279.949219 237.78125 C 279.484375 239.511719 279.65625 241.101562 280.46875 242.554688 C 281.28125 243.996094 282.511719 244.980469 284.160156 245.507812 L 284.988281 245.691406 C 285.316406 245.734375 285.636719 245.753906 285.949219 245.753906 C 286.429688 245.753906 286.890625 245.703125 287.335938 245.605469 C 288.160156 245.425781 288.929688 245.078125 289.636719 244.5625 C 290.976562 243.585938 291.804688 242.230469 292.121094 240.5 C 292.34375 238.753906 291.964844 237.214844 290.984375 235.878906 C 290 234.546875 288.636719 233.726562 286.894531 233.414062 C 286.636719 233.375 286.382812 233.351562 286.132812 233.34375 C 286.050781 233.351562 285.972656 233.363281 285.890625 233.371094 C 285.972656 233.363281 286.050781 233.351562 286.132812 233.34375 C 295.328125 232.304688 305.101562 231.453125 315.003906 230.640625 C 304.273438 230.707031 293.515625 230.847656 282.601562 231.34375 C 269.898438 231.917969 256.980469 232.980469 244.042969 234.074219 C 244.039062 232.449219 243.769531 230.882812 243.277344 229.421875 C 243.277344 229.417969 243.277344 229.417969 243.277344 229.414062 C 242.914062 228.339844 242.433594 227.316406 241.84375 226.367188 C 241.84375 226.363281 241.839844 226.363281 241.839844 226.359375 C 241.757812 226.238281 241.707031 226.097656 241.691406 225.945312 C 241.625 225.230469 241.496094 224.53125 241.3125 223.859375 C 241.464844 223.851562 241.617188 223.847656 241.769531 223.839844 C 251.347656 223.503906 255.453125 223.0625 254.765625 223.160156 C 255.453125 223.0625 255.453125 223.0625 253.550781 222.5625 C 246.207031 222.457031 243.46875 222.324219 240.746094 222.222656 C 238.886719 217.878906 234.632812 214.789062 229.636719 214.585938 Z M 229.167969 196.71875 " fill-opacity="1" fill-rule="nonzero"/></g></svg>