<svg xmlns="http://www.w3.org/2000/svg" xmlns:xlink="http://www.w3.org/1999/xlink" width="1080" zoomAndPan="magnify" viewBox="0 0 810 809.999993" height="1080" preserveAspectRatio="xMidYMid meet" version="1.0"><defs><g/><clipPath id="7438df35e4"><path d="M 200 497 L 541 497 L 541 557.597656 L 200 557.597656 Z M 200 497 " clip-rule="nonzero"/></clipPath></defs><rect x="-81" width="972" fill="#ffffff" y="-80.999999" height="971.999992" fill-opacity="1"/><rect x="-81" width="972" fill="#8c52ff" y="-80.999999" height="971.999992" fill-opacity="1"/><path fill="#b28f73" d="M 473.59375 518.539062 C 455.597656 520.640625 437.320312 516.332031 405.914062 521.460938 C 385.917969 524.730469 323.613281 590.019531 238.160156 535.5625 C 229.1875 529.847656 220.925781 522.636719 214.175781 515.148438 C 114.023438 404.074219 180.050781 201.941406 382.53125 176.132812 C 423.160156 170.953125 558.234375 163.988281 607.316406 299.566406 C 639.316406 387.957031 594.347656 504.441406 473.59375 518.539062 " fill-opacity="1" fill-rule="nonzero"/><path fill="#290708" d="M 340.132812 244.535156 C 319.898438 242.996094 304.171875 257.191406 276.492188 282.90625 C 264.226562 294.304688 255.363281 299.3125 249.90625 308.195312 C 244.765625 316.558594 234.667969 338.128906 239.445312 361.390625 C 244.46875 385.839844 266.421875 408.152344 290.441406 410.226562 C 331.660156 413.78125 362.546875 355.890625 368.03125 343.078125 C 378.492188 318.644531 382.847656 281.164062 361.488281 252.378906 C 355.140625 243.828125 343.496094 244.792969 340.132812 244.535156 " fill-opacity="1" fill-rule="nonzero"/><path fill="#ec7d40" d="M 379.796875 350.492188 C 387.363281 348.957031 405.578125 373.601562 407.261719 382.320312 C 410.964844 401.5 409.261719 405.347656 411.617188 419.382812 C 413.417969 430.089844 417.117188 434.453125 424.054688 463.882812 C 426.566406 474.558594 427.332031 493.339844 422.851562 497.070312 C 420.691406 498.863281 412.171875 499.582031 406.285156 497.941406 C 393.90625 494.496094 370.105469 438.285156 375.875 384.503906 C 376.835938 375.546875 369.117188 352.65625 379.796875 350.492188 " fill-opacity="1" fill-rule="nonzero"/><path fill="#ec7d40" d="M 254.261719 485.660156 C 261.277344 481.203125 266.230469 461.953125 273.007812 417.640625 C 275.195312 403.351562 276.035156 396.988281 274.75 387.988281 C 274.152344 383.789062 271.894531 366.777344 262.113281 363.570312 C 255.695312 361.46875 248.992188 364.929688 247.726562 365.75 C 233.398438 375.023438 232.320312 395.300781 232.472656 435.082031 C 232.589844 466.421875 233.339844 485.84375 238.570312 488.277344 C 245.121094 491.320312 253.28125 486.285156 254.261719 485.660156 " fill-opacity="1" fill-rule="nonzero"/><path fill="#ffffff" d="M 391.003906 443.644531 C 399.335938 443.042969 408.277344 439.925781 416.324219 434.8125 C 414.414062 428.0625 413.535156 425.609375 412.488281 419.382812 C 410.132812 405.347656 411.960938 401.476562 408.132812 382.320312 C 403.992188 361.609375 385.683594 345.042969 368.464844 347 C 349.332031 349.183594 340.570312 334.359375 315.722656 339.589844 C 305.996094 341.636719 294.851562 346.882812 284.089844 351.664062 C 283.0625 352.117188 271.480469 357.25 264.726562 359.210938 C 254.34375 362.226562 247.257812 361.660156 242.929688 366.1875 C 238.308594 371.023438 234.984375 378.449219 235.433594 384.898438 C 232.683594 396.421875 232.386719 412.515625 232.472656 434.644531 C 232.484375 438.167969 232.507812 441.535156 232.542969 444.746094 C 232.878906 444.949219 233.214844 445.144531 233.558594 445.328125 C 243.109375 450.394531 256.347656 449.269531 268.632812 443.613281 C 269.28125 440.066406 269.945312 436.261719 270.625 432.191406 C 271.023438 434.492188 271.414062 436.875 271.808594 439.332031 C 274.070312 459.464844 266.214844 472.3125 259.757812 486.683594 C 251.960938 504.03125 244.3125 511.148438 251.027344 516.828125 C 265.238281 528.863281 281.640625 523.960938 326.605469 520.542969 C 357.3125 518.207031 381.859375 522.78125 374.304688 506.734375 C 360.84375 478.136719 380.84375 461.183594 391.003906 443.644531 " fill-opacity="1" fill-rule="nonzero"/><path fill="#b28f73" d="M 387.425781 449.90625 C 388.316406 446.628906 389.359375 443.4375 390.171875 440.242188 C 390.992188 437.054688 391.59375 433.878906 391.730469 430.726562 C 391.867188 427.566406 391.644531 424.433594 390.875 421.410156 C 390.15625 418.375 388.902344 415.429688 387.660156 412.269531 C 386.417969 409.125 385.308594 405.640625 385.066406 402.039062 C 384.953125 400.238281 384.976562 398.46875 385.152344 396.71875 C 385.339844 394.964844 385.632812 393.242188 386.066406 391.5625 C 386.914062 388.191406 388.199219 384.980469 389.800781 381.96875 C 390.59375 380.460938 391.488281 379.007812 392.445312 377.609375 C 393.398438 376.207031 394.441406 374.875 395.5625 373.613281 C 394.730469 375.082031 393.96875 376.570312 393.257812 378.074219 C 392.910156 378.832031 392.570312 379.589844 392.261719 380.355469 C 391.941406 381.121094 391.640625 381.890625 391.359375 382.667969 C 390.21875 385.761719 389.371094 388.9375 388.878906 392.132812 C 388.636719 393.730469 388.484375 395.332031 388.453125 396.921875 C 388.441406 397.71875 388.449219 398.507812 388.488281 399.300781 C 388.535156 400.085938 388.621094 400.859375 388.746094 401.628906 C 388.976562 403.167969 389.386719 404.664062 389.875 406.160156 C 390.375 407.652344 390.976562 409.140625 391.617188 410.660156 C 392.273438 412.179688 392.925781 413.746094 393.546875 415.367188 C 394.148438 416.996094 394.683594 418.691406 395.074219 420.4375 C 395.847656 423.9375 395.992188 427.578125 395.5 431.082031 C 395.023438 434.601562 393.921875 437.960938 392.496094 441.070312 C 391.0625 444.1875 389.34375 447.101562 387.425781 449.90625 " fill-opacity="1" fill-rule="nonzero"/><path fill="#b28f73" d="M 254.703125 385.808594 C 257.011719 387.054688 259.035156 388.910156 260.667969 391.039062 C 262.324219 393.160156 263.59375 395.550781 264.675781 397.984375 C 266.808594 402.886719 268.101562 408.035156 269.121094 413.171875 C 270.132812 418.3125 270.832031 423.476562 271.398438 428.648438 C 271.949219 433.820312 272.390625 438.996094 272.570312 444.234375 C 270.957031 439.246094 269.773438 434.164062 268.691406 429.078125 C 267.621094 423.992188 266.6875 418.894531 265.707031 413.84375 C 264.703125 408.796875 263.675781 403.777344 262.121094 398.957031 C 261.339844 396.554688 260.441406 394.1875 259.238281 391.96875 C 258.664062 390.839844 257.964844 389.789062 257.230469 388.742188 C 256.847656 388.230469 256.464844 387.714844 256.023438 387.242188 C 255.625 386.730469 255.144531 386.300781 254.703125 385.808594 " fill-opacity="1" fill-rule="nonzero"/><path fill="#ec7d40" d="M 340.535156 324.929688 C 341.742188 328.976562 337.28125 352.761719 336.421875 354.855469 C 333.59375 361.703125 324.933594 368.824219 316.4375 368.570312 C 304.628906 368.226562 299.964844 359.46875 300.269531 350.902344 C 300.6875 339.375 301.121094 328.90625 299.242188 306.019531 C 298.742188 299.875 338.203125 317.117188 340.535156 324.929688 " fill-opacity="1" fill-rule="nonzero"/><path fill="#d66730" d="M 324.328125 312.046875 C 319.941406 310.441406 319.84375 308.230469 314.0625 310.382812 C 309.980469 311.902344 306.84375 315.855469 304.582031 320.957031 C 306.042969 327.6875 310 335.246094 314.375 340.417969 C 317.285156 343.855469 321.792969 349.1875 329.460938 350.089844 C 331.785156 350.367188 334.394531 350.234375 336.910156 349.644531 C 338.71875 341.839844 341.429688 327.9375 340.535156 324.929688 C 338.203125 317.117188 328.5 313.570312 324.328125 312.046875 " fill-opacity="1" fill-rule="nonzero"/><path fill="#f79556" d="M 289.210938 275.277344 C 288.992188 264.703125 294.171875 256.742188 296.050781 253.929688 C 305.027344 240.527344 314.679688 237.042969 318.265625 236.214844 C 330.71875 233.320312 341.378906 233.542969 351.277344 241.042969 C 369.347656 254.734375 366.484375 284.886719 365.164062 294.203125 C 363.890625 303.183594 358.222656 330.214844 343.21875 341.726562 C 340.632812 343.710938 337.398438 345.929688 332.015625 345.75 C 324.472656 345.503906 317.488281 340 314.972656 337.296875 C 306.257812 327.929688 304.171875 321.058594 300.949219 303.871094 C 297.660156 286.320312 289.425781 285.851562 289.210938 275.277344 " fill-opacity="1" fill-rule="nonzero"/><path fill="#f79556" d="M 254.703125 413.277344 C 256.984375 428.28125 258.628906 428.484375 260.800781 445.546875 C 262.296875 457.246094 261.214844 464.785156 258.625 472.578125 C 256.910156 477.734375 256.378906 483.386719 249.90625 486.96875 C 248.871094 487.542969 243.808594 491.167969 236.394531 488.277344 C 235.410156 487.890625 225.933594 480.863281 222.878906 460.808594 C 221.214844 449.871094 221.898438 421.515625 227.675781 397.582031 C 234.894531 367.683594 233.71875 372.5 236.394531 363.570312 C 239.007812 354.851562 239.882812 339.589844 249.46875 337.410156 C 252.6875 336.679688 256.046875 339.246094 257.75 341.769531 C 259.988281 345.082031 257.464844 348.882812 256.445312 354.851562 C 252.304688 379.050781 252.339844 397.777344 254.703125 413.277344 " fill-opacity="1" fill-rule="nonzero"/><path fill="#b28f73" d="M 342.796875 355.832031 C 342.164062 359.441406 340.730469 362.902344 338.78125 366.101562 C 337.800781 367.699219 336.59375 369.160156 335.304688 370.5625 C 334.613281 371.21875 333.953125 371.914062 333.191406 372.496094 C 332.816406 372.796875 332.449219 373.109375 332.066406 373.398438 L 330.875 374.210938 C 329.269531 375.273438 327.574219 376.246094 325.765625 377.003906 C 323.960938 377.757812 322.015625 378.207031 320.066406 378.296875 C 318.113281 378.394531 316.160156 378.199219 314.292969 377.738281 C 312.429688 377.269531 310.628906 376.558594 309.050781 375.453125 L 309.171875 375.035156 C 312.917969 374.828125 316.296875 374.589844 319.566406 373.945312 C 321.195312 373.625 322.789062 373.285156 324.398438 372.890625 C 326.003906 372.511719 327.605469 371.96875 329.09375 371.195312 C 332.074219 369.65625 334.773438 367.472656 337.011719 364.8125 C 339.285156 362.171875 341.089844 359.066406 342.375 355.722656 L 342.796875 355.832031 " fill-opacity="1" fill-rule="nonzero"/><path fill="#dc2947" d="M 326.714844 329.617188 C 326.527344 329.289062 326.746094 328.878906 327.121094 328.851562 C 328.746094 328.753906 332.691406 328.59375 337.175781 329.046875 C 340.246094 329.359375 343.125 330.152344 344.320312 330.511719 C 344.636719 330.609375 344.773438 330.972656 344.609375 331.253906 C 343.761719 332.730469 341.011719 336.5625 335.539062 335.953125 C 330.617188 335.40625 327.707031 331.289062 326.714844 329.617188 " fill-opacity="1" fill-rule="nonzero"/><path fill="#0d1114" d="M 350.070312 290.792969 C 350.507812 289.671875 351.214844 288.738281 352.035156 287.933594 C 352.851562 287.113281 353.804688 286.441406 354.839844 285.910156 C 356.925781 284.808594 359.417969 284.804688 361.699219 285.035156 C 362.273438 285.101562 362.84375 285.144531 363.40625 285.285156 L 364.242188 285.457031 C 364.535156 285.535156 364.84375 285.632812 365.136719 285.722656 C 366.292969 286.160156 367.285156 286.824219 368.144531 287.5625 C 369.847656 289.070312 365.28125 288.390625 364.421875 288.269531 L 363.785156 288.199219 L 363.070312 288.175781 C 362.597656 288.140625 362.125 288.191406 361.660156 288.214844 C 361.191406 288.238281 360.726562 288.347656 360.273438 288.425781 C 359.820312 288.566406 359.367188 288.664062 358.929688 288.832031 C 358.050781 289.117188 357.191406 289.402344 356.277344 289.613281 L 353.460938 290.335938 C 352.484375 290.597656 351.476562 290.863281 350.328125 291.097656 L 350.070312 290.792969 " fill-opacity="1" fill-rule="nonzero"/><path fill="#0d1114" d="M 310.574219 284.796875 C 312.449219 283.398438 314.621094 282.398438 316.929688 281.691406 C 319.246094 281.007812 321.75 280.78125 324.253906 281.058594 C 324.886719 281.109375 325.503906 281.242188 326.144531 281.316406 C 326.769531 281.433594 327.398438 281.578125 328.03125 281.722656 C 329.277344 282.070312 330.445312 282.675781 331.445312 283.492188 C 333.421875 285.136719 334.945312 287.339844 335.296875 289.953125 L 334.929688 290.222656 C 332.59375 289.152344 330.789062 288.148438 328.957031 287.289062 C 328.050781 286.859375 327.199219 286.394531 326.335938 285.882812 C 325.898438 285.648438 325.457031 285.398438 324.996094 285.167969 C 324.53125 284.980469 324.0625 284.761719 323.566406 284.625 C 322.582031 284.34375 321.566406 284.109375 320.515625 284.027344 C 319.472656 283.890625 318.394531 283.867188 317.316406 283.929688 C 315.136719 283.996094 312.941406 284.472656 310.792969 285.195312 L 310.574219 284.796875 " fill-opacity="1" fill-rule="nonzero"/><path fill="#e6e6e6" d="M 318.582031 296.511719 C 318.605469 297.109375 320.484375 298.835938 325.882812 298.605469 C 328.28125 298.503906 330.652344 297.800781 330.601562 296.597656 C 330.554688 295.453125 328.925781 293.410156 326.851562 293.15625 C 323.226562 292.707031 318.53125 295.308594 318.582031 296.511719 " fill-opacity="1" fill-rule="nonzero"/><path fill="#0d1114" d="M 322.703125 294.980469 C 323.933594 291.808594 329.589844 292.882812 328.476562 297.171875 C 327.363281 301.46875 320.71875 300.078125 322.703125 294.980469 " fill-opacity="1" fill-rule="nonzero"/><path fill="#0d1114" d="M 331.183594 297.484375 C 330.542969 296.863281 329.933594 296.367188 329.292969 296.074219 C 328.660156 295.773438 328.039062 295.652344 327.386719 295.625 C 326.085938 295.5625 324.648438 295.835938 323.132812 296.105469 C 321.617188 296.378906 320.019531 296.6875 318.296875 296.765625 C 317.433594 296.789062 316.535156 296.769531 315.617188 296.535156 C 315.164062 296.429688 314.699219 296.234375 314.296875 295.96875 C 313.890625 295.6875 313.578125 295.292969 313.441406 294.867188 C 313.859375 295.050781 314.230469 295.121094 314.597656 295.113281 C 314.972656 295.082031 315.308594 295.035156 315.671875 294.933594 C 316.382812 294.75 317.101562 294.496094 317.839844 294.234375 C 319.316406 293.722656 320.867188 293.191406 322.550781 292.886719 C 324.222656 292.601562 326.097656 292.457031 327.984375 293.132812 C 328.914062 293.476562 329.796875 294.085938 330.367188 294.890625 C 330.9375 295.691406 331.195312 296.605469 331.183594 297.484375 " fill-opacity="1" fill-rule="nonzero"/><path fill="#e6e6e6" d="M 351.667969 299.210938 C 351.71875 299.796875 353.554688 301.394531 358.617188 300.964844 C 360.863281 300.773438 361.875 299.703125 361.777344 298.542969 C 361.683594 297.433594 361.257812 295.808594 359.296875 295.640625 C 355.875 295.34375 351.570312 298.054688 351.667969 299.210938 " fill-opacity="1" fill-rule="nonzero"/><path fill="#0d1114" d="M 355.726562 297.804688 C 356.726562 294.867188 361.914062 295.628906 361.066406 299.574219 C 360.214844 303.523438 354.117188 302.515625 355.726562 297.804688 " fill-opacity="1" fill-rule="nonzero"/><path fill="#0d1114" d="M 363.085938 298.960938 C 362.40625 298.617188 361.828125 298.277344 361.246094 298.058594 C 360.667969 297.835938 360.132812 297.714844 359.640625 297.699219 C 358.671875 297.660156 357.71875 297.960938 356.578125 298.378906 C 355.445312 298.792969 354.203125 299.328125 352.734375 299.625 C 352 299.761719 351.195312 299.84375 350.371094 299.667969 C 349.554688 299.496094 348.785156 299 348.457031 298.320312 C 349.214844 298.441406 349.804688 298.328125 350.332031 298.117188 C 350.859375 297.910156 351.363281 297.609375 351.890625 297.292969 C 352.953125 296.664062 354.09375 295.933594 355.492188 295.417969 C 356.191406 295.171875 356.953125 294.964844 357.785156 294.910156 C 358.613281 294.855469 359.519531 294.96875 360.316406 295.324219 C 361.121094 295.671875 361.78125 296.238281 362.234375 296.875 C 362.6875 297.515625 362.960938 298.226562 363.085938 298.960938 " fill-opacity="1" fill-rule="nonzero"/><path fill="#f79556" d="M 304.171875 312.773438 C 303.65625 313.640625 301.78125 316.773438 299.378906 316.695312 C 296.816406 316.617188 295.183594 312.941406 292.40625 306.667969 C 289.761719 300.714844 289.90625 298.507812 290.222656 297.074219 C 290.429688 296.167969 291.03125 293.464844 293.277344 292.28125 C 296.125 290.777344 299.625 292.773438 300.25 293.152344 C 306.046875 296.636719 307.832031 306.65625 304.171875 312.773438 " fill-opacity="1" fill-rule="nonzero"/><path fill="#d66730" d="M 259.921875 316.414062 C 261.121094 311.910156 263.703125 308.566406 264.792969 304.03125 C 264.863281 303.738281 265.046875 302.632812 265.96875 301.929688 C 268.203125 300.226562 272.902344 299.71875 278.0625 297.074219 C 278.621094 296.78125 281.949219 294.605469 282.824219 295.125 C 283.601562 295.585938 284.335938 296.695312 284.148438 297.703125 C 284.039062 298.292969 284.121094 300.476562 281.445312 302.152344 C 276.988281 304.941406 271.800781 306.210938 271.144531 306.839844 C 270.125 307.816406 270.90625 311.230469 270.886719 312.585938 C 270.765625 323.378906 264.921875 325.273438 265.429688 329.980469 C 265.53125 330.925781 265.96875 332.4375 267.101562 332.929688 C 268.617188 333.597656 269.90625 333.144531 274.734375 331.117188 C 275.5625 330.769531 285.734375 326.570312 287.757812 329.542969 C 288.480469 330.59375 287.632812 332.414062 286.519531 333.082031 C 285.601562 333.636719 282.34375 335.371094 279.164062 336.714844 C 274.585938 338.640625 273.625 338.984375 271.800781 340.339844 C 269.957031 341.71875 270.375 341.117188 268.425781 343.429688 C 265.488281 346.917969 261.855469 348.375 259.894531 349.167969 C 256.582031 350.5 251.742188 350.328125 249.496094 348.339844 C 247.339844 346.433594 248.597656 343.941406 250.304688 338.300781 C 253.988281 326.144531 257.335938 326.160156 259.921875 316.414062 " fill-opacity="1" fill-rule="nonzero"/><path fill="#290708" d="M 335.734375 234.738281 C 329.097656 233.269531 322.273438 233.066406 315.8125 234.433594 C 314.203125 234.785156 312.609375 235.199219 311.058594 235.738281 C 309.511719 236.28125 308 236.894531 306.53125 237.605469 C 303.578125 239 300.84375 240.796875 298.355469 242.878906 C 293.335938 247.007812 289.394531 252.324219 286.398438 258.121094 C 286.03125 258.851562 285.6875 259.59375 285.328125 260.328125 C 284.945312 261.101562 284.578125 261.914062 284.167969 262.683594 C 283.378906 264.25 282.488281 265.761719 281.585938 267.257812 C 279.734375 270.230469 277.667969 273.042969 275.472656 275.71875 C 271.070312 281.074219 266.148438 285.859375 261.363281 290.609375 C 258.980469 292.988281 256.613281 295.363281 254.484375 297.886719 C 252.34375 300.386719 250.503906 303.148438 248.875 306.035156 C 247.261719 308.925781 245.898438 311.964844 244.859375 315.121094 C 243.796875 318.269531 243.035156 321.527344 242.578125 324.839844 C 241.667969 331.476562 241.945312 338.289062 243.042969 344.984375 C 241.324219 338.421875 240.519531 331.546875 241.027344 324.675781 C 241.289062 321.246094 241.871094 317.828125 242.78125 314.484375 C 243.710938 311.148438 244.984375 307.902344 246.53125 304.796875 C 247.308594 303.242188 248.152344 301.722656 249.058594 300.242188 C 249.515625 299.507812 249.980469 298.769531 250.472656 298.035156 C 250.964844 297.316406 251.476562 296.605469 251.996094 295.910156 C 254.097656 293.132812 256.367188 290.539062 258.671875 288.027344 C 263.289062 283.007812 268 278.210938 272.136719 273.011719 C 273.175781 271.71875 274.179688 270.402344 275.144531 269.0625 C 276.101562 267.722656 277.011719 266.351562 277.886719 264.960938 C 278.746094 263.5625 279.585938 262.152344 280.332031 260.695312 C 280.722656 259.96875 281.054688 259.238281 281.433594 258.492188 C 281.828125 257.710938 282.214844 256.921875 282.621094 256.144531 C 284.273438 253.039062 286.214844 250.078125 288.46875 247.355469 C 290.710938 244.625 293.257812 242.128906 296.09375 240.007812 C 298.933594 237.894531 302.019531 236.113281 305.285156 234.789062 C 308.535156 233.429688 311.980469 232.609375 315.433594 232.140625 C 317.164062 231.941406 318.902344 231.8125 320.636719 231.839844 C 322.371094 231.855469 324.101562 231.953125 325.808594 232.183594 C 327.519531 232.398438 329.207031 232.746094 330.863281 233.160156 L 332.105469 233.492188 C 332.511719 233.613281 332.917969 233.75 333.324219 233.878906 C 334.144531 234.117188 334.933594 234.445312 335.734375 234.738281 " fill-opacity="1" fill-rule="nonzero"/><path fill="#ffffff" d="M 403.535156 218.257812 L 530.242188 218.257812 C 538.507812 218.257812 545.207031 224.960938 545.207031 233.234375 L 545.207031 292.796875 C 545.207031 301.0625 538.507812 307.765625 530.242188 307.765625 L 437.683594 307.765625 L 420.621094 323.363281 L 420.621094 307.765625 L 403.535156 307.765625 C 395.273438 307.765625 388.570312 301.0625 388.570312 292.796875 L 388.570312 233.234375 C 388.570312 224.960938 395.273438 218.257812 403.535156 218.257812 " fill-opacity="1" fill-rule="nonzero"/><path fill="#dc2947" d="M 495.144531 287.945312 C 495.144531 289.769531 493.667969 291.242188 491.847656 291.242188 C 490.027344 291.242188 488.554688 289.769531 488.554688 287.945312 C 488.554688 286.128906 490.027344 284.652344 491.847656 284.652344 C 493.667969 284.652344 495.144531 286.128906 495.144531 287.945312 " fill-opacity="1" fill-rule="nonzero"/><path fill="#dc2947" d="M 508.804688 287.945312 C 508.804688 289.769531 507.332031 291.242188 505.507812 291.242188 C 503.691406 291.242188 502.214844 289.769531 502.214844 287.945312 C 502.214844 286.128906 503.691406 284.652344 505.507812 284.652344 C 507.332031 284.652344 508.804688 286.128906 508.804688 287.945312 " fill-opacity="1" fill-rule="nonzero"/><path fill="#dc2947" d="M 522.464844 287.945312 C 522.464844 289.769531 520.988281 291.242188 519.171875 291.242188 C 517.351562 291.242188 515.878906 289.769531 515.878906 287.945312 C 515.878906 286.128906 517.351562 284.652344 519.171875 284.652344 C 520.988281 284.652344 522.464844 286.128906 522.464844 287.945312 " fill-opacity="1" fill-rule="nonzero"/><path fill="#dc2947" d="M 522.304688 243.839844 L 446.414062 243.839844 C 444.585938 243.839844 443.105469 242.359375 443.105469 240.53125 C 443.105469 238.703125 444.585938 237.222656 446.414062 237.222656 L 522.304688 237.222656 C 524.132812 237.222656 525.613281 238.703125 525.613281 240.53125 C 525.613281 242.359375 524.132812 243.839844 522.304688 243.839844 " fill-opacity="1" fill-rule="nonzero"/><path fill="#dc2947" d="M 522.304688 259.652344 L 411.910156 259.652344 C 410.082031 259.652344 408.597656 258.171875 408.597656 256.34375 C 408.597656 254.515625 410.082031 253.035156 411.910156 253.035156 L 522.304688 253.035156 C 524.132812 253.035156 525.613281 254.515625 525.613281 256.34375 C 525.613281 258.171875 524.132812 259.652344 522.304688 259.652344 " fill-opacity="1" fill-rule="nonzero"/><path fill="#dc2947" d="M 522.304688 275.464844 L 411.910156 275.464844 C 410.082031 275.464844 408.597656 273.984375 408.597656 272.15625 C 408.597656 270.328125 410.082031 268.84375 411.910156 268.84375 L 522.304688 268.84375 C 524.132812 268.84375 525.613281 270.328125 525.613281 272.15625 C 525.613281 273.984375 524.132812 275.464844 522.304688 275.464844 " fill-opacity="1" fill-rule="nonzero"/><path fill="#dc2947" d="M 478.820312 291.277344 L 411.910156 291.277344 C 410.082031 291.277344 408.597656 289.792969 408.597656 287.96875 C 408.597656 286.136719 410.082031 284.660156 411.910156 284.660156 L 478.820312 284.660156 C 480.644531 284.660156 482.128906 286.136719 482.128906 287.96875 C 482.128906 289.792969 480.644531 291.277344 478.820312 291.277344 " fill-opacity="1" fill-rule="nonzero"/><path fill="#ceb3a3" d="M 561.015625 313.734375 L 447.792969 313.734375 C 440.40625 313.734375 434.417969 319.722656 434.417969 327.113281 L 434.417969 365.78125 C 434.417969 373.171875 440.40625 379.15625 447.792969 379.15625 L 530.5 379.15625 L 545.746094 393.09375 L 545.746094 379.15625 L 561.015625 379.15625 C 568.402344 379.15625 574.386719 373.171875 574.386719 365.78125 L 574.386719 327.113281 C 574.386719 319.722656 568.402344 313.734375 561.015625 313.734375 " fill-opacity="1" fill-rule="nonzero"/><path fill="#ffffff" d="M 529.457031 360.441406 C 529.457031 362.070312 528.136719 363.386719 526.511719 363.386719 C 524.886719 363.386719 523.566406 362.070312 523.566406 360.441406 C 523.566406 358.816406 524.886719 357.5 526.511719 357.5 C 528.136719 357.5 529.457031 358.816406 529.457031 360.441406 " fill-opacity="1" fill-rule="nonzero"/><path fill="#ffffff" d="M 541.664062 360.441406 C 541.664062 362.070312 540.347656 363.386719 538.71875 363.386719 C 537.09375 363.386719 535.773438 362.070312 535.773438 360.441406 C 535.773438 358.816406 537.09375 357.5 538.71875 357.5 C 540.347656 357.5 541.664062 358.816406 541.664062 360.441406 " fill-opacity="1" fill-rule="nonzero"/><path fill="#ffffff" d="M 553.871094 360.441406 C 553.871094 362.070312 552.550781 363.386719 550.925781 363.386719 C 549.300781 363.386719 547.980469 362.070312 547.980469 360.441406 C 547.980469 358.816406 549.300781 357.5 550.925781 357.5 C 552.550781 357.5 553.871094 358.816406 553.871094 360.441406 " fill-opacity="1" fill-rule="nonzero"/><path fill="#ffffff" d="M 553.726562 335.085938 L 485.914062 335.085938 C 484.28125 335.085938 482.957031 333.761719 482.957031 332.128906 C 482.957031 330.496094 484.28125 329.171875 485.914062 329.171875 L 553.726562 329.171875 C 555.359375 329.171875 556.683594 330.496094 556.683594 332.128906 C 556.683594 333.761719 555.359375 335.085938 553.726562 335.085938 " fill-opacity="1" fill-rule="nonzero"/><path fill="#ffffff" d="M 553.726562 349.289062 L 455.078125 349.289062 C 453.449219 349.289062 452.125 347.964844 452.125 346.332031 C 452.125 344.699219 453.449219 343.375 455.078125 343.375 L 553.726562 343.375 C 555.359375 343.375 556.683594 344.699219 556.683594 346.332031 C 556.683594 347.964844 555.359375 349.289062 553.726562 349.289062 " fill-opacity="1" fill-rule="nonzero"/><path fill="#ffffff" d="M 514.867188 363.417969 L 455.078125 363.417969 C 453.449219 363.417969 452.125 362.09375 452.125 360.460938 C 452.125 358.828125 453.449219 357.503906 455.078125 357.503906 L 514.867188 357.503906 C 516.503906 357.503906 517.828125 358.828125 517.828125 360.460938 C 517.828125 362.09375 516.503906 363.417969 514.867188 363.417969 " fill-opacity="1" fill-rule="nonzero"/><path fill="#ffffff" d="M 295.175781 347.613281 L 295.507812 347.757812 C 296.523438 348.191406 299.519531 347.789062 300.058594 346.820312 L 309.554688 329.800781 C 309.824219 329.320312 309.898438 328.757812 309.765625 328.222656 L 297.292969 277.917969 C 296.816406 275.996094 292.414062 275.675781 291.480469 277.417969 L 283.632812 292.144531 C 283.394531 292.585938 283.320312 293.097656 283.417969 293.585938 L 293.910156 346.050781 C 294.046875 346.746094 294.519531 347.332031 295.175781 347.613281 " fill-opacity="1" fill-rule="nonzero"/><path fill="#dc2947" d="M 294.722656 347.613281 L 295.054688 347.757812 C 296.074219 348.191406 297.253906 347.789062 297.796875 346.820312 L 307.292969 329.800781 C 307.5625 329.320312 307.636719 328.757812 307.503906 328.222656 L 295.03125 277.917969 C 294.554688 275.996094 291.960938 275.675781 291.027344 277.417969 L 283.175781 292.144531 C 282.945312 292.585938 282.867188 293.097656 282.964844 293.585938 L 293.453125 346.050781 C 293.59375 346.746094 294.066406 347.332031 294.722656 347.613281 " fill-opacity="1" fill-rule="nonzero"/><path fill="#f79556" d="M 280.875 321.222656 C 281.460938 321.140625 282.34375 321.007812 283.480469 321.222656 C 284.625 321.429688 285.304688 321.851562 286.832031 322.707031 C 290.546875 324.792969 290.230469 324.371094 290.925781 324.941406 C 292.722656 326.417969 292.339844 327.171875 294.277344 328.667969 C 295.199219 329.378906 297.632812 330.648438 300.234375 329.039062 C 301.167969 328.464844 300.667969 327.078125 300.605469 326.808594 C 300.425781 325.992188 300.007812 325.742188 298.375 323.828125 C 297.15625 322.402344 296.738281 321.777344 296.886719 321.589844 C 296.980469 321.472656 299.121094 321.960938 299.121094 320.101562 C 299.121094 319.222656 298.523438 318.496094 297.628906 317.496094 C 294.515625 314.007812 294.226562 313.027344 292.046875 311.539062 C 291.734375 311.324219 290.8125 310.613281 288.691406 310.046875 C 283.109375 308.558594 280.054688 306.34375 277.523438 307.066406 C 274.914062 307.8125 258.921875 312.761719 257.789062 313.398438 C 255.898438 314.457031 255.117188 316.375 254.8125 317.125 C 251.738281 324.585938 245.636719 335.839844 244.386719 337.980469 C 243.738281 339.089844 242.152344 348.40625 248.109375 350.269531 C 252.585938 351.667969 256.550781 349.125 257.046875 348.78125 C 258.890625 347.507812 259.765625 345.945312 261.515625 342.824219 C 264.589844 337.328125 264.621094 334.328125 267.101562 333.136719 C 267.296875 333.042969 268.910156 332.285156 271.195312 331.644531 C 271.992188 331.425781 272.390625 331.3125 272.683594 331.273438 C 275.6875 330.886719 280.015625 332.222656 280.5 332.394531 C 281.1875 332.636719 283.136719 334.761719 289.066406 337.980469 C 289.835938 338.398438 293.160156 340.214844 294.652344 338.722656 C 295.3125 338.058594 295.035156 336.914062 295.019531 336.863281 C 294.695312 335.535156 293.28125 334.957031 292.046875 334.257812 C 288.519531 332.253906 289.109375 330.738281 284.96875 327.921875 C 283.636719 327.015625 282.515625 326.34375 280.875 325.6875 C 275.289062 323.453125 271.566406 325.316406 271.195312 323.828125 C 270.910156 322.683594 274.988281 322.007812 280.875 321.222656 " fill-opacity="1" fill-rule="nonzero"/><path fill="#d66730" d="M 267.46875 316.003906 C 269.996094 315.050781 272.550781 314.222656 275.128906 313.453125 C 276.414062 313.054688 277.707031 312.710938 279.015625 312.359375 C 279.675781 312.191406 280.308594 312.027344 281.039062 311.910156 C 281.757812 311.800781 282.511719 311.796875 283.25 311.933594 C 283.601562 311.988281 284.039062 312.148438 284.34375 312.289062 C 284.667969 312.4375 284.976562 312.59375 285.28125 312.75 C 285.882812 313.0625 286.480469 313.382812 287.066406 313.714844 C 288.230469 314.390625 289.398438 315.058594 290.542969 315.757812 L 292.265625 316.773438 C 292.917969 317.160156 293.410156 317.660156 293.875 318.167969 C 294.777344 319.195312 295.550781 320.265625 296.511719 321.222656 C 295.367188 320.492188 294.417969 319.488281 293.421875 318.621094 C 292.929688 318.1875 292.414062 317.777344 291.875 317.539062 C 291.253906 317.257812 290.652344 316.953125 290.050781 316.652344 C 288.84375 316.058594 287.667969 315.410156 286.472656 314.804688 C 285.882812 314.496094 285.296875 314.183594 284.703125 313.890625 C 284.410156 313.742188 284.113281 313.601562 283.824219 313.472656 C 283.519531 313.34375 283.320312 313.273438 283.007812 313.21875 C 282.425781 313.101562 281.820312 313.089844 281.214844 313.171875 C 280.613281 313.253906 279.945312 313.425781 279.300781 313.5625 L 275.382812 314.4375 C 272.761719 315.019531 270.132812 315.574219 267.46875 316.003906 " fill-opacity="1" fill-rule="nonzero"/><path fill="#290708" d="M 267.898438 304.941406 C 277.785156 300.078125 287.96875 296.035156 296.726562 293.625 C 333.523438 283.5 346.917969 258.664062 346.917969 258.664062 C 346.917969 258.664062 381.726562 297.707031 371.679688 328.300781 C 368.066406 339.300781 363.554688 344.59375 363.367188 347.21875 C 364.5 347.210938 365.667969 347.140625 366.878906 347.003906 C 367.085938 346.980469 367.292969 346.960938 367.503906 346.945312 C 371.070312 341.554688 376.320312 328.300781 376.320312 328.300781 C 380.707031 315.652344 378.96875 304.710938 375.488281 282.832031 C 374.082031 274 372.257812 260.253906 362.789062 246.261719 C 355.046875 234.820312 344.710938 233.992188 340.722656 234.382812 C 339.113281 234.851562 339.261719 235.109375 338.976562 234.996094 C 317.410156 226.339844 296.667969 232.753906 282.9375 264.140625 C 274.308594 283.863281 255.972656 295.371094 249.027344 308.835938 C 240.558594 325.265625 240.773438 336.242188 241.203125 337.964844 C 241.425781 338.863281 246.742188 315.347656 267.898438 304.941406 " fill-opacity="1" fill-rule="nonzero"/><g clip-path="url(#7438df35e4)"><path fill="#0d1114" d="M 200.007812 497.21875 C 204.417969 503.539062 209.285156 509.675781 214.609375 515.582031 C 221.359375 523.070312 229.621094 530.28125 238.597656 536 C 324.046875 590.453125 386.351562 525.164062 406.351562 521.898438 C 437.753906 516.765625 456.035156 521.074219 474.03125 518.972656 C 499.804688 515.964844 522.121094 508.289062 540.976562 497.21875 L 200.007812 497.21875 " fill-opacity="1" fill-rule="nonzero"/></g><path fill="#ffffff" d="M 366.8125 500.902344 L 414.378906 494.761719 L 450.8125 505.121094 L 398.648438 516.246094 L 366.8125 500.902344 " fill-opacity="1" fill-rule="nonzero"/><path fill="#dc2947" d="M 311.4375 518.835938 C 311.328125 524.21875 295.609375 528.261719 276.332031 527.867188 C 257.054688 527.476562 241.515625 522.792969 241.625 517.414062 C 241.734375 512.03125 257.453125 507.988281 276.730469 508.382812 C 296.007812 508.773438 311.546875 513.453125 311.4375 518.835938 " fill-opacity="1" fill-rule="nonzero"/><path fill="#ffffff" d="M 276.324219 527.867188 C 257.257812 527.480469 241.851562 522.898438 241.621094 517.589844 C 241.617188 517.644531 241.609375 517.707031 241.609375 517.761719 C 241.5 523.144531 250.648438 531.1875 276.246094 531.707031 C 301.261719 532.21875 311.3125 524.566406 311.421875 519.183594 C 311.421875 519.125 311.421875 519.070312 311.417969 519.011719 C 310.976562 524.304688 295.390625 528.257812 276.324219 527.867188 " fill-opacity="1" fill-rule="nonzero"/><path fill="#ffffff" d="M 300.898438 497.109375 C 300.976562 493.238281 290.308594 489.878906 277.074219 489.609375 C 264.015625 489.34375 253.34375 492.183594 252.980469 495.976562 C 252.96875 495.988281 252.960938 496.003906 252.960938 496.023438 C 252.355469 508.296875 258.777344 519.679688 262.242188 522.542969 C 264.417969 524.339844 269.765625 525.894531 276.425781 526.03125 C 283.332031 526.171875 288.484375 524.992188 290.363281 523.265625 C 290.4375 523.222656 290.511719 523.175781 290.578125 523.125 C 294.109375 520.414062 300.9375 509.441406 300.882812 497.261719 C 300.886719 497.210938 300.894531 497.160156 300.898438 497.109375 " fill-opacity="1" fill-rule="nonzero"/><path fill="#dc2947" d="M 256.796875 514.453125 C 252.5 512.390625 247.542969 508.519531 247.382812 503.382812 C 247.371094 503.035156 247.335938 500.734375 248.347656 499.089844 C 247.746094 499.132812 247.203125 499.273438 246.761719 499.527344 C 244.480469 500.835938 244.542969 504.617188 244.554688 505.070312 C 244.746094 511.28125 251.953125 515.644531 256.53125 517.191406 C 257.339844 517.464844 258.003906 517.6875 258.5625 517.8125 C 257.964844 516.800781 257.371094 515.679688 256.796875 514.453125 " fill-opacity="1" fill-rule="nonzero"/><path fill="#ffffff" d="M 252.925781 497.648438 C 252.585938 497.609375 252.238281 497.585938 251.867188 497.574219 C 249.246094 497.484375 247.070312 499.023438 246.761719 499.527344 C 248.871094 498.675781 251.511719 499.425781 253.039062 500.5 C 252.964844 499.558594 252.925781 498.609375 252.925781 497.648438 " fill-opacity="1" fill-rule="nonzero"/><path fill="#290708" d="M 299.492188 496.757812 C 299.417969 500.230469 289.28125 502.839844 276.847656 502.585938 C 264.414062 502.332031 254.390625 499.3125 254.460938 495.839844 C 254.53125 492.371094 264.671875 489.765625 277.105469 490.015625 C 289.539062 490.269531 299.5625 493.289062 299.492188 496.757812 " fill-opacity="1" fill-rule="nonzero"/><path fill="#dc2947" d="M 256.507812 498.535156 C 260.085938 496.429688 267.972656 495.066406 277.105469 495.253906 C 286.140625 495.4375 293.90625 497.085938 297.441406 499.304688 C 298.738281 498.542969 299.472656 497.679688 299.492188 496.757812 C 299.5625 493.289062 289.539062 490.269531 277.105469 490.015625 C 264.671875 489.765625 254.53125 492.371094 254.460938 495.839844 C 254.445312 496.789062 255.179688 497.703125 256.507812 498.535156 " fill-opacity="1" fill-rule="nonzero"/><path fill="#ffffff" d="M 249.191406 499.527344 C 248.507812 499.527344 247.894531 499.652344 247.433594 499.917969 C 245.386719 501.089844 245.4375 504.65625 245.453125 505.058594 C 245.644531 511.261719 253.167969 515.429688 257.121094 516.769531 C 257.476562 516.890625 257.792969 516.996094 258.082031 517.085938 C 256.464844 514.148438 253.703125 508.171875 253.054688 500.726562 C 251.933594 499.960938 250.449219 499.527344 249.191406 499.527344 Z M 259.921875 518.472656 L 258.917969 518.25 C 258.339844 518.121094 257.691406 517.90625 256.832031 517.617188 C 252.679688 516.210938 244.761719 511.78125 244.554688 505.085938 C 244.53125 504.339844 244.542969 500.542969 246.988281 499.140625 C 248.675781 498.171875 251.707031 498.613281 253.75 500.117188 L 253.917969 500.238281 L 253.933594 500.441406 C 254.605469 508.726562 257.976562 515.191406 259.398438 517.582031 L 259.921875 518.472656 " fill-opacity="1" fill-rule="nonzero"/><path fill="#0d1114" d="M 495.851562 497.148438 L 387.222656 516.628906 C 385.066406 516.933594 385.488281 522.089844 386.980469 522.613281 L 464.601562 550.054688 C 467.476562 551.070312 470.585938 551.1875 473.523438 550.394531 L 578.972656 521.898438 C 580.511719 521.480469 580.691406 516.554688 579.136719 516.179688 L 502.019531 497.332031 C 500 496.84375 497.898438 496.78125 495.851562 497.148438 " fill-opacity="1" fill-rule="nonzero"/><path fill="#dc2947" d="M 495.851562 497.148438 L 387.222656 516.628906 C 385.664062 516.90625 385.488281 519.070312 386.980469 519.601562 L 464.601562 547.039062 C 467.476562 548.054688 470.585938 548.171875 473.523438 547.378906 L 578.972656 518.882812 C 580.511719 518.46875 580.484375 516.269531 578.929688 515.894531 L 502.019531 497.332031 C 500 496.84375 497.898438 496.78125 495.851562 497.148438 " fill-opacity="1" fill-rule="nonzero"/><path fill="#dc2947" d="M 615.152344 404.445312 L 497.984375 408.753906 C 494.992188 408.863281 492.460938 411.003906 491.855469 413.9375 L 463.910156 547.75 C 463.574219 549.394531 467.863281 552.050781 469.480469 551.613281 L 584.914062 520.3125 C 587.113281 519.71875 588.84375 518.015625 589.46875 515.828125 L 619.839844 409.496094 C 620.589844 407.609375 616.683594 404.390625 615.152344 404.445312 " fill-opacity="1" fill-rule="nonzero"/><path fill="#0d1114" d="M 617.605469 406.894531 L 500.433594 411.199219 C 497.441406 411.3125 494.910156 413.453125 494.308594 416.390625 L 467.113281 548.695312 C 466.777344 550.335938 468.289062 551.757812 469.90625 551.320312 L 584.914062 520.3125 C 587.113281 519.71875 588.84375 518.015625 589.46875 515.828125 L 619.847656 409.765625 C 620.269531 408.292969 619.132812 406.839844 617.605469 406.894531 " fill-opacity="1" fill-rule="nonzero"/><path fill="#d66730" d="M 411.082031 469.082031 C 409.984375 468.535156 409.273438 468.546875 403.441406 469.929688 C 401.484375 470.398438 401.171875 470.394531 400.464844 470.78125 C 397.527344 472.40625 396.71875 475.953125 396.644531 476.304688 C 395.703125 480.734375 398.46875 485.730469 402.589844 487.351562 C 403.355469 487.652344 404.992188 488.292969 406.835938 487.777344 C 411.910156 486.34375 412.660156 477.75 412.78125 476.304688 C 412.941406 474.5 413.386719 470.226562 411.082031 469.082031 " fill-opacity="1" fill-rule="nonzero"/><path fill="#0d1114" d="M 403.554688 496.828125 L 400.425781 495.582031 C 400.078125 495.445312 399.910156 495.050781 400.046875 494.703125 L 423.359375 436.144531 C 423.5 435.796875 423.890625 435.628906 424.242188 435.765625 L 427.367188 437.011719 C 427.714844 437.152344 427.882812 437.546875 427.746094 437.890625 L 404.433594 496.449219 C 404.296875 496.796875 403.898438 496.96875 403.554688 496.828125 " fill-opacity="1" fill-rule="nonzero"/><path fill="#0d1114" d="M 425.160156 439.367188 L 424.222656 438.996094 C 423.929688 438.878906 423.789062 438.550781 423.90625 438.257812 L 425.867188 433.328125 C 425.980469 433.039062 426.3125 432.894531 426.601562 433.011719 L 427.542969 433.386719 C 427.835938 433.503906 427.976562 433.835938 427.859375 434.125 L 425.902344 439.050781 C 425.785156 439.339844 425.453125 439.484375 425.160156 439.367188 " fill-opacity="1" fill-rule="nonzero"/><path fill="#0d1114" d="M 399.132812 503.382812 C 398.683594 503.203125 398.441406 502.710938 398.578125 502.246094 L 400.738281 494.960938 C 400.894531 494.433594 401.472656 494.148438 401.984375 494.355469 L 403.265625 494.863281 C 403.777344 495.066406 404.003906 495.671875 403.753906 496.164062 L 400.316406 502.9375 C 400.097656 503.371094 399.585938 503.566406 399.132812 503.382812 " fill-opacity="1" fill-rule="nonzero"/><path fill="#f79556" d="M 418.136719 464.015625 C 419.167969 463.050781 420.355469 462.226562 421.699219 461.789062 C 428.175781 459.683594 430.304688 463.863281 431.078125 464.378906 C 433.4375 465.949219 434.613281 465.949219 436.183594 467.523438 C 438.539062 469.878906 437.46875 472.203125 437.753906 474.195312 C 437.8125 474.597656 437.933594 474.890625 438.148438 475.375 C 438.835938 476.972656 442.074219 477.730469 439.71875 483.621094 C 438.996094 485.425781 439.910156 485.671875 439.71875 487.15625 C 439.484375 488.964844 436.972656 495.402344 433.4375 497.757812 C 430.917969 499.441406 430.851562 498.851562 419.304688 502.472656 C 419.304688 502.472656 416.164062 503.257812 411.058594 503.257812 C 410.65625 503.257812 409.941406 503.316406 409.492188 502.867188 C 408.3125 501.6875 410.128906 500.480469 409.558594 500.046875 C 409.164062 499.746094 405.121094 501.546875 403.996094 499.332031 C 402.78125 496.941406 406.253906 493.863281 406.703125 493.445312 C 407.203125 492.976562 403.773438 493.921875 403.140625 492.65625 C 401.960938 490.300781 404.324219 487.613281 405.566406 486.375 C 405.953125 485.976562 402.839844 487.113281 401.960938 484.476562 C 401.570312 483.296875 402.261719 480.8125 404.894531 477.695312 C 411.097656 470.363281 415.722656 466.269531 418.136719 464.015625 " fill-opacity="1" fill-rule="nonzero"/><path fill="#ec7d40" d="M 434.613281 476.554688 C 434.066406 477.84375 433.238281 479.011719 432.347656 480.097656 C 431.886719 480.636719 431.402344 481.148438 430.90625 481.65625 C 430.660156 481.90625 430.398438 482.144531 430.136719 482.382812 C 429.898438 482.617188 429.535156 482.867188 429.253906 483.070312 C 428.082031 483.886719 426.890625 484.578125 425.6875 485.285156 C 424.484375 485.980469 423.269531 486.648438 422.046875 487.300781 C 419.59375 488.597656 417.109375 489.824219 414.570312 490.941406 C 413.304688 491.511719 412.019531 492.046875 410.726562 492.554688 C 410.074219 492.796875 409.425781 493.046875 408.761719 493.265625 C 408.101562 493.484375 407.429688 493.703125 406.742188 493.832031 C 407.96875 493.175781 409.148438 492.460938 410.339844 491.753906 C 411.535156 491.058594 412.730469 490.355469 413.9375 489.683594 C 416.332031 488.3125 418.757812 486.992188 421.199219 485.703125 C 423.628906 484.40625 426.117188 483.160156 428.507812 481.882812 C 428.660156 481.800781 428.773438 481.722656 428.910156 481.640625 C 429.039062 481.570312 429.175781 481.480469 429.3125 481.371094 L 430.128906 480.765625 C 430.671875 480.355469 431.199219 479.925781 431.714844 479.480469 C 432.757812 478.59375 433.726562 477.632812 434.613281 476.554688 " fill-opacity="1" fill-rule="nonzero"/><path fill="#ec7d40" d="M 428.332031 469.484375 C 426.964844 471.394531 425.425781 473.171875 423.660156 474.761719 C 422.734375 475.554688 421.820312 476.242188 420.878906 476.941406 C 419.945312 477.636719 418.992188 478.304688 418.039062 478.96875 C 416.121094 480.285156 414.164062 481.539062 412.167969 482.730469 C 410.15625 483.90625 408.125 485.058594 405.953125 485.976562 C 407.714844 484.425781 409.523438 482.957031 411.371094 481.550781 C 413.21875 480.144531 415.101562 478.789062 417.015625 477.472656 C 417.972656 476.820312 418.933594 476.171875 419.898438 475.535156 L 422.777344 473.652344 C 424.648438 472.351562 426.425781 470.867188 428.332031 469.484375 " fill-opacity="1" fill-rule="nonzero"/><path fill="#ec7d40" d="M 434.613281 488.726562 C 434.058594 489.738281 433.339844 490.652344 432.539062 491.503906 C 431.71875 492.335938 430.828125 493.113281 429.753906 493.714844 C 429.199219 494.007812 428.6875 494.234375 428.15625 494.464844 C 427.628906 494.699219 427.101562 494.90625 426.570312 495.121094 C 425.511719 495.542969 424.445312 495.9375 423.375 496.320312 C 421.234375 497.082031 419.070312 497.769531 416.882812 498.390625 C 414.695312 499.003906 412.488281 499.554688 410.238281 499.988281 C 412.234375 498.835938 414.324219 497.933594 416.417969 497.046875 C 418.515625 496.171875 420.636719 495.367188 422.773438 494.613281 C 423.839844 494.238281 424.910156 493.871094 425.980469 493.511719 C 427.039062 493.152344 428.152344 492.800781 429.132812 492.441406 C 430.097656 492.039062 431.058594 491.46875 431.960938 490.832031 C 432.882812 490.207031 433.75 489.484375 434.613281 488.726562 " fill-opacity="1" fill-rule="nonzero"/><g fill="#000000" fill-opacity="1"><g transform="translate(316.121208, 55.526578)"><g><path d="M 11.5625 0.296875 C 9.613281 0.296875 7.894531 -0.101562 6.40625 -0.90625 C 4.925781 -1.71875 3.765625 -2.9375 2.921875 -4.5625 C 2.078125 -6.1875 1.65625 -8.191406 1.65625 -10.578125 C 1.65625 -12.953125 2.078125 -14.953125 2.921875 -16.578125 C 3.765625 -18.203125 4.925781 -19.421875 6.40625 -20.234375 C 7.894531 -21.046875 9.613281 -21.453125 11.5625 -21.453125 C 13.59375 -21.453125 15.316406 -21.050781 16.734375 -20.25 C 18.160156 -19.457031 19.175781 -18.25 19.78125 -16.625 L 16.734375 -14.75 L 16.375 -14.765625 C 15.914062 -15.867188 15.296875 -16.65625 14.515625 -17.125 C 13.742188 -17.601562 12.757812 -17.84375 11.5625 -17.84375 C 9.800781 -17.84375 8.425781 -17.257812 7.4375 -16.09375 C 6.457031 -14.9375 5.96875 -13.097656 5.96875 -10.578125 C 5.96875 -8.054688 6.457031 -6.210938 7.4375 -5.046875 C 8.425781 -3.890625 9.800781 -3.3125 11.5625 -3.3125 C 14.3125 -3.3125 15.992188 -4.644531 16.609375 -7.3125 L 16.96875 -7.3125 L 20.046875 -5.71875 C 19.472656 -3.707031 18.484375 -2.203125 17.078125 -1.203125 C 15.679688 -0.203125 13.84375 0.296875 11.5625 0.296875 Z M 11.5625 0.296875 "/></g></g><g transform="translate(336.866933, 55.526578)"><g><path d="M 6.21875 0.296875 C 5.195312 0.296875 4.3125 0.109375 3.5625 -0.265625 C 2.8125 -0.640625 2.234375 -1.191406 1.828125 -1.921875 C 1.421875 -2.648438 1.21875 -3.523438 1.21875 -4.546875 C 1.21875 -5.484375 1.421875 -6.273438 1.828125 -6.921875 C 2.234375 -7.566406 2.859375 -8.09375 3.703125 -8.5 C 4.546875 -8.90625 5.65625 -9.222656 7.03125 -9.453125 C 7.988281 -9.597656 8.710938 -9.765625 9.203125 -9.953125 C 9.703125 -10.140625 10.035156 -10.347656 10.203125 -10.578125 C 10.378906 -10.804688 10.46875 -11.097656 10.46875 -11.453125 C 10.46875 -11.960938 10.289062 -12.351562 9.9375 -12.625 C 9.582031 -12.894531 8.988281 -13.03125 8.15625 -13.03125 C 7.269531 -13.03125 6.425781 -12.832031 5.625 -12.4375 C 4.820312 -12.039062 4.128906 -11.519531 3.546875 -10.875 L 3.25 -10.875 L 1.578125 -13.40625 C 2.390625 -14.300781 3.378906 -15 4.546875 -15.5 C 5.710938 -16.007812 6.984375 -16.265625 8.359375 -16.265625 C 10.472656 -16.265625 12 -15.8125 12.9375 -14.90625 C 13.882812 -14.007812 14.359375 -12.738281 14.359375 -11.09375 L 14.359375 -4.171875 C 14.359375 -3.453125 14.671875 -3.09375 15.296875 -3.09375 C 15.546875 -3.09375 15.785156 -3.132812 16.015625 -3.21875 L 16.21875 -3.171875 L 16.5 -0.375 C 16.28125 -0.226562 15.972656 -0.109375 15.578125 -0.015625 C 15.179688 0.0664062 14.75 0.109375 14.28125 0.109375 C 13.320312 0.109375 12.570312 -0.0703125 12.03125 -0.4375 C 11.5 -0.800781 11.117188 -1.375 10.890625 -2.15625 L 10.59375 -2.1875 C 9.8125 -0.53125 8.351562 0.296875 6.21875 0.296875 Z M 7.5 -2.6875 C 8.414062 -2.6875 9.148438 -3 9.703125 -3.625 C 10.265625 -4.25 10.546875 -5.113281 10.546875 -6.21875 L 10.546875 -7.84375 L 10.265625 -7.890625 C 10.023438 -7.703125 9.707031 -7.539062 9.3125 -7.40625 C 8.925781 -7.28125 8.367188 -7.15625 7.640625 -7.03125 C 6.765625 -6.882812 6.132812 -6.632812 5.75 -6.28125 C 5.375 -5.925781 5.1875 -5.425781 5.1875 -4.78125 C 5.1875 -4.101562 5.390625 -3.582031 5.796875 -3.21875 C 6.203125 -2.863281 6.769531 -2.6875 7.5 -2.6875 Z M 7.5 -2.6875 "/></g></g><g transform="translate(353.692092, 55.526578)"><g><path d="M 6.625 0.296875 C 5.1875 0.296875 4.085938 -0.0859375 3.328125 -0.859375 C 2.578125 -1.640625 2.203125 -2.816406 2.203125 -4.390625 L 2.203125 -22.359375 L 6.203125 -22.359375 L 6.203125 -4.5625 C 6.203125 -3.582031 6.609375 -3.09375 7.421875 -3.09375 C 7.648438 -3.09375 7.894531 -3.132812 8.15625 -3.21875 L 8.359375 -3.15625 L 8.71875 -0.078125 C 8.5 0.0351562 8.207031 0.125 7.84375 0.1875 C 7.476562 0.257812 7.070312 0.296875 6.625 0.296875 Z M 6.625 0.296875 "/></g></g><g transform="translate(362.864191, 55.526578)"><g><path d="M 6.625 0.296875 C 5.1875 0.296875 4.085938 -0.0859375 3.328125 -0.859375 C 2.578125 -1.640625 2.203125 -2.816406 2.203125 -4.390625 L 2.203125 -22.359375 L 6.203125 -22.359375 L 6.203125 -4.5625 C 6.203125 -3.582031 6.609375 -3.09375 7.421875 -3.09375 C 7.648438 -3.09375 7.894531 -3.132812 8.15625 -3.21875 L 8.359375 -3.15625 L 8.71875 -0.078125 C 8.5 0.0351562 8.207031 0.125 7.84375 0.1875 C 7.476562 0.257812 7.070312 0.296875 6.625 0.296875 Z M 6.625 0.296875 "/></g></g><g transform="translate(372.03629, 55.526578)"><g/></g><g transform="translate(379.023866, 55.526578)"><g><path d="M 7.46875 0.296875 C 6.375 0.296875 5.375 0.171875 4.46875 -0.078125 C 3.5625 -0.335938 2.785156 -0.691406 2.140625 -1.140625 C 1.503906 -1.585938 1.03125 -2.097656 0.71875 -2.671875 L 2.953125 -5.078125 L 3.25 -5.078125 C 3.78125 -4.359375 4.40625 -3.820312 5.125 -3.46875 C 5.851562 -3.113281 6.644531 -2.9375 7.5 -2.9375 C 8.28125 -2.9375 8.863281 -3.078125 9.25 -3.359375 C 9.644531 -3.640625 9.84375 -4.039062 9.84375 -4.5625 C 9.84375 -4.96875 9.703125 -5.304688 9.421875 -5.578125 C 9.140625 -5.847656 8.679688 -6.0625 8.046875 -6.21875 L 5.9375 -6.71875 C 4.351562 -7.101562 3.195312 -7.679688 2.46875 -8.453125 C 1.738281 -9.234375 1.375 -10.21875 1.375 -11.40625 C 1.375 -12.40625 1.625 -13.269531 2.125 -14 C 2.632812 -14.738281 3.347656 -15.300781 4.265625 -15.6875 C 5.191406 -16.070312 6.269531 -16.265625 7.5 -16.265625 C 8.925781 -16.265625 10.113281 -16.054688 11.0625 -15.640625 C 12.007812 -15.222656 12.75 -14.664062 13.28125 -13.96875 L 11.140625 -11.65625 L 10.84375 -11.65625 C 10.40625 -12.15625 9.90625 -12.519531 9.34375 -12.75 C 8.789062 -12.988281 8.175781 -13.109375 7.5 -13.109375 C 5.914062 -13.109375 5.125 -12.613281 5.125 -11.625 C 5.125 -11.21875 5.269531 -10.882812 5.5625 -10.625 C 5.851562 -10.363281 6.367188 -10.148438 7.109375 -9.984375 L 9.078125 -9.546875 C 10.703125 -9.203125 11.882812 -8.644531 12.625 -7.875 C 13.375 -7.101562 13.75 -6.070312 13.75 -4.78125 C 13.75 -3.769531 13.5 -2.878906 13 -2.109375 C 12.5 -1.335938 11.773438 -0.742188 10.828125 -0.328125 C 9.890625 0.0859375 8.769531 0.296875 7.46875 0.296875 Z M 7.46875 0.296875 "/></g></g><g transform="translate(393.736839, 55.526578)"><g><path d="M 7.3125 0.296875 C 5.507812 0.296875 4.179688 -0.1875 3.328125 -1.15625 C 2.472656 -2.132812 2.046875 -3.539062 2.046875 -5.375 L 2.046875 -15.953125 L 6.0625 -15.953125 L 6.0625 -5.890625 C 6.0625 -4.910156 6.269531 -4.195312 6.6875 -3.75 C 7.101562 -3.300781 7.753906 -3.078125 8.640625 -3.078125 C 9.742188 -3.078125 10.601562 -3.441406 11.21875 -4.171875 C 11.84375 -4.898438 12.15625 -6.046875 12.15625 -7.609375 L 12.15625 -15.953125 L 16.15625 -15.953125 L 16.15625 0 L 12.3125 0 L 12.3125 -2.34375 L 12 -2.421875 C 11.488281 -1.503906 10.863281 -0.820312 10.125 -0.375 C 9.394531 0.0703125 8.457031 0.296875 7.3125 0.296875 Z M 7.3125 0.296875 "/></g></g><g transform="translate(412.196773, 55.526578)"><g><path d="M 2.296875 6.46875 L 2.296875 -15.953125 L 6.3125 -15.953125 L 6.3125 -13.875 L 6.609375 -13.8125 C 7.078125 -14.625 7.707031 -15.234375 8.5 -15.640625 C 9.289062 -16.054688 10.21875 -16.265625 11.28125 -16.265625 C 12.5625 -16.265625 13.679688 -15.957031 14.640625 -15.34375 C 15.597656 -14.738281 16.34375 -13.816406 16.875 -12.578125 C 17.414062 -11.335938 17.6875 -9.800781 17.6875 -7.96875 C 17.6875 -6.144531 17.40625 -4.613281 16.84375 -3.375 C 16.28125 -2.144531 15.492188 -1.222656 14.484375 -0.609375 C 13.484375 -0.00390625 12.328125 0.296875 11.015625 0.296875 C 10.023438 0.296875 9.164062 0.132812 8.4375 -0.1875 C 7.71875 -0.519531 7.109375 -1.039062 6.609375 -1.75 L 6.3125 -1.6875 L 6.3125 6.46875 Z M 9.90625 -3.09375 C 11.101562 -3.09375 12.007812 -3.484375 12.625 -4.265625 C 13.238281 -5.046875 13.546875 -6.28125 13.546875 -7.96875 C 13.546875 -9.65625 13.238281 -10.890625 12.625 -11.671875 C 12.007812 -12.460938 11.101562 -12.859375 9.90625 -12.859375 C 8.789062 -12.859375 7.90625 -12.453125 7.25 -11.640625 C 6.59375 -10.828125 6.265625 -9.601562 6.265625 -7.96875 C 6.265625 -6.34375 6.59375 -5.125 7.25 -4.3125 C 7.90625 -3.5 8.789062 -3.09375 9.90625 -3.09375 Z M 9.90625 -3.09375 "/></g></g><g transform="translate(431.307724, 55.526578)"><g><path d="M 2.296875 6.46875 L 2.296875 -15.953125 L 6.3125 -15.953125 L 6.3125 -13.875 L 6.609375 -13.8125 C 7.078125 -14.625 7.707031 -15.234375 8.5 -15.640625 C 9.289062 -16.054688 10.21875 -16.265625 11.28125 -16.265625 C 12.5625 -16.265625 13.679688 -15.957031 14.640625 -15.34375 C 15.597656 -14.738281 16.34375 -13.816406 16.875 -12.578125 C 17.414062 -11.335938 17.6875 -9.800781 17.6875 -7.96875 C 17.6875 -6.144531 17.40625 -4.613281 16.84375 -3.375 C 16.28125 -2.144531 15.492188 -1.222656 14.484375 -0.609375 C 13.484375 -0.00390625 12.328125 0.296875 11.015625 0.296875 C 10.023438 0.296875 9.164062 0.132812 8.4375 -0.1875 C 7.71875 -0.519531 7.109375 -1.039062 6.609375 -1.75 L 6.3125 -1.6875 L 6.3125 6.46875 Z M 9.90625 -3.09375 C 11.101562 -3.09375 12.007812 -3.484375 12.625 -4.265625 C 13.238281 -5.046875 13.546875 -6.28125 13.546875 -7.96875 C 13.546875 -9.65625 13.238281 -10.890625 12.625 -11.671875 C 12.007812 -12.460938 11.101562 -12.859375 9.90625 -12.859375 C 8.789062 -12.859375 7.90625 -12.453125 7.25 -11.640625 C 6.59375 -10.828125 6.265625 -9.601562 6.265625 -7.96875 C 6.265625 -6.34375 6.59375 -5.125 7.25 -4.3125 C 7.90625 -3.5 8.789062 -3.09375 9.90625 -3.09375 Z M 9.90625 -3.09375 "/></g></g><g transform="translate(450.418674, 55.526578)"><g><path d="M 9.265625 0.296875 C 7.703125 0.296875 6.332031 -0.0195312 5.15625 -0.65625 C 3.976562 -1.300781 3.0625 -2.242188 2.40625 -3.484375 C 1.757812 -4.722656 1.4375 -6.21875 1.4375 -7.96875 C 1.4375 -9.726562 1.757812 -11.226562 2.40625 -12.46875 C 3.0625 -13.707031 3.976562 -14.648438 5.15625 -15.296875 C 6.332031 -15.941406 7.703125 -16.265625 9.265625 -16.265625 C 10.828125 -16.265625 12.195312 -15.941406 13.375 -15.296875 C 14.5625 -14.648438 15.484375 -13.707031 16.140625 -12.46875 C 16.796875 -11.226562 17.125 -9.726562 17.125 -7.96875 C 17.125 -6.21875 16.796875 -4.722656 16.140625 -3.484375 C 15.484375 -2.242188 14.5625 -1.300781 13.375 -0.65625 C 12.195312 -0.0195312 10.828125 0.296875 9.265625 0.296875 Z M 9.265625 -3.09375 C 11.742188 -3.09375 12.984375 -4.71875 12.984375 -7.96875 C 12.984375 -9.65625 12.664062 -10.890625 12.03125 -11.671875 C 11.394531 -12.460938 10.472656 -12.859375 9.265625 -12.859375 C 6.796875 -12.859375 5.5625 -11.226562 5.5625 -7.96875 C 5.5625 -4.71875 6.796875 -3.09375 9.265625 -3.09375 Z M 9.265625 -3.09375 "/></g></g><g transform="translate(468.96541, 55.526578)"><g><path d="M 2.296875 0 L 2.296875 -15.953125 L 6.1875 -15.953125 L 6.1875 -13.578125 L 6.5 -13.53125 C 6.882812 -14.414062 7.390625 -15.0625 8.015625 -15.46875 C 8.640625 -15.882812 9.398438 -16.09375 10.296875 -16.09375 C 11.203125 -16.09375 11.894531 -15.941406 12.375 -15.640625 L 11.6875 -12.1875 L 11.390625 -12.125 C 11.128906 -12.226562 10.875 -12.300781 10.625 -12.34375 C 10.382812 -12.394531 10.09375 -12.421875 9.75 -12.421875 C 8.632812 -12.421875 7.78125 -12.023438 7.1875 -11.234375 C 6.601562 -10.453125 6.3125 -9.195312 6.3125 -7.46875 L 6.3125 0 Z M 2.296875 0 "/></g></g><g transform="translate(481.479394, 55.526578)"><g><path d="M 11.015625 -3.796875 L 12.046875 -0.84375 C 11.617188 -0.476562 11.078125 -0.195312 10.421875 0 C 9.765625 0.195312 9.019531 0.296875 8.1875 0.296875 C 6.457031 0.296875 5.144531 -0.171875 4.25 -1.109375 C 3.351562 -2.046875 2.90625 -3.410156 2.90625 -5.203125 L 2.90625 -12.78125 L 0.484375 -12.78125 L 0.484375 -15.96875 L 2.90625 -15.96875 L 2.90625 -19.078125 L 6.921875 -19.734375 L 6.921875 -15.96875 L 11.4375 -15.96875 L 11.4375 -12.78125 L 6.921875 -12.78125 L 6.921875 -5.5 C 6.921875 -4.707031 7.082031 -4.128906 7.40625 -3.765625 C 7.726562 -3.398438 8.207031 -3.21875 8.84375 -3.21875 C 9.550781 -3.21875 10.171875 -3.410156 10.703125 -3.796875 Z M 11.015625 -3.796875 "/></g></g></g></svg>