<svg xmlns="http://www.w3.org/2000/svg" xmlns:xlink="http://www.w3.org/1999/xlink" width="1080" zoomAndPan="magnify" viewBox="0 0 810 809.999993" height="1080" preserveAspectRatio="xMidYMid meet" version="1.0"><defs><filter x="0%" y="0%" width="100%" height="100%" id="0feeaa479e"><feColorMatrix values="0 0 0 0 1 0 0 0 0 1 0 0 0 0 1 0 0 0 1 0" color-interpolation-filters="sRGB"/></filter><g/><clipPath id="4c02eac0bf"><path d="M 51.832031 294.039062 L 236.332031 294.039062 L 236.332031 634.539062 L 51.832031 634.539062 Z M 51.832031 294.039062 " clip-rule="nonzero"/></clipPath><clipPath id="1199896f41"><path d="M 264.246094 365.453125 L 448.746094 365.453125 L 448.746094 705.953125 L 264.246094 705.953125 Z M 264.246094 365.453125 " clip-rule="nonzero"/></clipPath><clipPath id="23ce3e287c"><path d="M 55 565 L 302.617188 565 L 302.617188 602.0625 L 55 602.0625 Z M 55 565 " clip-rule="nonzero"/></clipPath><clipPath id="95547e7ef3"><path d="M 161 508 L 234 508 L 234 602.0625 L 161 602.0625 Z M 161 508 " clip-rule="nonzero"/></clipPath><clipPath id="33239f2521"><path d="M 84 485 L 241 485 L 241 602.0625 L 84 602.0625 Z M 84 485 " clip-rule="nonzero"/></clipPath><clipPath id="ffe0d008ec"><path d="M 179 572 L 200 572 L 200 602.0625 L 179 602.0625 Z M 179 572 " clip-rule="nonzero"/></clipPath><mask id="e6b7e1cf6e"><g filter="url(#0feeaa479e)"><rect x="-81" width="972" fill="#000000" y="-80.999999" height="971.999992" fill-opacity="0.23"/></g></mask><clipPath id="f0ad80791f"><path d="M 0.480469 1 L 15 1 L 15 18.441406 L 0.480469 18.441406 Z M 0.480469 1 " clip-rule="nonzero"/></clipPath><clipPath id="068f631c22"><rect x="0" width="16" y="0" height="19"/></clipPath><mask id="11637e5807"><g filter="url(#0feeaa479e)"><rect x="-81" width="972" fill="#000000" y="-80.999999" height="971.999992" fill-opacity="0.23"/></g></mask><clipPath id="c9d70b1aeb"><path d="M 0.398438 1 L 15 1 L 15 18.761719 L 0.398438 18.761719 Z M 0.398438 1 " clip-rule="nonzero"/></clipPath><clipPath id="8b69660f9b"><rect x="0" width="16" y="0" height="19"/></clipPath><clipPath id="d13eba16c6"><path d="M 251.316406 653 L 445 653 L 445 671.453125 L 251.316406 671.453125 Z M 251.316406 653 " clip-rule="nonzero"/></clipPath><clipPath id="3d0237c06a"><path d="M 268 599 L 394 599 L 394 671.453125 L 268 671.453125 Z M 268 599 " clip-rule="nonzero"/></clipPath><clipPath id="625444c7f1"><path d="M 333 473 L 345 473 L 345 477 L 333 477 Z M 333 473 " clip-rule="nonzero"/></clipPath><clipPath id="7e73197d03"><path d="M 333.519531 473.160156 L 344.84375 474.714844 C 344.84375 474.714844 343.957031 479.601562 338.738281 478.933594 C 333.519531 478.269531 333.519531 473.160156 333.519531 473.160156 Z M 333.519531 473.160156 " clip-rule="nonzero"/></clipPath><clipPath id="72b5adebfa"><path d="M 285 621 L 293 621 L 293 671.453125 L 285 671.453125 Z M 285 621 " clip-rule="nonzero"/></clipPath><clipPath id="e3a7199148"><path d="M 185.152344 3.734375 L 236.617188 3.734375 L 236.617188 55.199219 L 185.152344 55.199219 Z M 185.152344 3.734375 " clip-rule="nonzero"/></clipPath><clipPath id="9966ae5e36"><path d="M 210.886719 3.734375 C 196.675781 3.734375 185.152344 15.257812 185.152344 29.46875 C 185.152344 43.679688 196.675781 55.199219 210.886719 55.199219 C 225.097656 55.199219 236.617188 43.679688 236.617188 29.46875 C 236.617188 15.257812 225.097656 3.734375 210.886719 3.734375 Z M 210.886719 3.734375 " clip-rule="nonzero"/></clipPath><clipPath id="788ba8f6bc"><path d="M 202.601562 21.183594 L 236.617188 21.183594 L 236.617188 55.199219 L 202.601562 55.199219 Z M 202.601562 21.183594 " clip-rule="nonzero"/></clipPath><clipPath id="d55fc76fac"><path d="M 219.609375 21.183594 C 210.214844 21.183594 202.601562 28.796875 202.601562 38.191406 C 202.601562 47.585938 210.214844 55.199219 219.609375 55.199219 C 229.003906 55.199219 236.617188 47.585938 236.617188 38.191406 C 236.617188 28.796875 229.003906 21.183594 219.609375 21.183594 Z M 219.609375 21.183594 " clip-rule="nonzero"/></clipPath><clipPath id="8880ff0d57"><path d="M 194.917969 275.992188 L 296.917969 275.992188 L 296.917969 344.992188 L 194.917969 344.992188 Z M 194.917969 275.992188 " clip-rule="nonzero"/></clipPath><clipPath id="f6f55c8d7c"><path d="M 144.09375 209.957031 L 245.742188 209.957031 L 245.742188 278.957031 L 144.09375 278.957031 Z M 144.09375 209.957031 " clip-rule="nonzero"/></clipPath></defs><rect x="-81" width="972" fill="#ffffff" y="-80.999999" height="971.999992" fill-opacity="1"/><rect x="-81" width="972" fill="#ffffff" y="-80.999999" height="971.999992" fill-opacity="1"/><path fill="#cef2f2" d="M 578.894531 808.933594 C 577.195312 817.59375 574.75 826.039062 571.558594 834.269531 C 562.019531 859.007812 546.648438 880.824219 530.027344 899.117188 C 518.601562 911.488281 506.320312 922.953125 493.195312 933.507812 C 480.066406 944.058594 466.234375 953.589844 451.695312 962.09375 L 451.441406 962.261719 C 450.945312 962.632812 449.367188 963.753906 446.785156 965.484375 L 446.246094 965.839844 L 445.480469 966.351562 L 443.777344 967.472656 L 442.796875 968.109375 C 400.714844 995.460938 211.449219 1105.046875 -50.457031 1052.914062 C -67.589844 1049.539062 -84.453125 1045.125 -101.042969 1039.671875 C -215.867188 1001.761719 -277.308594 922.195312 -311.273438 834.285156 C -314.222656 826.628906 -316.976562 818.917969 -319.53125 811.148438 C -350.898438 715.898438 -353.425781 614.417969 -358.605469 547.242188 C -368.273438 422.128906 -174.179688 389.566406 -122.6875 383.152344 C -114.414062 382.136719 -106.242188 380.582031 -98.175781 378.484375 C -50.699219 366.09375 171.367188 327.386719 298.695312 401.007812 C 433.019531 478.574219 393.277344 575.398438 488.371094 651.859375 C 582.359375 707.722656 572.851562 721.546875 579.378906 758.789062 C 580.847656 767.089844 581.539062 775.457031 581.457031 783.882812 C 581.378906 792.3125 580.523438 800.664062 578.894531 808.933594 Z M 578.894531 808.933594 " fill-opacity="1" fill-rule="nonzero"/><g clip-path="url(#4c02eac0bf)"><path fill="#2f2a3e" d="M 220.921875 294.277344 C 221.28125 294.277344 221.640625 294.292969 221.996094 294.316406 C 222.667969 294.367188 223.335938 294.460938 223.992188 294.597656 C 224.835938 294.769531 225.664062 295.019531 226.46875 295.335938 C 227.328125 295.675781 228.15625 296.09375 228.941406 296.582031 C 229.746094 297.085938 230.503906 297.660156 231.199219 298.300781 C 231.984375 299.023438 232.695312 299.828125 233.3125 300.699219 C 233.890625 301.511719 234.390625 302.382812 234.796875 303.292969 C 235.207031 304.207031 235.527344 305.160156 235.746094 306.132812 C 235.902344 306.820312 236.011719 307.515625 236.070312 308.214844 C 236.105469 308.621094 236.125 309.027344 236.128906 309.433594 C 236.605469 412.695312 236.605469 515.96875 236.128906 619.234375 C 236.125 619.640625 236.105469 620.046875 236.070312 620.453125 C 236.011719 621.152344 235.902344 621.847656 235.75 622.535156 C 235.546875 623.417969 235.265625 624.285156 234.910156 625.121094 C 234.519531 626.039062 234.035156 626.917969 233.46875 627.746094 C 232.902344 628.574219 232.25 629.347656 231.53125 630.050781 C 230.808594 630.757812 230.019531 631.390625 229.175781 631.9375 C 228.4375 632.414062 227.664062 632.828125 226.855469 633.175781 C 226.023438 633.53125 225.15625 633.808594 224.269531 634.011719 C 223.585938 634.167969 222.890625 634.277344 222.1875 634.335938 C 221.785156 634.371094 221.378906 634.386719 220.972656 634.390625 C 169.820312 634.628906 118.667969 634.628906 67.515625 634.390625 C 67.109375 634.386719 66.703125 634.371094 66.300781 634.335938 C 65.597656 634.277344 64.902344 634.167969 64.21875 634.011719 C 63.332031 633.808594 62.464844 633.53125 61.632812 633.175781 C 60.65625 632.757812 59.726562 632.238281 58.855469 631.628906 C 58.03125 631.050781 57.265625 630.390625 56.570312 629.664062 C 55.898438 628.957031 55.292969 628.183594 54.765625 627.363281 C 54.273438 626.597656 53.851562 625.789062 53.503906 624.949219 C 53.171875 624.136719 52.90625 623.296875 52.71875 622.441406 C 52.5625 621.738281 52.457031 621.027344 52.402344 620.308594 C 52.378906 619.953125 52.363281 619.59375 52.359375 619.238281 C 51.832031 515.96875 51.832031 412.703125 52.359375 309.433594 C 52.363281 309.074219 52.378906 308.71875 52.402344 308.363281 C 52.457031 307.644531 52.5625 306.929688 52.71875 306.230469 C 52.917969 305.328125 53.199219 304.445312 53.558594 303.59375 C 53.929688 302.714844 54.386719 301.871094 54.914062 301.078125 C 55.457031 300.265625 56.078125 299.503906 56.761719 298.8125 C 57.449219 298.117188 58.203125 297.488281 59.007812 296.9375 C 59.808594 296.390625 60.660156 295.917969 61.546875 295.535156 C 62.4375 295.148438 63.363281 294.847656 64.308594 294.636719 C 64.996094 294.484375 65.695312 294.382812 66.394531 294.328125 C 66.765625 294.296875 67.140625 294.28125 67.515625 294.277344 C 118.652344 294.035156 169.789062 294.199219 220.921875 294.277344 Z M 148.992188 605.003906 L 139.460938 605.003906 C 135.710938 605.003906 132.671875 608.046875 132.671875 611.792969 L 132.671875 621.328125 C 132.671875 625.074219 135.710938 628.117188 139.460938 628.117188 L 148.992188 628.117188 C 152.742188 628.117188 155.78125 625.074219 155.78125 621.328125 L 155.78125 611.792969 C 155.78125 608.046875 152.742188 605.003906 148.992188 605.003906 Z M 147.207031 609.332031 C 149.550781 609.332031 151.453125 611.234375 151.453125 613.578125 L 151.453125 619.542969 C 151.453125 621.882812 149.550781 623.785156 147.207031 623.785156 L 141.246094 623.785156 C 138.902344 623.785156 137 621.882812 137 619.542969 L 137 613.578125 C 137 611.234375 138.902344 609.332031 141.246094 609.332031 Z M 230.761719 317.886719 L 57.761719 317.886719 C 57.617188 411.65625 57.304688 505.417969 57.683594 599.195312 L 230.777344 599.195312 C 230.957031 505.421875 231.171875 411.660156 230.773438 317.886719 Z M 174.5 303.363281 L 113.957031 303.363281 C 113.238281 303.363281 112.660156 303.945312 112.660156 304.660156 L 112.660156 307.253906 C 112.660156 307.96875 113.242188 308.550781 113.957031 308.550781 L 174.5 308.550781 C 175.214844 308.550781 175.796875 307.96875 175.796875 307.253906 L 175.796875 304.660156 C 175.796875 303.945312 175.214844 303.363281 174.5 303.363281 Z M 174.5 303.363281 " fill-opacity="1" fill-rule="evenodd"/></g><g clip-path="url(#1199896f41)"><path fill="#20bbbd" d="M 433.335938 365.691406 C 433.695312 365.691406 434.050781 365.707031 434.410156 365.730469 C 435.082031 365.78125 435.746094 365.875 436.40625 366.011719 C 437.25 366.1875 438.078125 366.433594 438.882812 366.75 C 439.742188 367.089844 440.570312 367.507812 441.355469 367.996094 C 442.160156 368.5 442.914062 369.074219 443.613281 369.714844 C 444.398438 370.4375 445.105469 371.242188 445.726562 372.113281 C 446.304688 372.925781 446.800781 373.796875 447.210938 374.707031 C 447.621094 375.621094 447.9375 376.574219 448.160156 377.546875 C 448.316406 378.234375 448.425781 378.929688 448.484375 379.628906 C 448.519531 380.035156 448.539062 380.441406 448.539062 380.847656 C 449.019531 484.113281 449.019531 587.382812 448.539062 690.648438 C 448.539062 691.054688 448.519531 691.460938 448.484375 691.867188 C 448.425781 692.566406 448.316406 693.265625 448.160156 693.949219 C 447.960938 694.832031 447.679688 695.699219 447.324219 696.535156 C 446.929688 697.453125 446.449219 698.332031 445.882812 699.160156 C 445.316406 699.988281 444.664062 700.761719 443.945312 701.464844 C 443.222656 702.171875 442.433594 702.804688 441.589844 703.351562 C 440.851562 703.828125 440.074219 704.242188 439.269531 704.589844 C 438.433594 704.945312 437.566406 705.222656 436.683594 705.425781 C 436 705.582031 435.300781 705.691406 434.601562 705.75 C 434.195312 705.785156 433.792969 705.804688 433.386719 705.804688 C 382.234375 706.042969 331.082031 706.042969 279.929688 705.804688 C 279.523438 705.804688 279.117188 705.785156 278.710938 705.75 C 278.011719 705.691406 277.316406 705.582031 276.628906 705.425781 C 275.746094 705.226562 274.878906 704.945312 274.046875 704.589844 C 273.070312 704.171875 272.136719 703.652344 271.269531 703.042969 C 270.445312 702.464844 269.679688 701.804688 268.984375 701.078125 C 268.3125 700.371094 267.703125 699.597656 267.175781 698.777344 C 266.6875 698.011719 266.265625 697.203125 265.917969 696.363281 C 265.585938 695.550781 265.320312 694.710938 265.132812 693.855469 C 264.976562 693.152344 264.871094 692.441406 264.816406 691.722656 C 264.789062 691.367188 264.777344 691.007812 264.773438 690.652344 C 264.246094 587.386719 264.246094 484.117188 264.773438 380.847656 C 264.777344 380.492188 264.789062 380.132812 264.816406 379.777344 C 264.871094 379.058594 264.976562 378.34375 265.132812 377.644531 C 265.332031 376.742188 265.613281 375.859375 265.972656 375.007812 C 266.34375 374.128906 266.800781 373.285156 267.328125 372.492188 C 267.871094 371.679688 268.488281 370.921875 269.175781 370.226562 C 269.863281 369.53125 270.613281 368.902344 271.421875 368.351562 C 272.21875 367.804688 273.070312 367.332031 273.960938 366.949219 C 274.847656 366.5625 275.777344 366.261719 276.722656 366.050781 C 277.410156 365.902344 278.105469 365.796875 278.808594 365.742188 C 279.179688 365.710938 279.554688 365.695312 279.929688 365.691406 C 331.0625 365.449219 382.199219 365.613281 433.335938 365.691406 Z M 361.40625 676.417969 L 351.871094 676.417969 C 348.125 676.417969 345.082031 679.460938 345.082031 683.207031 L 345.082031 692.742188 C 345.082031 696.488281 348.125 699.53125 351.871094 699.53125 L 361.40625 699.53125 C 365.152344 699.53125 368.195312 696.488281 368.195312 692.742188 L 368.195312 683.207031 C 368.195312 679.460938 365.152344 676.417969 361.40625 676.417969 Z M 359.621094 680.746094 C 361.964844 680.75 363.867188 682.652344 363.867188 684.992188 L 363.867188 690.957031 C 363.867188 693.296875 361.964844 695.199219 359.621094 695.199219 L 353.660156 695.199219 C 351.316406 695.199219 349.414062 693.296875 349.414062 690.957031 L 349.414062 684.992188 C 349.414062 682.652344 351.316406 680.75 353.660156 680.746094 Z M 443.175781 389.300781 L 270.171875 389.300781 C 270.03125 483.070312 269.71875 576.832031 270.09375 670.609375 L 443.1875 670.609375 C 443.371094 576.835938 443.585938 483.074219 443.1875 389.300781 Z M 386.910156 374.777344 L 326.367188 374.777344 C 325.652344 374.777344 325.070312 375.359375 325.070312 376.074219 L 325.070312 378.667969 C 325.070312 379.382812 325.652344 379.964844 326.367188 379.964844 L 386.910156 379.964844 C 387.628906 379.964844 388.207031 379.382812 388.207031 378.667969 L 388.207031 376.074219 C 388.207031 375.359375 387.628906 374.777344 386.910156 374.777344 Z M 386.910156 374.777344 " fill-opacity="1" fill-rule="evenodd"/></g><g clip-path="url(#23ce3e287c)"><path fill="#2f2a3e" d="M 344.070312 566.816406 L 325.085938 688.511719 L 312.648438 688.511719 L 328.414062 565.039062 Z M 412.136719 565.039062 L 426.683594 688.511719 L 441.117188 688.511719 L 429.570312 565.039062 Z M 458.664062 566.816406 L 477.648438 688.511719 L 490.085938 688.511719 L 474.320312 565.039062 Z M 116.113281 565.039062 L 104.5625 688.511719 L 119 688.511719 L 133.542969 565.039062 Z M 71.363281 565.039062 L 55.707031 688.511719 L 68.144531 688.511719 L 87.132812 566.816406 Z M 71.363281 565.039062 " fill-opacity="1" fill-rule="nonzero"/></g><path fill="#ffffff" d="M 78.136719 400.148438 L 59.59375 400.148438 C 47.269531 400.148438 38.164062 411.472656 40.605469 423.464844 L 66.035156 544.941406 L 66.035156 555.265625 C 66.035156 561.597656 71.140625 566.703125 77.46875 566.703125 L 179.957031 566.703125 L 179.957031 522.953125 L 109.117188 517.515625 Z M 78.136719 400.148438 " fill-opacity="1" fill-rule="nonzero"/><g clip-path="url(#95547e7ef3)"><path fill="#20bbbd" d="M 200.722656 508.964844 L 219.375 517.515625 C 231.8125 523.175781 237.253906 537.390625 231.367188 549.269531 L 188.398438 636.992188 L 161.527344 628.105469 Z M 200.722656 508.964844 " fill-opacity="1" fill-rule="nonzero"/></g><g clip-path="url(#33239f2521)"><path fill="#20bbbd" d="M 84.132812 485.089844 L 84.132812 517.515625 C 84.132812 532.28125 96.347656 544.050781 111.113281 543.496094 L 166.078125 541.496094 L 213.378906 648.09375 L 240.472656 634.101562 L 212.9375 525.0625 C 209.605469 511.183594 198.167969 500.746094 184.066406 498.859375 Z M 84.132812 485.089844 " fill-opacity="1" fill-rule="nonzero"/></g><g clip-path="url(#ffe0d008ec)"><path fill="#2f2a3e" d="M 198.835938 616.003906 C 198.722656 616.003906 198.5 615.894531 198.5 615.78125 L 179.625 573.253906 C 179.515625 573.03125 179.625 572.8125 179.847656 572.699219 C 180.070312 572.589844 180.292969 572.699219 180.402344 572.921875 L 199.277344 615.449219 C 199.390625 615.671875 199.277344 615.894531 199.058594 616.003906 C 198.945312 616.003906 198.945312 616.003906 198.835938 616.003906 Z M 198.835938 616.003906 " fill-opacity="1" fill-rule="nonzero"/></g><path fill="#2f2a3e" d="M 222.707031 567.148438 C 222.484375 567.148438 222.375 567.035156 222.261719 566.816406 L 205.828125 511.628906 C 205.71875 511.40625 205.941406 511.183594 206.050781 511.074219 C 206.273438 510.960938 206.496094 511.183594 206.605469 511.296875 L 223.039062 566.480469 C 223.152344 566.703125 222.929688 566.925781 222.820312 567.035156 C 222.820312 567.148438 222.820312 567.148438 222.707031 567.148438 Z M 222.707031 567.148438 " fill-opacity="1" fill-rule="nonzero"/><path fill="#ffffff" d="M 201.054688 512.183594 L 249.800781 490.199219 L 165.414062 478.871094 L 121.441406 499.96875 Z M 201.054688 512.183594 " fill-opacity="1" fill-rule="nonzero"/><path fill="#2f2a3e" d="M 201.054688 513.628906 C 200.945312 513.628906 200.945312 513.628906 200.832031 513.628906 L 121.21875 501.414062 C 120.554688 501.300781 120.109375 500.859375 119.996094 500.191406 C 119.886719 499.527344 120.21875 498.96875 120.773438 498.636719 L 164.746094 477.539062 C 164.96875 477.429688 165.300781 477.316406 165.632812 477.429688 L 250.023438 488.753906 C 250.6875 488.867188 251.246094 489.308594 251.246094 489.976562 C 251.355469 490.644531 251.023438 491.308594 250.355469 491.53125 L 201.609375 513.515625 C 201.5 513.628906 201.277344 513.628906 201.054688 513.628906 Z M 126.4375 499.304688 L 200.945312 510.742188 L 244.582031 491.085938 L 165.746094 480.539062 Z M 126.4375 499.304688 " fill-opacity="1" fill-rule="nonzero"/><path fill="#f4ad86" d="M 201.167969 480.316406 C 201.386719 481.539062 200.609375 482.757812 199.390625 482.980469 L 196.945312 483.3125 C 199.390625 482.980469 200.054688 484.089844 200.167969 484.980469 C 200.390625 486.203125 199.613281 487.3125 198.5 487.535156 L 187.066406 491.53125 C 186.730469 491.640625 186.398438 491.753906 186.066406 491.863281 C 184.511719 494.640625 180.511719 497.527344 170.519531 496.417969 L 119.886719 487.644531 L 116.222656 461.660156 L 171.296875 482.980469 L 175.851562 465.992188 C 176.183594 464.769531 177.40625 463.992188 178.625 464.105469 C 179.847656 464.214844 180.957031 465.105469 181.179688 466.324219 L 181.957031 469.769531 L 197.613281 467.65625 C 198.835938 467.4375 200.167969 468.214844 200.609375 469.433594 C 201.167969 470.878906 200.277344 472.320312 198.945312 472.765625 L 196.167969 473.875 L 198.945312 473.433594 C 200.167969 473.320312 201.386719 473.988281 201.722656 475.207031 C 202.164062 476.542969 201.277344 477.984375 199.945312 478.207031 L 198.167969 478.652344 C 199.613281 478.429688 200.945312 479.09375 201.167969 480.316406 Z M 201.167969 480.316406 " fill-opacity="1" fill-rule="nonzero"/><path fill="#2f2a3e" d="M 187.730469 475.320312 C 187.621094 475.320312 187.507812 475.207031 187.507812 475.097656 C 187.507812 474.988281 187.621094 474.765625 187.730469 474.765625 L 196.835938 473.210938 C 196.945312 473.210938 197.167969 473.320312 197.167969 473.433594 C 197.167969 473.542969 197.058594 473.765625 196.945312 473.765625 L 187.730469 475.320312 C 187.84375 475.320312 187.84375 475.320312 187.730469 475.320312 Z M 187.730469 475.320312 " fill-opacity="1" fill-rule="nonzero"/><path fill="#2f2a3e" d="M 189.285156 480.648438 C 189.175781 480.648438 189.0625 480.539062 189.0625 480.425781 C 189.0625 480.316406 189.175781 480.09375 189.285156 480.09375 L 197.722656 478.207031 C 197.835938 478.207031 198.058594 478.316406 198.058594 478.429688 C 198.058594 478.539062 197.945312 478.761719 197.835938 478.761719 Z M 189.285156 480.648438 " fill-opacity="1" fill-rule="nonzero"/><path fill="#2f2a3e" d="M 190.617188 485.089844 C 190.507812 485.089844 190.394531 484.980469 190.394531 484.867188 C 190.394531 484.757812 190.507812 484.535156 190.617188 484.535156 L 197.722656 482.871094 C 197.835938 482.871094 198.058594 482.980469 198.058594 483.09375 C 198.058594 483.203125 197.945312 483.425781 197.835938 483.425781 Z M 190.617188 485.089844 " fill-opacity="1" fill-rule="nonzero"/><path fill="#f4ad86" d="M 190.617188 427.796875 L 259.351562 395.59375 L 265.679688 404.144531 C 265.679688 404.144531 227.703125 431.125 201.386719 447.558594 C 197.167969 450.226562 189.285156 444.894531 187.066406 440.453125 C 184.953125 436.457031 186.621094 430.015625 190.617188 427.796875 Z M 190.617188 427.796875 " fill-opacity="1" fill-rule="nonzero"/><path fill="#f4ad86" d="M 256.351562 399.703125 C 256.351562 399.703125 258.792969 390.820312 267.898438 387.15625 L 273.453125 379.273438 C 274.339844 378.050781 275.894531 377.71875 277.226562 378.382812 C 278.671875 379.160156 279.226562 380.9375 278.558594 382.382812 L 276.117188 387.601562 L 277.78125 386.488281 C 280.445312 384.714844 282.445312 382.160156 283.445312 379.050781 L 286.332031 370.277344 C 286.664062 369.277344 287.441406 368.5 288.441406 368.390625 C 290.441406 368.058594 292.105469 369.832031 291.660156 371.832031 L 289.332031 383.824219 C 288.441406 388.488281 285.664062 392.484375 281.667969 394.816406 L 260.238281 407.363281 Z M 256.351562 399.703125 " fill-opacity="1" fill-rule="nonzero"/><path fill="#f6dec8" d="M 110.78125 355.398438 L 87.574219 360.617188 C 76.25 363.171875 68.03125 372.941406 67.476562 384.492188 L 66.144531 411.695312 C 65.480469 424.796875 67.476562 438.011719 71.808594 450.335938 L 84.132812 486.757812 L 159.972656 495.417969 L 162.96875 476.984375 L 165.746094 417.914062 L 184.511719 441.675781 C 190.0625 448.671875 199.945312 450.226562 207.382812 445.339844 L 251.910156 416.027344 L 242.582031 401.703125 L 200.945312 420.355469 L 173.40625 374.609375 C 168.964844 367.28125 161.636719 362.285156 153.199219 360.839844 L 130.546875 357.066406 Z M 110.78125 355.398438 " fill-opacity="1" fill-rule="nonzero"/><path fill="#2f2a3e" d="M 162.96875 477.429688 C 162.96875 477.429688 162.859375 477.429688 162.859375 477.429688 L 115 462.660156 C 110.78125 461.328125 107.5625 458.109375 106.339844 453.890625 L 97.011719 422.023438 C 96.902344 421.800781 97.125 421.578125 97.347656 421.464844 C 97.570312 421.355469 97.789062 421.578125 97.902344 421.800781 L 107.230469 453.667969 C 108.339844 457.554688 111.335938 460.664062 115.335938 461.882812 L 163.191406 476.652344 C 163.414062 476.761719 163.523438 476.984375 163.414062 477.207031 C 163.300781 477.316406 163.191406 477.429688 162.96875 477.429688 Z M 162.96875 477.429688 " fill-opacity="1" fill-rule="nonzero"/><path fill="#f4ad86" d="M 106.339844 311.761719 C 106.339844 311.761719 102.453125 308.207031 99.121094 311.761719 C 94.015625 317.203125 101.121094 328.304688 108.5625 323.53125 Z M 106.339844 311.761719 " fill-opacity="1" fill-rule="nonzero"/><path fill="#2f2a3e" d="M 106.5625 320.753906 C 106.453125 320.753906 106.230469 320.644531 106.230469 320.535156 C 104.453125 316.203125 101.011719 315.980469 100.789062 315.980469 C 100.566406 315.980469 100.34375 315.757812 100.457031 315.535156 C 100.566406 315.316406 100.675781 315.09375 100.898438 315.203125 C 101.121094 315.203125 105.007812 315.535156 107.007812 320.3125 C 107.117188 320.535156 107.007812 320.753906 106.785156 320.867188 C 106.671875 320.644531 106.671875 320.753906 106.5625 320.753906 Z M 106.5625 320.753906 " fill-opacity="1" fill-rule="nonzero"/><path fill="#f4ad86" d="M 146.867188 315.535156 C 146.867188 315.535156 151.199219 312.761719 153.863281 316.757812 C 157.863281 322.863281 149.089844 332.414062 142.761719 326.53125 Z M 146.867188 315.535156 " fill-opacity="1" fill-rule="nonzero"/><path fill="#2f2a3e" d="M 145.316406 323.976562 C 145.203125 323.976562 145.203125 323.976562 145.09375 323.863281 C 144.871094 323.753906 144.871094 323.53125 144.980469 323.308594 C 147.757812 318.980469 151.421875 319.3125 151.53125 319.3125 C 151.753906 319.3125 151.867188 319.535156 151.867188 319.757812 C 151.867188 319.976562 151.644531 320.199219 151.421875 320.089844 C 151.3125 320.089844 148.089844 319.757812 145.648438 323.753906 C 145.535156 323.976562 145.425781 323.976562 145.316406 323.976562 Z M 145.316406 323.976562 " fill-opacity="1" fill-rule="nonzero"/><path fill="#f4ad86" d="M 152.753906 303.433594 C 152.753906 304.25 152.714844 305.0625 152.632812 305.871094 C 152.554688 306.683594 152.433594 307.488281 152.277344 308.285156 C 152.117188 309.085938 151.917969 309.875 151.683594 310.652344 C 151.445312 311.433594 151.171875 312.199219 150.859375 312.953125 C 150.550781 313.703125 150.199219 314.441406 149.816406 315.160156 C 149.433594 315.875 149.015625 316.574219 148.5625 317.25 C 148.109375 317.929688 147.625 318.582031 147.109375 319.210938 C 146.589844 319.84375 146.046875 320.445312 145.46875 321.019531 C 144.894531 321.597656 144.289062 322.144531 143.660156 322.660156 C 143.03125 323.175781 142.378906 323.660156 141.699219 324.113281 C 141.023438 324.566406 140.324219 324.984375 139.605469 325.367188 C 138.886719 325.753906 138.152344 326.101562 137.398438 326.414062 C 136.648438 326.722656 135.882812 327 135.101562 327.234375 C 134.320312 327.472656 133.53125 327.667969 132.734375 327.828125 C 131.933594 327.988281 131.128906 328.105469 130.320312 328.1875 C 129.507812 328.265625 128.695312 328.304688 127.882812 328.304688 C 127.066406 328.304688 126.253906 328.265625 125.445312 328.1875 C 124.632812 328.105469 123.828125 327.988281 123.03125 327.828125 C 122.230469 327.667969 121.441406 327.472656 120.660156 327.234375 C 119.882812 327 119.117188 326.722656 118.363281 326.414062 C 117.609375 326.101562 116.875 325.753906 116.15625 325.367188 C 115.4375 324.984375 114.742188 324.566406 114.0625 324.113281 C 113.386719 323.660156 112.734375 323.175781 112.101562 322.660156 C 111.472656 322.144531 110.871094 321.597656 110.292969 321.019531 C 109.71875 320.445312 109.171875 319.84375 108.65625 319.210938 C 108.136719 318.582031 107.652344 317.929688 107.199219 317.25 C 106.75 316.574219 106.332031 315.875 105.945312 315.160156 C 105.5625 314.441406 105.214844 313.703125 104.902344 312.953125 C 104.589844 312.199219 104.316406 311.433594 104.082031 310.652344 C 103.84375 309.875 103.644531 309.085938 103.488281 308.285156 C 103.328125 307.488281 103.207031 306.683594 103.128906 305.871094 C 103.050781 305.0625 103.007812 304.25 103.007812 303.433594 C 103.007812 302.617188 103.050781 301.804688 103.128906 300.996094 C 103.207031 300.183594 103.328125 299.378906 103.488281 298.582031 C 103.644531 297.78125 103.84375 296.992188 104.082031 296.214844 C 104.316406 295.433594 104.589844 294.667969 104.902344 293.914062 C 105.214844 293.164062 105.5625 292.425781 105.945312 291.707031 C 106.332031 290.992188 106.75 290.292969 107.199219 289.613281 C 107.652344 288.9375 108.136719 288.285156 108.65625 287.65625 C 109.171875 287.023438 109.71875 286.421875 110.292969 285.847656 C 110.871094 285.269531 111.472656 284.722656 112.101562 284.207031 C 112.734375 283.691406 113.386719 283.207031 114.0625 282.753906 C 114.742188 282.300781 115.4375 281.882812 116.15625 281.496094 C 116.875 281.113281 117.609375 280.765625 118.363281 280.453125 C 119.117188 280.144531 119.882812 279.867188 120.660156 279.632812 C 121.441406 279.394531 122.230469 279.199219 123.03125 279.039062 C 123.828125 278.878906 124.632812 278.761719 125.445312 278.679688 C 126.253906 278.601562 127.066406 278.5625 127.882812 278.5625 C 128.695312 278.5625 129.507812 278.601562 130.320312 278.679688 C 131.128906 278.761719 131.933594 278.878906 132.734375 279.039062 C 133.53125 279.199219 134.320312 279.394531 135.101562 279.632812 C 135.882812 279.867188 136.648438 280.144531 137.398438 280.453125 C 138.152344 280.765625 138.886719 281.113281 139.605469 281.496094 C 140.324219 281.882812 141.023438 282.300781 141.699219 282.753906 C 142.378906 283.207031 143.03125 283.691406 143.660156 284.207031 C 144.289062 284.722656 144.894531 285.269531 145.46875 285.847656 C 146.046875 286.421875 146.589844 287.023438 147.109375 287.65625 C 147.625 288.285156 148.109375 288.9375 148.5625 289.613281 C 149.015625 290.292969 149.433594 290.992188 149.816406 291.707031 C 150.203125 292.425781 150.550781 293.164062 150.859375 293.914062 C 151.171875 294.667969 151.445312 295.433594 151.683594 296.214844 C 151.917969 296.992188 152.117188 297.78125 152.277344 298.582031 C 152.433594 299.378906 152.554688 300.183594 152.632812 300.996094 C 152.714844 301.804688 152.753906 302.617188 152.753906 303.433594 Z M 152.753906 303.433594 " fill-opacity="1" fill-rule="nonzero"/><path fill="#2f2a3e" d="M 152.753906 303.433594 C 152.753906 304.25 152.714844 305.0625 152.632812 305.871094 C 152.554688 306.683594 152.433594 307.488281 152.277344 308.285156 C 152.117188 309.085938 151.917969 309.875 151.683594 310.652344 C 151.445312 311.433594 151.171875 312.199219 150.859375 312.953125 C 150.550781 313.703125 150.199219 314.441406 149.816406 315.160156 C 149.433594 315.875 149.015625 316.574219 148.5625 317.25 C 148.109375 317.929688 147.625 318.582031 147.109375 319.210938 C 146.589844 319.84375 146.046875 320.445312 145.46875 321.019531 C 144.894531 321.597656 144.289062 322.144531 143.660156 322.660156 C 143.03125 323.175781 142.378906 323.660156 141.699219 324.113281 C 141.023438 324.566406 140.324219 324.984375 139.605469 325.367188 C 138.886719 325.753906 138.152344 326.101562 137.398438 326.414062 C 136.648438 326.722656 135.882812 327 135.101562 327.234375 C 134.320312 327.472656 133.53125 327.667969 132.734375 327.828125 C 131.933594 327.988281 131.128906 328.105469 130.320312 328.1875 C 129.507812 328.265625 128.695312 328.304688 127.882812 328.304688 C 127.066406 328.304688 126.253906 328.265625 125.445312 328.1875 C 124.632812 328.105469 123.828125 327.988281 123.03125 327.828125 C 122.230469 327.667969 121.441406 327.472656 120.660156 327.234375 C 119.882812 327 119.117188 326.722656 118.363281 326.414062 C 117.609375 326.101562 116.875 325.753906 116.15625 325.367188 C 115.4375 324.984375 114.742188 324.566406 114.0625 324.113281 C 113.386719 323.660156 112.734375 323.175781 112.101562 322.660156 C 111.472656 322.144531 110.871094 321.597656 110.292969 321.019531 C 109.71875 320.445312 109.171875 319.84375 108.65625 319.210938 C 108.136719 318.582031 107.652344 317.929688 107.199219 317.25 C 106.75 316.574219 106.332031 315.875 105.945312 315.160156 C 105.5625 314.441406 105.214844 313.703125 104.902344 312.953125 C 104.589844 312.199219 104.316406 311.433594 104.082031 310.652344 C 103.84375 309.875 103.644531 309.085938 103.488281 308.285156 C 103.328125 307.488281 103.207031 306.683594 103.128906 305.871094 C 103.050781 305.0625 103.007812 304.25 103.007812 303.433594 C 103.007812 302.617188 103.050781 301.804688 103.128906 300.996094 C 103.207031 300.183594 103.328125 299.378906 103.488281 298.582031 C 103.644531 297.78125 103.84375 296.992188 104.082031 296.214844 C 104.316406 295.433594 104.589844 294.667969 104.902344 293.914062 C 105.214844 293.164062 105.5625 292.425781 105.945312 291.707031 C 106.332031 290.992188 106.75 290.292969 107.199219 289.613281 C 107.652344 288.9375 108.136719 288.285156 108.65625 287.65625 C 109.171875 287.023438 109.71875 286.421875 110.292969 285.847656 C 110.871094 285.269531 111.472656 284.722656 112.101562 284.207031 C 112.734375 283.691406 113.386719 283.207031 114.0625 282.753906 C 114.742188 282.300781 115.4375 281.882812 116.15625 281.496094 C 116.875 281.113281 117.609375 280.765625 118.363281 280.453125 C 119.117188 280.144531 119.882812 279.867188 120.660156 279.632812 C 121.441406 279.394531 122.230469 279.199219 123.03125 279.039062 C 123.828125 278.878906 124.632812 278.761719 125.445312 278.679688 C 126.253906 278.601562 127.066406 278.5625 127.882812 278.5625 C 128.695312 278.5625 129.507812 278.601562 130.320312 278.679688 C 131.128906 278.761719 131.933594 278.878906 132.734375 279.039062 C 133.53125 279.199219 134.320312 279.394531 135.101562 279.632812 C 135.882812 279.867188 136.648438 280.144531 137.398438 280.453125 C 138.152344 280.765625 138.886719 281.113281 139.605469 281.496094 C 140.324219 281.882812 141.023438 282.300781 141.699219 282.753906 C 142.378906 283.207031 143.03125 283.691406 143.660156 284.207031 C 144.289062 284.722656 144.894531 285.269531 145.46875 285.847656 C 146.046875 286.421875 146.589844 287.023438 147.109375 287.65625 C 147.625 288.285156 148.109375 288.9375 148.5625 289.613281 C 149.015625 290.292969 149.433594 290.992188 149.816406 291.707031 C 150.203125 292.425781 150.550781 293.164062 150.859375 293.914062 C 151.171875 294.667969 151.445312 295.433594 151.683594 296.214844 C 151.917969 296.992188 152.117188 297.78125 152.277344 298.582031 C 152.433594 299.378906 152.554688 300.183594 152.632812 300.996094 C 152.714844 301.804688 152.753906 302.617188 152.753906 303.433594 Z M 152.753906 303.433594 " fill-opacity="1" fill-rule="nonzero"/><path fill="#f4ad86" d="M 114.667969 331.414062 L 111.226562 355.398438 L 122.441406 364.613281 L 130.992188 357.175781 L 130.878906 332.191406 Z M 114.667969 331.414062 " fill-opacity="1" fill-rule="nonzero"/><path fill="#2f2a3e" d="M 114.222656 334.746094 C 114.777344 335.078125 130.992188 347.625 130.992188 347.625 L 130.992188 334.96875 Z M 114.222656 334.746094 " fill-opacity="1" fill-rule="nonzero"/><path fill="#f4ad86" d="M 107.894531 300.769531 C 107.894531 300.769531 101.675781 336.855469 124.21875 339.296875 C 148.421875 341.851562 148.535156 304.320312 148.535156 304.320312 C 148.535156 304.320312 149.976562 285.222656 129.660156 283.445312 C 111.003906 281.890625 107.894531 300.769531 107.894531 300.769531 Z M 107.894531 300.769531 " fill-opacity="1" fill-rule="nonzero"/><path fill="#2f2a3e" d="M 108.449219 289.777344 C 108.449219 289.777344 125.550781 286.554688 147.089844 293.105469 C 147.089844 293.105469 145.980469 282.003906 128.660156 280.558594 C 111.449219 279.003906 108.449219 289.777344 108.449219 289.777344 Z M 108.449219 289.777344 " fill-opacity="1" fill-rule="nonzero"/><path fill="#2f2a3e" d="M 126.105469 311.648438 C 125.992188 312.648438 125.105469 313.203125 124.105469 313.09375 C 123.105469 312.984375 122.550781 312.09375 122.664062 311.09375 C 122.773438 310.097656 123.664062 309.539062 124.660156 309.652344 C 125.660156 309.761719 126.328125 310.652344 126.105469 311.648438 Z M 126.105469 311.648438 " fill-opacity="1" fill-rule="nonzero"/><path fill="#2f2a3e" d="M 143.539062 314.757812 C 143.425781 315.757812 142.539062 316.3125 141.539062 316.203125 C 140.539062 316.09375 139.984375 315.203125 140.097656 314.203125 C 140.207031 313.203125 141.09375 312.648438 142.09375 312.761719 C 143.09375 312.984375 143.761719 313.871094 143.539062 314.757812 Z M 143.539062 314.757812 " fill-opacity="1" fill-rule="nonzero"/><path fill="#2f2a3e" d="M 130.769531 318.757812 C 130.546875 318.757812 130.433594 318.535156 130.433594 318.3125 C 130.433594 318.089844 130.65625 317.867188 130.878906 317.867188 L 132.210938 317.867188 C 132.433594 317.867188 132.65625 317.644531 132.765625 317.425781 L 131.878906 314.425781 C 131.769531 314.203125 131.988281 313.980469 132.210938 313.871094 C 132.433594 313.761719 132.65625 313.980469 132.765625 314.203125 L 133.65625 317.3125 C 133.65625 317.3125 133.65625 317.425781 133.65625 317.425781 C 133.65625 318.203125 133.101562 318.757812 132.324219 318.757812 Z M 130.769531 318.757812 " fill-opacity="1" fill-rule="nonzero"/><path fill="#2f2a3e" d="M 137.875 304.878906 C 137.875 304.878906 136.988281 306.765625 139.984375 307.207031 C 142.316406 307.652344 144.980469 308.652344 146.203125 309.097656 C 146.867188 309.429688 147.757812 309.207031 148.203125 308.761719 C 148.535156 308.320312 148.535156 307.875 148.203125 307.429688 C 147.535156 306.542969 144.757812 304.320312 141.984375 303.878906 C 138.652344 303.210938 137.875 304.878906 137.875 304.878906 Z M 137.875 304.878906 " fill-opacity="1" fill-rule="nonzero"/><path fill="#2f2a3e" d="M 128.769531 303.433594 C 128.769531 303.433594 128.992188 305.433594 125.992188 304.988281 C 123.664062 304.65625 120.773438 304.765625 119.441406 304.878906 C 118.664062 304.878906 117.886719 304.542969 117.667969 303.878906 C 117.445312 303.433594 117.554688 302.878906 118.109375 302.546875 C 119 301.878906 122.328125 300.65625 125.105469 301.101562 C 128.546875 301.65625 128.769531 303.433594 128.769531 303.433594 Z M 128.769531 303.433594 " fill-opacity="1" fill-rule="nonzero"/><path fill="#2f2a3e" d="M 126.4375 321.53125 L 134.878906 322.863281 C 136.210938 323.085938 137.429688 323.976562 137.984375 325.195312 L 138.207031 325.640625 C 138.429688 326.195312 137.984375 326.863281 137.320312 326.75 L 122.886719 324.417969 C 122.328125 324.308594 121.996094 323.640625 122.328125 323.199219 C 123.328125 321.976562 124.882812 321.3125 126.4375 321.53125 Z M 126.4375 321.53125 " fill-opacity="1" fill-rule="nonzero"/><path fill="#f4ad86" d="M 111.78125 290.441406 C 111.78125 290.441406 113.226562 295.328125 107.5625 301.324219 L 106.339844 296.882812 L 111.78125 286.890625 " fill-opacity="1" fill-rule="nonzero"/><path fill="#f4ad86" d="M 146.09375 293.328125 C 146.09375 293.328125 143.871094 297.882812 148.421875 304.765625 L 150.3125 300.546875 L 146.757812 289.886719 " fill-opacity="1" fill-rule="nonzero"/><path fill="#f4ad86" d="M 112.003906 290.996094 C 112.003906 290.996094 124.773438 289.441406 133.542969 295.992188 C 143.539062 303.542969 152.644531 296.992188 151.976562 288.445312 C 151.199219 279.558594 139.429688 276.5625 127.882812 277.230469 C 118.554688 277.785156 112.78125 281.890625 112.78125 281.890625 Z M 112.003906 290.996094 " fill-opacity="1" fill-rule="nonzero"/><path fill="#f4ad86" d="M 115.667969 281.78125 C 115.667969 281.78125 96.570312 281.226562 103.121094 306.875 Z M 115.667969 281.78125 " fill-opacity="1" fill-rule="nonzero"/><path fill="#2f2a3e" d="M 111.78125 290.441406 C 111.78125 290.441406 113.226562 295.328125 107.5625 301.324219 L 106.339844 296.882812 L 111.78125 286.890625 " fill-opacity="1" fill-rule="nonzero"/><path fill="#2f2a3e" d="M 146.09375 293.328125 C 146.09375 293.328125 143.871094 297.882812 148.421875 304.765625 L 150.3125 300.546875 L 146.757812 289.886719 " fill-opacity="1" fill-rule="nonzero"/><path fill="#2f2a3e" d="M 112.003906 290.996094 C 112.003906 290.996094 124.773438 289.441406 133.542969 295.992188 C 143.539062 303.542969 152.644531 296.992188 151.976562 288.445312 C 151.199219 279.558594 139.429688 276.5625 127.882812 277.230469 C 118.554688 277.785156 112.78125 281.890625 112.78125 281.890625 Z M 112.003906 290.996094 " fill-opacity="1" fill-rule="nonzero"/><path fill="#2f2a3e" d="M 115.667969 281.78125 C 115.667969 281.78125 96.570312 281.226562 103.121094 306.875 Z M 115.667969 281.78125 " fill-opacity="1" fill-rule="nonzero"/><path fill="#ffffff" d="M 97.457031 358.398438 L 133.542969 418.023438 L 145.316406 359.617188 L 130.992188 356.398438 L 122.441406 364.613281 L 111.335938 355.066406 Z M 97.457031 358.398438 " fill-opacity="1" fill-rule="nonzero"/><path fill="#2f2a3e" d="M 138.761719 469.988281 C 138.542969 469.988281 138.429688 469.878906 138.320312 469.65625 L 133.101562 418.136719 C 133.101562 417.914062 133.210938 417.691406 133.433594 417.691406 C 133.65625 417.691406 133.878906 417.800781 133.878906 418.023438 L 139.097656 469.546875 C 139.207031 469.769531 138.984375 469.988281 138.761719 469.988281 Z M 138.761719 469.988281 " fill-opacity="1" fill-rule="nonzero"/><g mask="url(#e6b7e1cf6e)"><g transform="matrix(1, 0, 0, 1, 114, 301)"><g clip-path="url(#068f631c22)"><g clip-path="url(#f0ad80791f)"><path fill="#ffffff" d="M 8.664062 1.433594 L 14.882812 14.757812 C 14.882812 14.757812 11.328125 19.199219 7.332031 17.757812 L 1 4.652344 C 0.890625 4.765625 4.222656 0.210938 8.664062 1.433594 Z M 8.664062 1.433594 " fill-opacity="1" fill-rule="nonzero"/></g></g></g></g><g mask="url(#11637e5807)"><g transform="matrix(1, 0, 0, 1, 134, 305)"><g clip-path="url(#8b69660f9b)"><g clip-path="url(#c9d70b1aeb)"><path fill="#ffffff" d="M 8.316406 1.429688 L 14.535156 14.757812 C 14.535156 14.757812 10.980469 19.199219 6.984375 17.753906 L 0.542969 4.761719 C 0.542969 4.761719 3.875 0.210938 8.316406 1.429688 Z M 8.316406 1.429688 " fill-opacity="1" fill-rule="nonzero"/></g></g></g></g><path fill="#ffffff" d="M 120.886719 319.535156 C 120.554688 319.535156 120.332031 319.421875 119.996094 319.421875 C 115.222656 318.421875 112.113281 313.761719 113.113281 308.984375 C 113.558594 306.652344 114.890625 304.65625 116.890625 303.433594 C 118.886719 302.101562 121.21875 301.65625 123.550781 302.101562 C 125.882812 302.546875 127.882812 303.878906 129.101562 305.875 C 130.433594 307.875 130.878906 310.207031 130.433594 312.539062 C 129.992188 314.871094 128.660156 316.867188 126.660156 318.089844 C 124.996094 319.199219 122.996094 319.644531 120.886719 319.535156 Z M 122.664062 302.546875 C 120.773438 302.324219 118.886719 302.765625 117.222656 303.878906 C 115.445312 305.097656 114.113281 306.988281 113.667969 309.097656 C 112.78125 313.539062 115.667969 317.867188 120.109375 318.757812 C 122.21875 319.199219 124.441406 318.757812 126.328125 317.535156 C 128.105469 316.3125 129.4375 314.425781 129.878906 312.316406 C 130.324219 310.207031 129.878906 307.984375 128.660156 306.097656 C 127.4375 304.320312 125.550781 302.988281 123.441406 302.546875 C 123.21875 302.65625 122.996094 302.546875 122.664062 302.546875 Z M 122.664062 302.546875 " fill-opacity="1" fill-rule="nonzero"/><path fill="#ffffff" d="M 140.539062 323.53125 C 140.316406 323.53125 139.984375 323.421875 139.761719 323.421875 C 134.988281 322.421875 131.878906 317.757812 132.878906 312.984375 C 133.324219 310.652344 134.65625 308.652344 136.652344 307.429688 C 138.652344 306.097656 140.984375 305.65625 143.316406 306.097656 C 145.648438 306.542969 147.644531 307.875 148.867188 309.875 C 150.089844 311.871094 150.644531 314.203125 150.199219 316.535156 C 149.199219 320.976562 145.09375 323.976562 140.539062 323.53125 Z M 142.425781 306.542969 C 140.539062 306.320312 138.652344 306.765625 136.988281 307.875 C 135.210938 309.097656 133.878906 310.984375 133.433594 313.09375 C 132.546875 317.535156 135.433594 321.867188 139.875 322.753906 C 144.316406 323.640625 148.644531 320.753906 149.535156 316.3125 C 149.976562 314.203125 149.535156 311.984375 148.3125 310.097656 C 147.089844 308.320312 145.203125 306.988281 143.09375 306.542969 C 142.871094 306.652344 142.648438 306.542969 142.425781 306.542969 Z M 142.425781 306.542969 " fill-opacity="1" fill-rule="nonzero"/><path fill="#ffffff" d="M 132.988281 313.203125 C 131.769531 312.207031 130.324219 312.648438 130.324219 312.648438 L 130.101562 312.09375 C 130.214844 312.09375 131.878906 311.539062 133.324219 312.761719 Z M 132.988281 313.203125 " fill-opacity="1" fill-rule="nonzero"/><path fill="#2f2a3e" d="M 131.324219 328.304688 C 131.210938 327.972656 130.992188 327.863281 130.65625 327.972656 C 129.878906 328.082031 129.101562 328.082031 128.4375 327.863281 C 127.882812 327.640625 127.328125 327.304688 127.105469 326.863281 C 126.769531 326.308594 125.773438 326.863281 126.105469 327.417969 C 126.550781 328.195312 127.214844 328.640625 128.105469 328.972656 C 128.992188 329.304688 129.992188 329.195312 130.992188 329.082031 C 131.210938 328.859375 131.433594 328.527344 131.324219 328.304688 Z M 131.324219 328.304688 " fill-opacity="1" fill-rule="nonzero"/><path fill="#ffffff" d="M 103.675781 310.761719 C 103.34375 310.761719 103.121094 310.539062 103.121094 310.207031 C 103.121094 309.875 103.34375 309.652344 103.675781 309.652344 L 113.335938 309.097656 C 113.667969 309.097656 113.890625 309.320312 113.890625 309.652344 C 113.890625 309.984375 113.667969 310.207031 113.335938 310.207031 Z M 103.675781 310.761719 " fill-opacity="1" fill-rule="nonzero"/><g clip-path="url(#d13eba16c6)"><path fill="#2f2a3e" d="M 298.097656 655.707031 L 279.109375 777.402344 L 266.675781 777.402344 L 282.441406 653.929688 Z M 366.164062 653.929688 L 380.710938 777.402344 L 395.144531 777.402344 L 383.597656 653.929688 Z M 412.6875 655.707031 L 431.675781 777.402344 L 444.113281 777.402344 L 428.34375 653.929688 Z M 70.136719 653.929688 L 58.589844 777.402344 L 73.023438 777.402344 L 87.570312 653.929688 Z M 25.390625 653.929688 L 9.734375 777.402344 L 22.167969 777.402344 L 41.15625 655.707031 Z M 25.390625 653.929688 " fill-opacity="1" fill-rule="nonzero"/></g><path fill="#ffffff" d="M 360.613281 504.695312 L 440.226562 504.695312 C 452.550781 504.695312 461.65625 514.910156 459.214844 525.792969 L 433.785156 635.832031 L 433.785156 645.15625 C 433.785156 650.933594 428.675781 655.59375 422.347656 655.59375 L 319.859375 655.59375 L 319.859375 615.957031 L 390.703125 610.957031 Z M 360.613281 504.695312 " fill-opacity="1" fill-rule="nonzero"/><path fill="#f4ad86" d="M 339.402344 586.753906 C 339.402344 587.640625 339.402344 588.417969 339.402344 589.304688 C 339.070312 602.410156 337.515625 615.511719 336.515625 628.613281 C 335.296875 636.164062 332.1875 638.605469 329.742188 639.160156 C 329.632812 639.382812 329.410156 639.605469 329.300781 639.828125 L 323.859375 647.488281 C 323.414062 648.265625 322.414062 648.601562 321.527344 648.265625 C 320.859375 648.046875 320.082031 647.378906 320.859375 645.601562 L 320.082031 647.378906 C 319.640625 648.265625 318.527344 648.601562 317.527344 648.15625 C 316.640625 647.824219 316.308594 646.710938 316.640625 645.601562 L 315.972656 646.824219 C 315.53125 647.710938 314.199219 648.046875 313.199219 647.488281 C 312.308594 647.046875 311.976562 645.933594 312.421875 645.15625 L 313.199219 643.382812 L 313.308594 643.160156 L 311.867188 645.046875 C 311.3125 646.046875 309.976562 646.269531 308.867188 645.714844 C 307.980469 645.15625 307.648438 644.046875 308.089844 643.160156 L 312.976562 632.054688 L 310.421875 630.835938 C 309.535156 630.390625 308.980469 629.5 309.089844 628.503906 C 309.203125 627.503906 310.089844 626.835938 311.199219 626.835938 L 325.632812 626.613281 C 321.96875 599.300781 318.75 572.09375 316.195312 544.667969 C 316.085938 538.449219 321.75 533.34375 328.410156 533.34375 C 328.632812 533.34375 328.855469 533.34375 329.078125 533.34375 C 335.296875 533.675781 335.296875 540.117188 336.628906 545.78125 C 339.402344 558.882812 339.625 572.539062 339.402344 586.753906 Z M 339.402344 586.753906 " fill-opacity="1" fill-rule="nonzero"/><path fill="#2f2a3e" d="M 312.976562 643.9375 C 312.976562 643.9375 312.867188 643.9375 312.976562 643.9375 C 312.753906 643.824219 312.753906 643.714844 312.753906 643.601562 L 315.753906 637.164062 C 315.753906 637.050781 315.972656 637.050781 316.085938 637.050781 C 316.195312 637.050781 316.195312 637.273438 316.195312 637.386719 L 313.199219 643.824219 C 313.085938 643.9375 313.085938 643.9375 312.976562 643.9375 Z M 312.976562 643.9375 " fill-opacity="1" fill-rule="nonzero"/><path fill="#2f2a3e" d="M 316.75 645.492188 C 316.53125 645.378906 316.53125 645.269531 316.53125 645.15625 L 319.75 639.273438 C 319.859375 639.160156 319.972656 639.160156 320.082031 639.160156 C 320.195312 639.273438 320.195312 639.382812 320.195312 639.496094 L 316.972656 645.378906 C 316.972656 645.492188 316.863281 645.492188 316.75 645.492188 Z M 316.75 645.492188 " fill-opacity="1" fill-rule="nonzero"/><path fill="#2f2a3e" d="M 320.414062 646.269531 C 320.195312 646.15625 320.195312 646.046875 320.195312 645.933594 L 322.96875 641.050781 C 323.082031 640.9375 323.191406 640.9375 323.304688 640.9375 C 323.414062 641.050781 323.414062 641.160156 323.414062 641.273438 L 320.636719 646.15625 C 320.636719 646.269531 320.527344 646.269531 320.414062 646.269531 Z M 320.414062 646.269531 " fill-opacity="1" fill-rule="nonzero"/><g clip-path="url(#3d0237c06a)"><path fill="#f6dec8" d="M 393.699219 599.410156 L 393.699219 626.503906 C 393.699219 638.828125 383.484375 648.601562 371.269531 648.15625 L 325.414062 646.492188 L 319.75 690.238281 L 329.1875 718.886719 L 315.417969 723.4375 L 312.867188 743.203125 L 287.214844 741.207031 L 286.773438 685.355469 L 270.894531 653.042969 C 266.007812 643.160156 270.449219 631.277344 280.886719 626.503906 L 291.769531 621.617188 C 296.320312 615.957031 302.871094 611.957031 310.421875 610.957031 Z M 393.699219 599.410156 " fill-opacity="1" fill-rule="nonzero"/></g><path fill="#20bbbd" d="M 333.074219 513.355469 C 333.074219 513.355469 316.640625 523.128906 313.53125 549.664062 L 336.960938 562.546875 Z M 333.074219 513.355469 " fill-opacity="1" fill-rule="nonzero"/><path fill="#20bbbd" d="M 364.496094 505.027344 C 372.605469 505.695312 380.488281 507.472656 388.039062 510.46875 C 390.925781 511.578125 394.257812 513.023438 396.03125 515.800781 C 398.363281 519.464844 396.585938 523.570312 396.367188 527.570312 C 396.367188 527.570312 394.144531 609.183594 394.144531 609.183594 L 327.1875 609.183594 L 324.746094 530.234375 C 324.191406 521.796875 329.1875 514.132812 336.847656 511.359375 C 345.511719 508.359375 356.058594 504.917969 360.613281 504.585938 Z M 364.496094 505.027344 " fill-opacity="1" fill-rule="nonzero"/><path fill="#2f2a3e" d="M 326.078125 557.660156 C 325.855469 557.660156 325.746094 557.550781 325.746094 557.328125 L 325.191406 533.34375 C 325.191406 533.121094 325.300781 533.011719 325.523438 532.898438 C 325.746094 532.898438 325.855469 533.011719 325.96875 533.230469 L 326.523438 557.214844 C 326.523438 557.4375 326.300781 557.660156 326.078125 557.660156 Z M 326.078125 557.660156 " fill-opacity="1" fill-rule="nonzero"/><path fill="#f4ad86" d="M 340.734375 510.136719 C 340.734375 510.136719 352.839844 505.363281 360.613281 504.804688 C 360.613281 504.804688 371.160156 505.25 378.488281 507.472656 C 378.488281 507.472656 374.492188 516.019531 355.835938 517.464844 C 337.292969 518.796875 340.734375 510.136719 340.734375 510.136719 Z M 340.734375 510.136719 " fill-opacity="1" fill-rule="nonzero"/><path fill="#f4ad86" d="M 347.621094 484.707031 L 348.175781 509.804688 L 367.050781 508.136719 L 362.386719 467.277344 Z M 347.621094 484.707031 " fill-opacity="1" fill-rule="nonzero"/><path fill="#2f2a3e" d="M 347.953125 499.367188 L 361.390625 481.488281 L 347.730469 486.042969 Z M 347.953125 499.367188 " fill-opacity="1" fill-rule="nonzero"/><path fill="#f4ad86" d="M 341.847656 441.070312 C 335.296875 441.402344 331.628906 447.957031 330.410156 453.953125 C 329.078125 460.945312 327.410156 471.828125 329.1875 477.378906 C 331.851562 485.929688 338.625 491.480469 349.730469 489.484375 C 349.730469 489.484375 362.609375 489.039062 366.164062 470.050781 C 370.382812 447.398438 355.726562 440.40625 341.847656 441.070312 Z M 341.847656 441.070312 " fill-opacity="1" fill-rule="nonzero"/><path fill="#2f2a3e" d="M 333.40625 463.390625 C 333.183594 464.167969 332.40625 464.609375 331.628906 464.390625 C 330.855469 464.167969 330.410156 463.390625 330.632812 462.613281 C 330.855469 461.835938 331.628906 461.390625 332.40625 461.613281 C 333.183594 461.722656 333.628906 462.613281 333.40625 463.390625 Z M 333.40625 463.390625 " fill-opacity="1" fill-rule="nonzero"/><path fill="#2f2a3e" d="M 345.734375 464.390625 C 345.511719 465.167969 344.734375 465.609375 343.957031 465.386719 C 343.179688 465.167969 342.734375 464.390625 342.957031 463.613281 C 343.179688 462.835938 343.957031 462.390625 344.734375 462.613281 C 345.511719 462.835938 345.953125 463.613281 345.734375 464.390625 Z M 345.734375 464.390625 " fill-opacity="1" fill-rule="nonzero"/><path fill="#2f2a3e" d="M 336.515625 471.164062 L 334.960938 470.71875 C 334.628906 470.605469 334.40625 470.386719 334.183594 470.164062 C 334.074219 469.828125 333.960938 469.496094 334.074219 469.273438 L 335.515625 465.167969 C 335.628906 464.945312 335.851562 464.832031 335.960938 464.945312 C 336.183594 465.054688 336.292969 465.277344 336.183594 465.386719 L 334.738281 469.496094 C 334.738281 469.609375 334.738281 469.71875 334.738281 469.828125 C 334.738281 469.941406 334.851562 470.050781 334.960938 470.050781 L 336.515625 470.496094 C 336.738281 470.605469 336.847656 470.71875 336.738281 470.941406 C 336.960938 471.050781 336.738281 471.164062 336.515625 471.164062 Z M 336.515625 471.164062 " fill-opacity="1" fill-rule="nonzero"/><path fill="#2f2a3e" d="M 333.519531 473.160156 L 344.84375 474.714844 C 344.84375 474.714844 343.957031 479.601562 338.738281 478.933594 C 333.519531 478.269531 333.519531 473.160156 333.519531 473.160156 Z M 333.519531 473.160156 " fill-opacity="1" fill-rule="nonzero"/><g clip-path="url(#625444c7f1)"><g clip-path="url(#7e73197d03)"><path fill="#ffffff" d="M 332.519531 474.605469 L 345.398438 476.160156 L 345.621094 474.050781 L 332.851562 471.9375 Z M 332.519531 474.605469 " fill-opacity="1" fill-rule="nonzero"/></g></g><path fill="#2f2a3e" d="M 335.628906 452.953125 C 335.628906 452.953125 336.074219 454.730469 333.851562 454.839844 C 332.1875 454.949219 331.1875 455.0625 330.1875 455.285156 C 329.632812 455.507812 329.078125 455.171875 328.742188 454.730469 C 328.523438 454.285156 328.523438 453.839844 328.855469 453.507812 C 329.410156 452.730469 330.632812 451.730469 332.628906 451.507812 C 335.296875 451.285156 335.628906 452.953125 335.628906 452.953125 Z M 335.628906 452.953125 " fill-opacity="1" fill-rule="nonzero"/><path fill="#2f2a3e" d="M 343.179688 453.617188 C 343.179688 453.617188 342.402344 455.285156 345.066406 455.839844 C 347.175781 456.28125 349.617188 457.28125 350.730469 457.726562 C 351.394531 457.949219 352.171875 457.835938 352.617188 457.394531 C 352.949219 457.058594 352.949219 456.503906 352.726562 456.171875 C 352.0625 455.394531 349.617188 453.285156 347.066406 452.730469 C 343.84375 452.175781 343.179688 453.617188 343.179688 453.617188 Z M 343.179688 453.617188 " fill-opacity="1" fill-rule="nonzero"/><path fill="#2f2a3e" d="M 360.5 472.9375 L 358.945312 458.726562 C 358.613281 455.394531 359.835938 452.839844 360.945312 448.953125 C 348.621094 447.84375 334.183594 446.402344 334.296875 445.289062 C 334.296875 445.289062 340.402344 433.964844 361.5 437.519531 C 390.257812 442.402344 376.710938 477.046875 363.609375 482.933594 Z M 360.5 472.9375 " fill-opacity="1" fill-rule="nonzero"/><path fill="#f4ad86" d="M 374.15625 473.828125 C 372.824219 477.933594 368.496094 480.15625 364.386719 478.824219 C 360.277344 477.492188 358.058594 473.160156 359.390625 469.050781 C 360.722656 464.945312 365.054688 462.722656 369.160156 464.054688 C 373.160156 465.386719 375.492188 469.71875 374.15625 473.828125 Z M 374.15625 473.828125 " fill-opacity="1" fill-rule="nonzero"/><path fill="#2f2a3e" d="M 362.945312 474.160156 C 362.722656 474.050781 362.609375 473.9375 362.609375 473.714844 C 363.164062 471.71875 364.164062 470.273438 365.609375 469.386719 C 367.828125 468.164062 370.273438 468.832031 370.382812 468.941406 C 370.605469 469.050781 370.714844 469.164062 370.605469 469.386719 C 370.492188 469.609375 370.382812 469.71875 370.160156 469.609375 C 370.160156 469.609375 367.941406 468.941406 365.941406 470.050781 C 364.71875 470.71875 363.832031 472.050781 363.386719 473.828125 C 363.386719 474.050781 363.164062 474.160156 362.945312 474.160156 Z M 362.945312 474.160156 " fill-opacity="1" fill-rule="nonzero"/><path fill="#f4ad86" d="M 410.691406 590.859375 C 410.691406 591.859375 410.691406 592.859375 410.691406 593.746094 C 410.355469 609.183594 408.691406 624.394531 407.582031 639.71875 C 406.359375 648.601562 402.917969 651.375 400.253906 652.152344 C 400.140625 652.375 399.917969 652.707031 399.808594 652.929688 L 393.921875 661.925781 C 393.480469 662.8125 392.367188 663.257812 391.367188 662.8125 C 390.703125 662.480469 389.816406 661.703125 390.703125 659.703125 L 389.925781 661.8125 C 389.480469 662.8125 388.261719 663.257812 387.261719 662.703125 C 386.371094 662.257812 385.929688 661.035156 386.371094 659.703125 L 385.59375 661.148438 C 385.039062 662.257812 383.707031 662.589844 382.597656 662.035156 C 381.597656 661.480469 381.375 660.257812 381.707031 659.257812 L 382.597656 657.148438 L 382.707031 656.929688 L 381.152344 659.148438 C 380.488281 660.257812 379.042969 660.59375 377.933594 659.816406 C 376.933594 659.148438 376.601562 657.925781 377.046875 656.816406 L 382.265625 643.824219 L 379.488281 642.492188 C 378.488281 642.050781 377.933594 640.9375 378.042969 639.828125 C 378.265625 638.71875 379.15625 637.828125 380.265625 637.828125 L 395.921875 637.496094 C 391.925781 605.628906 388.59375 573.761719 385.707031 541.78125 C 385.59375 534.453125 391.703125 528.457031 398.808594 528.457031 C 399.03125 528.457031 399.253906 528.457031 399.585938 528.457031 C 406.25 528.902344 406.359375 536.453125 407.691406 543.003906 C 410.691406 558.328125 410.800781 574.316406 410.691406 590.859375 Z M 410.691406 590.859375 " fill-opacity="1" fill-rule="nonzero"/><path fill="#2f2a3e" d="M 382.152344 657.816406 C 381.929688 657.707031 381.929688 657.59375 381.929688 657.484375 L 385.152344 650.042969 C 385.152344 649.933594 385.371094 649.820312 385.484375 649.933594 C 385.59375 649.933594 385.707031 650.15625 385.59375 650.265625 L 382.375 657.707031 C 382.375 657.816406 382.265625 657.816406 382.152344 657.816406 Z M 382.152344 657.816406 " fill-opacity="1" fill-rule="nonzero"/><path fill="#2f2a3e" d="M 386.261719 659.59375 C 386.039062 659.480469 386.039062 659.371094 386.039062 659.257812 L 389.480469 652.375 C 389.59375 652.265625 389.703125 652.152344 389.816406 652.265625 C 389.925781 652.375 390.035156 652.488281 389.925781 652.597656 L 386.484375 659.480469 C 386.484375 659.59375 386.371094 659.59375 386.261719 659.59375 Z M 386.261719 659.59375 " fill-opacity="1" fill-rule="nonzero"/><path fill="#2f2a3e" d="M 390.257812 660.59375 C 390.257812 660.59375 390.148438 660.59375 390.148438 660.59375 C 390.035156 660.480469 390.035156 660.371094 390.035156 660.257812 L 393.035156 654.484375 C 393.144531 654.375 393.257812 654.375 393.367188 654.375 C 393.480469 654.375 393.480469 654.597656 393.480469 654.707031 L 390.480469 660.480469 C 390.371094 660.59375 390.371094 660.59375 390.257812 660.59375 Z M 390.257812 660.59375 " fill-opacity="1" fill-rule="nonzero"/><path fill="#20bbbd" d="M 392.480469 512.578125 C 392.480469 512.578125 410.800781 522.460938 413.796875 560.546875 L 386.925781 569.097656 L 377.265625 538.671875 Z M 392.480469 512.578125 " fill-opacity="1" fill-rule="nonzero"/><g clip-path="url(#72b5adebfa)"><path fill="#2f2a3e" d="M 286.214844 684.910156 C 285.996094 684.910156 285.773438 684.6875 285.773438 684.464844 C 285.773438 684.242188 285.996094 661.703125 285.773438 645.269531 C 285.550781 628.722656 291.101562 621.617188 291.324219 621.394531 C 291.433594 621.175781 291.769531 621.175781 291.878906 621.285156 C 292.101562 621.394531 292.101562 621.730469 291.992188 621.839844 C 291.878906 621.949219 286.4375 628.945312 286.660156 645.269531 C 286.882812 661.703125 286.660156 684.242188 286.660156 684.464844 C 286.660156 684.6875 286.4375 684.910156 286.214844 684.910156 Z M 286.214844 684.910156 " fill-opacity="1" fill-rule="nonzero"/></g><path fill="#2f2a3e" d="M 387.59375 569.320312 C 387.371094 569.320312 387.261719 569.207031 387.148438 568.984375 L 383.597656 538.007812 C 383.597656 537.785156 383.707031 537.5625 383.929688 537.5625 C 384.152344 537.5625 384.375 537.671875 384.375 537.894531 L 387.925781 568.875 C 388.039062 569.097656 387.925781 569.207031 387.59375 569.320312 C 387.703125 569.320312 387.59375 569.320312 387.59375 569.320312 Z M 387.59375 569.320312 " fill-opacity="1" fill-rule="nonzero"/><g clip-path="url(#e3a7199148)"><g clip-path="url(#9966ae5e36)"><path fill="#2f2a3e" d="M 185.152344 3.734375 L 236.617188 3.734375 L 236.617188 55.199219 L 185.152344 55.199219 Z M 185.152344 3.734375 " fill-opacity="1" fill-rule="nonzero"/></g></g><g clip-path="url(#788ba8f6bc)"><g clip-path="url(#d55fc76fac)"><path fill="#ffffff" d="M 202.601562 21.183594 L 236.617188 21.183594 L 236.617188 55.199219 L 202.601562 55.199219 Z M 202.601562 21.183594 " fill-opacity="1" fill-rule="nonzero"/></g></g><g clip-path="url(#8880ff0d57)"><path fill="#20bbbd" d="M 284.023438 275.972656 L 208.160156 275.972656 C 200.875 275.972656 194.972656 281.878906 194.972656 289.167969 L 194.972656 315.554688 C 194.972656 322.835938 200.875 328.742188 208.160156 328.742188 L 258.433594 328.742188 L 272.230469 344.8125 L 272.988281 328.742188 L 284.023438 328.742188 C 291.3125 328.742188 297.214844 322.835938 297.214844 315.554688 L 297.214844 289.167969 C 297.214844 281.878906 291.3125 275.972656 284.023438 275.972656 " fill-opacity="1" fill-rule="nonzero"/></g><path fill="#ffffff" d="M 228.113281 302.359375 C 228.113281 307.128906 224.246094 310.992188 219.480469 310.992188 C 214.707031 310.992188 210.839844 307.128906 210.839844 302.359375 C 210.839844 297.589844 214.707031 293.726562 219.480469 293.726562 C 224.246094 293.726562 228.113281 297.589844 228.113281 302.359375 " fill-opacity="1" fill-rule="nonzero"/><path fill="#ffffff" d="M 281.347656 302.359375 C 281.347656 307.128906 277.476562 310.992188 272.707031 310.992188 C 267.9375 310.992188 264.074219 307.128906 264.074219 302.359375 C 264.074219 297.589844 267.9375 293.726562 272.707031 293.726562 C 277.476562 293.726562 281.347656 297.589844 281.347656 302.359375 " fill-opacity="1" fill-rule="nonzero"/><path fill="#ffffff" d="M 254.726562 302.359375 C 254.726562 307.128906 250.863281 310.992188 246.09375 310.992188 C 241.324219 310.992188 237.460938 307.128906 237.460938 302.359375 C 237.460938 297.589844 241.324219 293.726562 246.09375 293.726562 C 250.863281 293.726562 254.726562 297.589844 254.726562 302.359375 " fill-opacity="1" fill-rule="nonzero"/><g clip-path="url(#f6f55c8d7c)"><path fill="#2f2a3e" d="M 156.984375 209.9375 L 232.847656 209.9375 C 240.132812 209.9375 246.039062 215.84375 246.039062 223.128906 L 246.039062 249.519531 C 246.039062 256.800781 240.132812 262.707031 232.847656 262.707031 L 182.574219 262.707031 L 168.78125 278.777344 L 168.023438 262.707031 L 156.984375 262.707031 C 149.699219 262.707031 143.796875 256.800781 143.796875 249.519531 L 143.796875 223.128906 C 143.796875 215.84375 149.699219 209.9375 156.984375 209.9375 " fill-opacity="1" fill-rule="nonzero"/></g><path fill="#ffffff" d="M 212.898438 236.324219 C 212.898438 241.09375 216.765625 244.957031 221.53125 244.957031 C 226.300781 244.957031 230.167969 241.09375 230.167969 236.324219 C 230.167969 231.550781 226.300781 227.6875 221.53125 227.6875 C 216.765625 227.6875 212.898438 231.550781 212.898438 236.324219 " fill-opacity="1" fill-rule="nonzero"/><path fill="#ffffff" d="M 159.664062 236.324219 C 159.664062 241.09375 163.53125 244.957031 168.300781 244.957031 C 173.070312 244.957031 176.9375 241.09375 176.9375 236.324219 C 176.9375 231.550781 173.070312 227.6875 168.300781 227.6875 C 163.53125 227.6875 159.664062 231.550781 159.664062 236.324219 " fill-opacity="1" fill-rule="nonzero"/><path fill="#ffffff" d="M 186.28125 236.324219 C 186.28125 241.09375 190.144531 244.957031 194.917969 244.957031 C 199.6875 244.957031 203.550781 241.09375 203.550781 236.324219 C 203.550781 231.550781 199.6875 227.6875 194.917969 227.6875 C 190.144531 227.6875 186.28125 231.550781 186.28125 236.324219 " fill-opacity="1" fill-rule="nonzero"/><g fill="#2f2a3e" fill-opacity="1"><g transform="translate(251.318223, 31.682148)"><g><path d="M 8.515625 -5.21875 L 17.390625 -5.21875 L 17.390625 0 L 2.625 0 L 2.625 -26.75 L 8.515625 -26.75 Z M 8.515625 -5.21875 "/></g></g></g><g fill="#2f2a3e" fill-opacity="1"><g transform="translate(268.797413, 31.682148)"><g><path d="M 11.328125 0.359375 C 9.335938 0.359375 7.597656 -0.0390625 6.109375 -0.84375 C 4.617188 -1.644531 3.457031 -2.742188 2.625 -4.140625 C 1.789062 -5.546875 1.375 -7.140625 1.375 -8.921875 C 1.375 -10.703125 1.789062 -12.289062 2.625 -13.6875 C 3.457031 -15.082031 4.617188 -16.179688 6.109375 -16.984375 C 7.597656 -17.785156 9.335938 -18.1875 11.328125 -18.1875 C 13.316406 -18.1875 15.050781 -17.785156 16.53125 -16.984375 C 18.019531 -16.179688 19.171875 -15.082031 19.984375 -13.6875 C 20.804688 -12.289062 21.21875 -10.703125 21.21875 -8.921875 C 21.21875 -7.140625 20.804688 -5.546875 19.984375 -4.140625 C 19.171875 -2.742188 18.019531 -1.644531 16.53125 -0.84375 C 15.050781 -0.0390625 13.316406 0.359375 11.328125 0.359375 Z M 11.328125 -4.6875 C 12.546875 -4.707031 13.554688 -5.117188 14.359375 -5.921875 C 15.160156 -6.734375 15.5625 -7.734375 15.5625 -8.921875 C 15.5625 -10.140625 15.160156 -11.140625 14.359375 -11.921875 C 13.554688 -12.710938 12.546875 -13.125 11.328125 -13.15625 C 10.109375 -13.125 9.097656 -12.710938 8.296875 -11.921875 C 7.492188 -11.140625 7.09375 -10.140625 7.09375 -8.921875 C 7.09375 -7.734375 7.492188 -6.734375 8.296875 -5.921875 C 9.097656 -5.117188 10.109375 -4.707031 11.328125 -4.6875 Z M 11.328125 -4.6875 "/></g></g></g><g fill="#2f2a3e" fill-opacity="1"><g transform="translate(291.449012, 31.682148)"><g><path d="M 21.5 -17.828125 L 21.53125 0.171875 C 21.53125 3.472656 20.613281 6.0625 18.78125 7.9375 C 16.957031 9.8125 14.410156 10.75 11.140625 10.75 C 8.796875 10.75 6.8125 10.242188 5.1875 9.234375 C 3.570312 8.222656 2.394531 6.8125 1.65625 5 L 6.859375 2.890625 C 7.191406 3.785156 7.734375 4.492188 8.484375 5.015625 C 9.242188 5.535156 10.128906 5.796875 11.140625 5.796875 C 12.597656 5.796875 13.75 5.316406 14.59375 4.359375 C 15.445312 3.410156 15.875 2.117188 15.875 0.484375 L 15.875 -1.875 C 15.132812 -1.1875 14.285156 -0.640625 13.328125 -0.234375 C 12.378906 0.160156 11.34375 0.359375 10.21875 0.359375 C 8.582031 0.359375 7.09375 -0.0546875 5.75 -0.890625 C 4.414062 -1.722656 3.351562 -2.835938 2.5625 -4.234375 C 1.769531 -5.628906 1.375 -7.191406 1.375 -8.921875 C 1.375 -10.671875 1.769531 -12.242188 2.5625 -13.640625 C 3.351562 -15.035156 4.414062 -16.140625 5.75 -16.953125 C 7.09375 -17.773438 8.582031 -18.1875 10.21875 -18.1875 C 11.3125 -18.1875 12.328125 -18 13.265625 -17.625 C 14.203125 -17.257812 15.039062 -16.734375 15.78125 -16.046875 L 15.78125 -17.828125 Z M 11.640625 -4.6875 C 12.828125 -4.6875 13.835938 -5.09375 14.671875 -5.90625 C 15.503906 -6.726562 15.921875 -7.734375 15.921875 -8.921875 C 15.921875 -10.109375 15.503906 -11.109375 14.671875 -11.921875 C 13.835938 -12.742188 12.828125 -13.15625 11.640625 -13.15625 C 10.453125 -13.15625 9.445312 -12.742188 8.625 -11.921875 C 7.8125 -11.109375 7.40625 -10.109375 7.40625 -8.921875 C 7.40625 -7.734375 7.8125 -6.726562 8.625 -5.90625 C 9.445312 -5.09375 10.453125 -4.6875 11.640625 -4.6875 Z M 11.640625 -4.6875 "/></g></g></g><g fill="#2f2a3e" fill-opacity="1"><g transform="translate(315.661253, 31.682148)"><g><path d="M 11.328125 0.359375 C 9.335938 0.359375 7.597656 -0.0390625 6.109375 -0.84375 C 4.617188 -1.644531 3.457031 -2.742188 2.625 -4.140625 C 1.789062 -5.546875 1.375 -7.140625 1.375 -8.921875 C 1.375 -10.703125 1.789062 -12.289062 2.625 -13.6875 C 3.457031 -15.082031 4.617188 -16.179688 6.109375 -16.984375 C 7.597656 -17.785156 9.335938 -18.1875 11.328125 -18.1875 C 13.316406 -18.1875 15.050781 -17.785156 16.53125 -16.984375 C 18.019531 -16.179688 19.171875 -15.082031 19.984375 -13.6875 C 20.804688 -12.289062 21.21875 -10.703125 21.21875 -8.921875 C 21.21875 -7.140625 20.804688 -5.546875 19.984375 -4.140625 C 19.171875 -2.742188 18.019531 -1.644531 16.53125 -0.84375 C 15.050781 -0.0390625 13.316406 0.359375 11.328125 0.359375 Z M 11.328125 -4.6875 C 12.546875 -4.707031 13.554688 -5.117188 14.359375 -5.921875 C 15.160156 -6.734375 15.5625 -7.734375 15.5625 -8.921875 C 15.5625 -10.140625 15.160156 -11.140625 14.359375 -11.921875 C 13.554688 -12.710938 12.546875 -13.125 11.328125 -13.15625 C 10.109375 -13.125 9.097656 -12.710938 8.296875 -11.921875 C 7.492188 -11.140625 7.09375 -10.140625 7.09375 -8.921875 C 7.09375 -7.734375 7.492188 -6.734375 8.296875 -5.921875 C 9.097656 -5.117188 10.109375 -4.707031 11.328125 -4.6875 Z M 11.328125 -4.6875 "/></g></g></g></svg>