<svg xmlns="http://www.w3.org/2000/svg" xmlns:xlink="http://www.w3.org/1999/xlink" width="600" zoomAndPan="magnify" viewBox="0 0 450 449.999984" height="600" preserveAspectRatio="xMidYMid meet" version="1.0"><defs><g/><clipPath id="1eaf56feee"><path d="M 150.605469 219.515625 L 314.96875 219.515625 L 314.96875 252.988281 L 150.605469 252.988281 Z M 150.605469 219.515625 " clip-rule="nonzero"/></clipPath><clipPath id="4eb7b483a1"><path d="M 145.015625 226.523438 L 292.265625 226.523438 L 292.265625 267.636719 L 145.015625 267.636719 Z M 145.015625 226.523438 " clip-rule="nonzero"/></clipPath></defs><rect x="-45" width="540" fill="#ffffff" y="-44.999998" height="539.99998" fill-opacity="1"/><rect x="-45" width="540" fill="#ffffff" y="-44.999998" height="539.99998" fill-opacity="1"/><g clip-path="url(#1eaf56feee)"><path fill="#231f20" d="M 153.828125 251.640625 L 163.070312 252.910156 L 177.84375 252.910156 C 180.421875 252.910156 182.953125 252.238281 185.195312 250.960938 L 189.578125 248.464844 C 191.140625 247.570312 192.871094 247 194.660156 246.785156 L 205.996094 245.421875 L 314.96875 219.578125 L 201.574219 230.867188 L 194.292969 236.855469 C 192.308594 238.488281 189.816406 239.382812 187.242188 239.382812 L 182.140625 239.382812 L 173.984375 242.09375 C 172.164062 242.699219 170.273438 243.066406 168.363281 243.183594 L 150.71875 244.273438 L 150.796875 244.417969 C 151.578125 245.863281 151.925781 247.496094 151.796875 249.132812 C 151.703125 250.371094 152.589844 251.472656 153.828125 251.640625 " fill-opacity="1" fill-rule="nonzero"/></g><path fill="#231f20" d="M 274.953125 222.171875 L 198.125 227.246094 L 188.679688 231.050781 Z M 274.953125 222.171875 " fill-opacity="1" fill-rule="nonzero"/><path fill="#231f20" d="M 210.125 207.917969 L 212.472656 198.078125 L 208.753906 196.472656 C 207.726562 196.027344 206.53125 196.308594 205.808594 197.164062 L 195.398438 209.492188 L 208.125 209.492188 C 209.078125 209.492188 209.902344 208.839844 210.125 207.917969 " fill-opacity="1" fill-rule="nonzero"/><path fill="#231f20" d="M 280.945312 211.847656 L 238.261719 204.058594 L 238.261719 215.832031 L 280.945312 217.824219 L 280.945312 211.847656 " fill-opacity="1" fill-rule="nonzero"/><path fill="#231f20" d="M 285.304688 217.824219 L 314.183594 217.824219 L 285.304688 213.113281 Z M 285.304688 217.824219 " fill-opacity="1" fill-rule="nonzero"/><path fill="#231f20" d="M 220.527344 223.621094 L 224.339844 223.621094 C 224.699219 223.621094 224.988281 223.320312 224.972656 222.957031 L 223.757812 198.742188 C 223.742188 198.457031 223.539062 198.21875 223.261719 198.15625 L 219.632812 197.351562 C 219.226562 197.261719 218.847656 197.582031 218.863281 197.996094 L 219.894531 223.015625 C 219.910156 223.355469 220.1875 223.621094 220.527344 223.621094 " fill-opacity="1" fill-rule="nonzero"/><path fill="#231f20" d="M 167.324219 241.085938 C 168.359375 241.039062 169.378906 240.847656 170.363281 240.519531 L 180.871094 237.027344 C 180.871094 237.027344 174.859375 221.445312 203.566406 194.613281 C 205.128906 193.152344 207.332031 192.574219 209.417969 193.074219 L 303.195312 215.0625 L 201.9375 184.3125 C 181.777344 182.136719 167.488281 197.171875 167.488281 197.171875 C 174.027344 193.753906 190.347656 193.222656 194.453125 193.140625 C 194.804688 193.132812 194.992188 193.554688 194.746094 193.808594 C 190.5625 198.121094 183.976562 204.074219 173.605469 212.027344 L 173.605469 210.800781 C 173.605469 210.09375 173.003906 209.535156 172.296875 209.585938 L 156.695312 210.71875 C 154.648438 210.867188 152.738281 211.804688 151.386719 213.339844 C 146.285156 219.128906 135.042969 233.96875 145.632812 242.101562 L 167.324219 241.085938 " fill-opacity="1" fill-rule="nonzero"/><g clip-path="url(#4eb7b483a1)"><path fill="#231f20" d="M 154.898438 267.644531 L 292.207031 226.609375 L 145.089844 265.105469 Z M 154.898438 267.644531 " fill-opacity="1" fill-rule="nonzero"/></g><g fill="#ffffff" fill-opacity="1"><g transform="translate(120.37522, 363.358215)"><g><path d="M 8.703125 2.75 C 7.203125 2.75 5.890625 2.4375 4.765625 1.8125 C 3.640625 1.195312 2.769531 0.304688 2.15625 -0.859375 C 1.550781 -2.023438 1.25 -3.414062 1.25 -5.03125 C 1.25 -6.539062 1.5625 -7.890625 2.1875 -9.078125 C 2.8125 -10.265625 3.703125 -11.1875 4.859375 -11.84375 C 6.015625 -12.507812 7.363281 -12.84375 8.90625 -12.84375 C 10.457031 -12.84375 11.796875 -12.535156 12.921875 -11.921875 C 14.046875 -11.316406 14.90625 -10.453125 15.5 -9.328125 C 16.09375 -8.203125 16.390625 -6.878906 16.390625 -5.359375 C 16.390625 -4.515625 16.25 -3.753906 15.96875 -3.078125 C 15.6875 -2.398438 15.300781 -1.875 14.8125 -1.5 C 14.320312 -1.125 13.785156 -0.9375 13.203125 -0.9375 C 12.597656 -0.9375 12.117188 -1.050781 11.765625 -1.28125 C 11.410156 -1.519531 11.140625 -1.875 10.953125 -2.34375 L 10.796875 -2.34375 C 10.503906 -1.84375 10.140625 -1.484375 9.703125 -1.265625 C 9.273438 -1.046875 8.753906 -0.9375 8.140625 -0.9375 C 7.546875 -0.9375 7.007812 -1.09375 6.53125 -1.40625 C 6.050781 -1.71875 5.675781 -2.175781 5.40625 -2.78125 C 5.144531 -3.382812 5.015625 -4.113281 5.015625 -4.96875 C 5.015625 -5.832031 5.15625 -6.566406 5.4375 -7.171875 C 5.71875 -7.785156 6.101562 -8.25 6.59375 -8.5625 C 7.09375 -8.875 7.664062 -9.03125 8.3125 -9.03125 C 8.832031 -9.03125 9.289062 -8.929688 9.6875 -8.734375 C 10.082031 -8.535156 10.421875 -8.195312 10.703125 -7.71875 L 10.875 -7.75 L 10.875 -8.890625 L 12.15625 -8.890625 L 12.15625 -3.4375 C 12.15625 -2.9375 12.238281 -2.578125 12.40625 -2.359375 C 12.582031 -2.148438 12.851562 -2.046875 13.21875 -2.046875 C 13.550781 -2.046875 13.859375 -2.164062 14.140625 -2.40625 C 14.421875 -2.65625 14.644531 -3.03125 14.8125 -3.53125 C 14.988281 -4.039062 15.078125 -4.648438 15.078125 -5.359375 C 15.078125 -6.628906 14.835938 -7.734375 14.359375 -8.671875 C 13.890625 -9.609375 13.191406 -10.332031 12.265625 -10.84375 C 11.347656 -11.351562 10.226562 -11.609375 8.90625 -11.609375 C 7.59375 -11.609375 6.46875 -11.332031 5.53125 -10.78125 C 4.59375 -10.238281 3.878906 -9.472656 3.390625 -8.484375 C 2.898438 -7.492188 2.65625 -6.34375 2.65625 -5.03125 C 2.65625 -3.65625 2.894531 -2.476562 3.375 -1.5 C 3.851562 -0.519531 4.539062 0.222656 5.4375 0.734375 C 6.34375 1.242188 7.429688 1.5 8.703125 1.5 C 9.296875 1.5 9.859375 1.4375 10.390625 1.3125 C 10.921875 1.195312 11.367188 1.035156 11.734375 0.828125 L 11.90625 0.828125 L 12.328125 1.84375 C 12.015625 2.09375 11.523438 2.304688 10.859375 2.484375 C 10.203125 2.660156 9.484375 2.75 8.703125 2.75 Z M 8.59375 -2.125 C 9.039062 -2.125 9.429688 -2.226562 9.765625 -2.4375 C 10.109375 -2.65625 10.378906 -2.976562 10.578125 -3.40625 C 10.773438 -3.832031 10.875 -4.351562 10.875 -4.96875 C 10.875 -5.59375 10.773438 -6.117188 10.578125 -6.546875 C 10.378906 -6.984375 10.109375 -7.304688 9.765625 -7.515625 C 9.429688 -7.734375 9.039062 -7.84375 8.59375 -7.84375 C 7.863281 -7.84375 7.3125 -7.609375 6.9375 -7.140625 C 6.5625 -6.679688 6.375 -5.957031 6.375 -4.96875 C 6.375 -3.988281 6.5625 -3.269531 6.9375 -2.8125 C 7.3125 -2.351562 7.863281 -2.125 8.59375 -2.125 Z M 8.59375 -2.125 "/></g></g><g transform="translate(137.874242, 363.358215)"><g><path d="M 6.140625 0 L 4.171875 0 L 0.46875 -9.6875 L 2.015625 -9.6875 L 5.078125 -1.640625 L 5.28125 -1.640625 L 8.296875 -9.6875 L 9.8125 -9.6875 Z M 6.140625 0 "/></g></g><g transform="translate(148.148655, 363.358215)"><g><path d="M 2.40625 -11.5625 C 2.101562 -11.5625 1.851562 -11.65625 1.65625 -11.84375 C 1.46875 -12.039062 1.375 -12.285156 1.375 -12.578125 C 1.375 -12.867188 1.46875 -13.109375 1.65625 -13.296875 C 1.851562 -13.492188 2.101562 -13.59375 2.40625 -13.59375 C 2.707031 -13.59375 2.953125 -13.492188 3.140625 -13.296875 C 3.335938 -13.109375 3.4375 -12.867188 3.4375 -12.578125 C 3.4375 -12.285156 3.335938 -12.039062 3.140625 -11.84375 C 2.953125 -11.65625 2.707031 -11.5625 2.40625 -11.5625 Z M 1.6875 0 L 1.6875 -9.6875 L 3.125 -9.6875 L 3.125 0 Z M 1.6875 0 "/></g></g><g transform="translate(152.956272, 363.358215)"><g><path d="M 6.140625 0 L 4.171875 0 L 0.46875 -9.6875 L 2.015625 -9.6875 L 5.078125 -1.640625 L 5.28125 -1.640625 L 8.296875 -9.6875 L 9.8125 -9.6875 Z M 6.140625 0 "/></g></g><g transform="translate(163.230685, 363.358215)"><g><path d="M 4 0.1875 C 3.039062 0.1875 2.289062 -0.0625 1.75 -0.5625 C 1.21875 -1.0625 0.953125 -1.773438 0.953125 -2.703125 C 0.953125 -3.273438 1.070312 -3.757812 1.3125 -4.15625 C 1.550781 -4.550781 1.921875 -4.875 2.421875 -5.125 C 2.921875 -5.375 3.570312 -5.566406 4.375 -5.703125 C 5.070312 -5.816406 5.601562 -5.945312 5.96875 -6.09375 C 6.332031 -6.238281 6.578125 -6.398438 6.703125 -6.578125 C 6.835938 -6.765625 6.90625 -6.992188 6.90625 -7.265625 C 6.90625 -7.703125 6.753906 -8.035156 6.453125 -8.265625 C 6.148438 -8.503906 5.664062 -8.625 5 -8.625 C 4.363281 -8.625 3.820312 -8.503906 3.375 -8.265625 C 2.925781 -8.023438 2.515625 -7.664062 2.140625 -7.1875 L 1.96875 -7.1875 L 1.265625 -8.171875 C 1.671875 -8.691406 2.191406 -9.101562 2.828125 -9.40625 C 3.460938 -9.71875 4.1875 -9.875 5 -9.875 C 6.132812 -9.875 6.972656 -9.625 7.515625 -9.125 C 8.054688 -8.625 8.328125 -7.929688 8.328125 -7.046875 L 8.328125 -1.90625 C 8.328125 -1.363281 8.554688 -1.09375 9.015625 -1.09375 C 9.171875 -1.09375 9.316406 -1.117188 9.453125 -1.171875 L 9.578125 -1.140625 L 9.75 -0.15625 C 9.644531 -0.0820312 9.503906 -0.0234375 9.328125 0.015625 C 9.160156 0.0546875 8.984375 0.078125 8.796875 0.078125 C 8.265625 0.078125 7.863281 -0.0390625 7.59375 -0.28125 C 7.320312 -0.519531 7.144531 -0.863281 7.0625 -1.3125 L 6.875 -1.34375 C 6.601562 -0.832031 6.234375 -0.445312 5.765625 -0.1875 C 5.296875 0.0625 4.707031 0.1875 4 0.1875 Z M 4.3125 -0.953125 C 4.851562 -0.953125 5.320312 -1.078125 5.71875 -1.328125 C 6.113281 -1.578125 6.414062 -1.925781 6.625 -2.375 C 6.832031 -2.832031 6.9375 -3.359375 6.9375 -3.953125 L 6.9375 -5.171875 L 6.78125 -5.21875 C 6.5625 -5.0625 6.296875 -4.929688 5.984375 -4.828125 C 5.671875 -4.722656 5.238281 -4.628906 4.6875 -4.546875 C 4.125 -4.472656 3.675781 -4.359375 3.34375 -4.203125 C 3.007812 -4.046875 2.769531 -3.84375 2.625 -3.59375 C 2.488281 -3.351562 2.421875 -3.054688 2.421875 -2.703125 C 2.421875 -2.128906 2.585938 -1.691406 2.921875 -1.390625 C 3.253906 -1.097656 3.71875 -0.953125 4.3125 -0.953125 Z M 4.3125 -0.953125 "/></g></g><g transform="translate(173.259004, 363.358215)"><g><path d="M 4 0.1875 C 3.039062 0.1875 2.289062 -0.0625 1.75 -0.5625 C 1.21875 -1.0625 0.953125 -1.773438 0.953125 -2.703125 C 0.953125 -3.273438 1.070312 -3.757812 1.3125 -4.15625 C 1.550781 -4.550781 1.921875 -4.875 2.421875 -5.125 C 2.921875 -5.375 3.570312 -5.566406 4.375 -5.703125 C 5.070312 -5.816406 5.601562 -5.945312 5.96875 -6.09375 C 6.332031 -6.238281 6.578125 -6.398438 6.703125 -6.578125 C 6.835938 -6.765625 6.90625 -6.992188 6.90625 -7.265625 C 6.90625 -7.703125 6.753906 -8.035156 6.453125 -8.265625 C 6.148438 -8.503906 5.664062 -8.625 5 -8.625 C 4.363281 -8.625 3.820312 -8.503906 3.375 -8.265625 C 2.925781 -8.023438 2.515625 -7.664062 2.140625 -7.1875 L 1.96875 -7.1875 L 1.265625 -8.171875 C 1.671875 -8.691406 2.191406 -9.101562 2.828125 -9.40625 C 3.460938 -9.71875 4.1875 -9.875 5 -9.875 C 6.132812 -9.875 6.972656 -9.625 7.515625 -9.125 C 8.054688 -8.625 8.328125 -7.929688 8.328125 -7.046875 L 8.328125 -1.90625 C 8.328125 -1.363281 8.554688 -1.09375 9.015625 -1.09375 C 9.171875 -1.09375 9.316406 -1.117188 9.453125 -1.171875 L 9.578125 -1.140625 L 9.75 -0.15625 C 9.644531 -0.0820312 9.503906 -0.0234375 9.328125 0.015625 C 9.160156 0.0546875 8.984375 0.078125 8.796875 0.078125 C 8.265625 0.078125 7.863281 -0.0390625 7.59375 -0.28125 C 7.320312 -0.519531 7.144531 -0.863281 7.0625 -1.3125 L 6.875 -1.34375 C 6.601562 -0.832031 6.234375 -0.445312 5.765625 -0.1875 C 5.296875 0.0625 4.707031 0.1875 4 0.1875 Z M 4.3125 -0.953125 C 4.851562 -0.953125 5.320312 -1.078125 5.71875 -1.328125 C 6.113281 -1.578125 6.414062 -1.925781 6.625 -2.375 C 6.832031 -2.832031 6.9375 -3.359375 6.9375 -3.953125 L 6.9375 -5.171875 L 6.78125 -5.21875 C 6.5625 -5.0625 6.296875 -4.929688 5.984375 -4.828125 C 5.671875 -4.722656 5.238281 -4.628906 4.6875 -4.546875 C 4.125 -4.472656 3.675781 -4.359375 3.34375 -4.203125 C 3.007812 -4.046875 2.769531 -3.84375 2.625 -3.59375 C 2.488281 -3.351562 2.421875 -3.054688 2.421875 -2.703125 C 2.421875 -2.128906 2.585938 -1.691406 2.921875 -1.390625 C 3.253906 -1.097656 3.71875 -0.953125 4.3125 -0.953125 Z M 4.3125 -0.953125 "/></g></g><g transform="translate(183.287324, 363.358215)"><g><path d="M 1.6875 0 L 1.6875 -9.6875 L 3.046875 -9.6875 L 3.046875 -8.171875 L 3.234375 -8.125 C 3.554688 -8.695312 3.96875 -9.128906 4.46875 -9.421875 C 4.96875 -9.722656 5.578125 -9.875 6.296875 -9.875 C 7.460938 -9.875 8.304688 -9.578125 8.828125 -8.984375 C 9.359375 -8.390625 9.625 -7.472656 9.625 -6.234375 L 9.625 0 L 8.1875 0 L 8.1875 -6.203125 C 8.1875 -6.785156 8.113281 -7.253906 7.96875 -7.609375 C 7.820312 -7.960938 7.585938 -8.21875 7.265625 -8.375 C 6.953125 -8.539062 6.539062 -8.625 6.03125 -8.625 C 5.164062 -8.625 4.460938 -8.335938 3.921875 -7.765625 C 3.390625 -7.191406 3.125 -6.257812 3.125 -4.96875 L 3.125 0 Z M 1.6875 0 "/></g></g><g transform="translate(194.449433, 363.358215)"><g><path d="M 5 4.109375 C 3.46875 4.109375 2.347656 3.851562 1.640625 3.34375 C 0.941406 2.832031 0.59375 2.15625 0.59375 1.3125 C 0.59375 0.769531 0.753906 0.335938 1.078125 0.015625 C 1.410156 -0.304688 1.890625 -0.535156 2.515625 -0.671875 L 2.515625 -0.859375 C 2.210938 -1.023438 1.988281 -1.222656 1.84375 -1.453125 C 1.695312 -1.679688 1.625 -1.957031 1.625 -2.28125 C 1.625 -2.65625 1.738281 -2.957031 1.96875 -3.1875 C 2.207031 -3.425781 2.5625 -3.609375 3.03125 -3.734375 L 3.03125 -3.90625 C 1.976562 -4.46875 1.453125 -5.375 1.453125 -6.625 C 1.453125 -7.257812 1.59375 -7.820312 1.875 -8.3125 C 2.164062 -8.800781 2.578125 -9.179688 3.109375 -9.453125 C 3.640625 -9.734375 4.257812 -9.875 4.96875 -9.875 C 5.789062 -9.875 6.472656 -9.695312 7.015625 -9.34375 C 7.222656 -9.570312 7.375 -9.816406 7.46875 -10.078125 C 7.570312 -10.335938 7.640625 -10.628906 7.671875 -10.953125 L 7.859375 -11.078125 L 9.03125 -10.796875 C 8.976562 -10.304688 8.832031 -9.890625 8.59375 -9.546875 C 8.351562 -9.203125 8.015625 -8.921875 7.578125 -8.703125 L 7.578125 -8.515625 C 7.890625 -8.265625 8.117188 -7.972656 8.265625 -7.640625 C 8.421875 -7.316406 8.5 -6.9375 8.5 -6.5 C 8.5 -5.882812 8.351562 -5.332031 8.0625 -4.84375 C 7.769531 -4.363281 7.351562 -3.984375 6.8125 -3.703125 C 6.28125 -3.421875 5.664062 -3.28125 4.96875 -3.28125 C 4.894531 -3.28125 4.75 -3.289062 4.53125 -3.3125 C 4.300781 -3.320312 4.128906 -3.328125 4.015625 -3.328125 C 3.710938 -3.328125 3.46875 -3.242188 3.28125 -3.078125 C 3.101562 -2.921875 3.015625 -2.722656 3.015625 -2.484375 C 3.015625 -2.171875 3.113281 -1.941406 3.3125 -1.796875 C 3.507812 -1.660156 3.832031 -1.582031 4.28125 -1.5625 L 6.578125 -1.484375 C 7.566406 -1.453125 8.300781 -1.222656 8.78125 -0.796875 C 9.257812 -0.367188 9.5 0.234375 9.5 1.015625 C 9.5 1.585938 9.34375 2.109375 9.03125 2.578125 C 8.71875 3.046875 8.222656 3.414062 7.546875 3.6875 C 6.878906 3.96875 6.03125 4.109375 5 4.109375 Z M 4.96875 -4.515625 C 5.65625 -4.515625 6.1875 -4.691406 6.5625 -5.046875 C 6.9375 -5.410156 7.125 -5.914062 7.125 -6.5625 C 7.125 -7.226562 6.9375 -7.742188 6.5625 -8.109375 C 6.195312 -8.472656 5.664062 -8.65625 4.96875 -8.65625 C 4.28125 -8.65625 3.753906 -8.472656 3.390625 -8.109375 C 3.023438 -7.742188 2.84375 -7.226562 2.84375 -6.5625 C 2.84375 -5.90625 3.023438 -5.398438 3.390625 -5.046875 C 3.753906 -4.691406 4.28125 -4.515625 4.96875 -4.515625 Z M 5 2.890625 C 5.707031 2.890625 6.285156 2.804688 6.734375 2.640625 C 7.191406 2.484375 7.519531 2.273438 7.71875 2.015625 C 7.925781 1.753906 8.03125 1.460938 8.03125 1.140625 C 8.03125 0.859375 7.972656 0.628906 7.859375 0.453125 C 7.753906 0.273438 7.582031 0.140625 7.34375 0.046875 C 7.101562 -0.0351562 6.773438 -0.0859375 6.359375 -0.109375 L 4.1875 -0.21875 L 3.875 -0.21875 C 2.664062 -0.195312 2.0625 0.273438 2.0625 1.203125 C 2.0625 2.328125 3.039062 2.890625 5 2.890625 Z M 5 2.890625 "/></g></g><g transform="translate(204.381072, 363.358215)"><g><path d="M 4.796875 0.1875 C 3.691406 0.1875 2.867188 -0.101562 2.328125 -0.6875 C 1.796875 -1.269531 1.53125 -2.117188 1.53125 -3.234375 L 1.53125 -9.6875 L 2.96875 -9.6875 L 2.96875 -3.265625 C 2.96875 -1.796875 3.660156 -1.0625 5.046875 -1.0625 C 5.921875 -1.0625 6.613281 -1.347656 7.125 -1.921875 C 7.632812 -2.492188 7.890625 -3.425781 7.890625 -4.71875 L 7.890625 -9.6875 L 9.328125 -9.6875 L 9.328125 0 L 7.96875 0 L 7.96875 -1.515625 L 7.78125 -1.5625 C 7.445312 -0.96875 7.046875 -0.523438 6.578125 -0.234375 C 6.117188 0.046875 5.523438 0.1875 4.796875 0.1875 Z M 4.796875 0.1875 "/></g></g><g transform="translate(215.393767, 363.358215)"><g><path d="M 1.6875 3.921875 L 1.6875 -9.6875 L 3.125 -9.6875 L 3.125 -8.25 L 3.3125 -8.203125 C 4.03125 -9.316406 5.085938 -9.875 6.484375 -9.875 C 7.285156 -9.875 7.988281 -9.6875 8.59375 -9.3125 C 9.195312 -8.945312 9.664062 -8.390625 10 -7.640625 C 10.332031 -6.890625 10.5 -5.957031 10.5 -4.84375 C 10.5 -3.738281 10.320312 -2.8125 9.96875 -2.0625 C 9.625 -1.3125 9.140625 -0.75 8.515625 -0.375 C 7.890625 0 7.175781 0.1875 6.375 0.1875 C 5.71875 0.1875 5.132812 0.0703125 4.625 -0.15625 C 4.113281 -0.382812 3.675781 -0.757812 3.3125 -1.28125 L 3.125 -1.25 L 3.125 3.921875 Z M 6.0625 -1.09375 C 8.019531 -1.09375 9 -2.34375 9 -4.84375 C 9 -7.34375 8.019531 -8.59375 6.0625 -8.59375 C 5.476562 -8.59375 4.96875 -8.460938 4.53125 -8.203125 C 4.09375 -7.941406 3.75 -7.53125 3.5 -6.96875 C 3.25 -6.40625 3.125 -5.695312 3.125 -4.84375 C 3.125 -3.988281 3.25 -3.28125 3.5 -2.71875 C 3.75 -2.164062 4.09375 -1.753906 4.53125 -1.484375 C 4.96875 -1.222656 5.476562 -1.09375 6.0625 -1.09375 Z M 6.0625 -1.09375 "/></g></g><g transform="translate(226.960172, 363.358215)"><g><path d="M 6.5625 -1.53125 L 7.015625 -0.515625 C 6.785156 -0.285156 6.484375 -0.113281 6.109375 0 C 5.742188 0.125 5.34375 0.1875 4.90625 0.1875 C 3.050781 0.1875 2.125 -0.75 2.125 -2.625 L 2.125 -8.53125 L 0.4375 -8.53125 L 0.4375 -9.703125 L 2.125 -9.703125 L 2.125 -11.75 L 3.5625 -11.984375 L 3.5625 -9.703125 L 6.6875 -9.703125 L 6.6875 -8.53125 L 3.5625 -8.53125 L 3.5625 -2.765625 C 3.5625 -1.648438 4.046875 -1.09375 5.015625 -1.09375 C 5.535156 -1.09375 5.988281 -1.238281 6.375 -1.53125 Z M 6.5625 -1.53125 "/></g></g><g transform="translate(234.342984, 363.358215)"><g><path d="M 4 0.1875 C 3.039062 0.1875 2.289062 -0.0625 1.75 -0.5625 C 1.21875 -1.0625 0.953125 -1.773438 0.953125 -2.703125 C 0.953125 -3.273438 1.070312 -3.757812 1.3125 -4.15625 C 1.550781 -4.550781 1.921875 -4.875 2.421875 -5.125 C 2.921875 -5.375 3.570312 -5.566406 4.375 -5.703125 C 5.070312 -5.816406 5.601562 -5.945312 5.96875 -6.09375 C 6.332031 -6.238281 6.578125 -6.398438 6.703125 -6.578125 C 6.835938 -6.765625 6.90625 -6.992188 6.90625 -7.265625 C 6.90625 -7.703125 6.753906 -8.035156 6.453125 -8.265625 C 6.148438 -8.503906 5.664062 -8.625 5 -8.625 C 4.363281 -8.625 3.820312 -8.503906 3.375 -8.265625 C 2.925781 -8.023438 2.515625 -7.664062 2.140625 -7.1875 L 1.96875 -7.1875 L 1.265625 -8.171875 C 1.671875 -8.691406 2.191406 -9.101562 2.828125 -9.40625 C 3.460938 -9.71875 4.1875 -9.875 5 -9.875 C 6.132812 -9.875 6.972656 -9.625 7.515625 -9.125 C 8.054688 -8.625 8.328125 -7.929688 8.328125 -7.046875 L 8.328125 -1.90625 C 8.328125 -1.363281 8.554688 -1.09375 9.015625 -1.09375 C 9.171875 -1.09375 9.316406 -1.117188 9.453125 -1.171875 L 9.578125 -1.140625 L 9.75 -0.15625 C 9.644531 -0.0820312 9.503906 -0.0234375 9.328125 0.015625 C 9.160156 0.0546875 8.984375 0.078125 8.796875 0.078125 C 8.265625 0.078125 7.863281 -0.0390625 7.59375 -0.28125 C 7.320312 -0.519531 7.144531 -0.863281 7.0625 -1.3125 L 6.875 -1.34375 C 6.601562 -0.832031 6.234375 -0.445312 5.765625 -0.1875 C 5.296875 0.0625 4.707031 0.1875 4 0.1875 Z M 4.3125 -0.953125 C 4.851562 -0.953125 5.320312 -1.078125 5.71875 -1.328125 C 6.113281 -1.578125 6.414062 -1.925781 6.625 -2.375 C 6.832031 -2.832031 6.9375 -3.359375 6.9375 -3.953125 L 6.9375 -5.171875 L 6.78125 -5.21875 C 6.5625 -5.0625 6.296875 -4.929688 5.984375 -4.828125 C 5.671875 -4.722656 5.238281 -4.628906 4.6875 -4.546875 C 4.125 -4.472656 3.675781 -4.359375 3.34375 -4.203125 C 3.007812 -4.046875 2.769531 -3.84375 2.625 -3.59375 C 2.488281 -3.351562 2.421875 -3.054688 2.421875 -2.703125 C 2.421875 -2.128906 2.585938 -1.691406 2.921875 -1.390625 C 3.253906 -1.097656 3.71875 -0.953125 4.3125 -0.953125 Z M 4.3125 -0.953125 "/></g></g><g transform="translate(244.371304, 363.358215)"><g><path d="M 2.40625 -11.5625 C 2.101562 -11.5625 1.851562 -11.65625 1.65625 -11.84375 C 1.46875 -12.039062 1.375 -12.285156 1.375 -12.578125 C 1.375 -12.867188 1.46875 -13.109375 1.65625 -13.296875 C 1.851562 -13.492188 2.101562 -13.59375 2.40625 -13.59375 C 2.707031 -13.59375 2.953125 -13.492188 3.140625 -13.296875 C 3.335938 -13.109375 3.4375 -12.867188 3.4375 -12.578125 C 3.4375 -12.285156 3.335938 -12.039062 3.140625 -11.84375 C 2.953125 -11.65625 2.707031 -11.5625 2.40625 -11.5625 Z M 1.6875 0 L 1.6875 -9.6875 L 3.125 -9.6875 L 3.125 0 Z M 1.6875 0 "/></g></g><g transform="translate(249.178921, 363.358215)"><g><path d="M 2.40625 -11.5625 C 2.101562 -11.5625 1.851562 -11.65625 1.65625 -11.84375 C 1.46875 -12.039062 1.375 -12.285156 1.375 -12.578125 C 1.375 -12.867188 1.46875 -13.109375 1.65625 -13.296875 C 1.851562 -13.492188 2.101562 -13.59375 2.40625 -13.59375 C 2.707031 -13.59375 2.953125 -13.492188 3.140625 -13.296875 C 3.335938 -13.109375 3.4375 -12.867188 3.4375 -12.578125 C 3.4375 -12.285156 3.335938 -12.039062 3.140625 -11.84375 C 2.953125 -11.65625 2.707031 -11.5625 2.40625 -11.5625 Z M 1.6875 0 L 1.6875 -9.6875 L 3.125 -9.6875 L 3.125 0 Z M 1.6875 0 "/></g></g><g transform="translate(253.986537, 363.358215)"><g><path d="M 2.40625 -11.5625 C 2.101562 -11.5625 1.851562 -11.65625 1.65625 -11.84375 C 1.46875 -12.039062 1.375 -12.285156 1.375 -12.578125 C 1.375 -12.867188 1.46875 -13.109375 1.65625 -13.296875 C 1.851562 -13.492188 2.101562 -13.59375 2.40625 -13.59375 C 2.707031 -13.59375 2.953125 -13.492188 3.140625 -13.296875 C 3.335938 -13.109375 3.4375 -12.867188 3.4375 -12.578125 C 3.4375 -12.285156 3.335938 -12.039062 3.140625 -11.84375 C 2.953125 -11.65625 2.707031 -11.5625 2.40625 -11.5625 Z M 1.6875 0 L 1.6875 -9.6875 L 3.125 -9.6875 L 3.125 0 Z M 1.6875 0 "/></g></g><g transform="translate(258.794154, 363.358215)"><g><path d="M 6.5625 -1.53125 L 7.015625 -0.515625 C 6.785156 -0.285156 6.484375 -0.113281 6.109375 0 C 5.742188 0.125 5.34375 0.1875 4.90625 0.1875 C 3.050781 0.1875 2.125 -0.75 2.125 -2.625 L 2.125 -8.53125 L 0.4375 -8.53125 L 0.4375 -9.703125 L 2.125 -9.703125 L 2.125 -11.75 L 3.5625 -11.984375 L 3.5625 -9.703125 L 6.6875 -9.703125 L 6.6875 -8.53125 L 3.5625 -8.53125 L 3.5625 -2.765625 C 3.5625 -1.648438 4.046875 -1.09375 5.015625 -1.09375 C 5.535156 -1.09375 5.988281 -1.238281 6.375 -1.53125 Z M 6.5625 -1.53125 "/></g></g><g transform="translate(266.176966, 363.358215)"><g><path d="M 1.6875 3.921875 L 1.6875 -9.6875 L 3.125 -9.6875 L 3.125 -8.25 L 3.3125 -8.203125 C 4.03125 -9.316406 5.085938 -9.875 6.484375 -9.875 C 7.285156 -9.875 7.988281 -9.6875 8.59375 -9.3125 C 9.195312 -8.945312 9.664062 -8.390625 10 -7.640625 C 10.332031 -6.890625 10.5 -5.957031 10.5 -4.84375 C 10.5 -3.738281 10.320312 -2.8125 9.96875 -2.0625 C 9.625 -1.3125 9.140625 -0.75 8.515625 -0.375 C 7.890625 0 7.175781 0.1875 6.375 0.1875 C 5.71875 0.1875 5.132812 0.0703125 4.625 -0.15625 C 4.113281 -0.382812 3.675781 -0.757812 3.3125 -1.28125 L 3.125 -1.25 L 3.125 3.921875 Z M 6.0625 -1.09375 C 8.019531 -1.09375 9 -2.34375 9 -4.84375 C 9 -7.34375 8.019531 -8.59375 6.0625 -8.59375 C 5.476562 -8.59375 4.96875 -8.460938 4.53125 -8.203125 C 4.09375 -7.941406 3.75 -7.53125 3.5 -6.96875 C 3.25 -6.40625 3.125 -5.695312 3.125 -4.84375 C 3.125 -3.988281 3.25 -3.28125 3.5 -2.71875 C 3.75 -2.164062 4.09375 -1.753906 4.53125 -1.484375 C 4.96875 -1.222656 5.476562 -1.09375 6.0625 -1.09375 Z M 6.0625 -1.09375 "/></g></g><g transform="translate(277.743372, 363.358215)"><g><path d="M 4.796875 0.1875 C 3.691406 0.1875 2.867188 -0.101562 2.328125 -0.6875 C 1.796875 -1.269531 1.53125 -2.117188 1.53125 -3.234375 L 1.53125 -9.6875 L 2.96875 -9.6875 L 2.96875 -3.265625 C 2.96875 -1.796875 3.660156 -1.0625 5.046875 -1.0625 C 5.921875 -1.0625 6.613281 -1.347656 7.125 -1.921875 C 7.632812 -2.492188 7.890625 -3.425781 7.890625 -4.71875 L 7.890625 -9.6875 L 9.328125 -9.6875 L 9.328125 0 L 7.96875 0 L 7.96875 -1.515625 L 7.78125 -1.5625 C 7.445312 -0.96875 7.046875 -0.523438 6.578125 -0.234375 C 6.117188 0.046875 5.523438 0.1875 4.796875 0.1875 Z M 4.796875 0.1875 "/></g></g><g transform="translate(288.756066, 363.358215)"><g><path d="M 1.6875 0 L 1.6875 -9.6875 L 3.046875 -9.6875 L 3.046875 -8.171875 L 3.234375 -8.125 C 3.554688 -8.695312 3.96875 -9.128906 4.46875 -9.421875 C 4.96875 -9.722656 5.578125 -9.875 6.296875 -9.875 C 7.460938 -9.875 8.304688 -9.578125 8.828125 -8.984375 C 9.359375 -8.390625 9.625 -7.472656 9.625 -6.234375 L 9.625 0 L 8.1875 0 L 8.1875 -6.203125 C 8.1875 -6.785156 8.113281 -7.253906 7.96875 -7.609375 C 7.820312 -7.960938 7.585938 -8.21875 7.265625 -8.375 C 6.953125 -8.539062 6.539062 -8.625 6.03125 -8.625 C 5.164062 -8.625 4.460938 -8.335938 3.921875 -7.765625 C 3.390625 -7.191406 3.125 -6.257812 3.125 -4.96875 L 3.125 0 Z M 1.6875 0 "/></g></g><g transform="translate(299.918175, 363.358215)"><g><path d="M 9.234375 -4.515625 L 2.578125 -4.515625 C 2.617188 -3.335938 2.898438 -2.472656 3.421875 -1.921875 C 3.941406 -1.367188 4.660156 -1.09375 5.578125 -1.09375 C 6.273438 -1.09375 6.832031 -1.21875 7.25 -1.46875 C 7.675781 -1.71875 8.007812 -2.101562 8.25 -2.625 L 8.421875 -2.625 L 9.359375 -2.078125 C 9.078125 -1.367188 8.625 -0.8125 8 -0.40625 C 7.382812 -0.0078125 6.578125 0.1875 5.578125 0.1875 C 4.640625 0.1875 3.832031 0.00390625 3.15625 -0.359375 C 2.488281 -0.734375 1.972656 -1.296875 1.609375 -2.046875 C 1.242188 -2.796875 1.0625 -3.726562 1.0625 -4.84375 C 1.0625 -5.945312 1.253906 -6.875 1.640625 -7.625 C 2.023438 -8.382812 2.546875 -8.945312 3.203125 -9.3125 C 3.867188 -9.6875 4.632812 -9.875 5.5 -9.875 C 6.738281 -9.875 7.707031 -9.523438 8.40625 -8.828125 C 9.101562 -8.128906 9.453125 -7.09375 9.453125 -5.71875 C 9.453125 -5.175781 9.441406 -4.8125 9.421875 -4.625 Z M 8.046875 -5.71875 C 8.015625 -6.75 7.78125 -7.5 7.34375 -7.96875 C 6.914062 -8.4375 6.300781 -8.671875 5.5 -8.671875 C 4.644531 -8.671875 3.972656 -8.429688 3.484375 -7.953125 C 3.003906 -7.484375 2.710938 -6.738281 2.609375 -5.71875 Z M 8.046875 -5.71875 "/></g></g></g></svg>