<svg xmlns="http://www.w3.org/2000/svg" xmlns:xlink="http://www.w3.org/1999/xlink" width="1080" zoomAndPan="magnify" viewBox="0 0 810 809.999993" height="1080" preserveAspectRatio="xMidYMid meet" version="1.0"><rect x="-81" width="972" fill="#ffffff" y="-80.999999" height="971.999992" fill-opacity="1"/><rect x="-81" width="972" fill="#ffffff" y="-80.999999" height="971.999992" fill-opacity="1"/><path fill="#000000" d="M 405 275.398438 C 333.425781 275.398438 275.398438 333.425781 275.398438 405 C 275.398438 425.542969 280.167969 444.929688 288.644531 462.148438 C 290.976562 466.890625 291.820312 472.425781 290.695312 477.921875 L 279.914062 530.441406 L 334.554688 520.21875 C 339.796875 519.238281 345.042969 520.039062 349.578125 522.1875 C 366.359375 530.144531 385.136719 534.601562 405 534.601562 C 476.578125 534.601562 534.601562 476.578125 534.601562 405 C 534.601562 333.425781 476.578125 275.398438 405 275.398438 Z M 243 405 C 243 315.53125 315.53125 243 405 243 C 494.46875 243 567 315.53125 567 405 C 567 494.46875 494.46875 567 405 567 C 381.136719 567 358.441406 561.832031 338.003906 552.535156 L 274.027344 564.507812 C 257.058594 567.683594 242.285156 552.648438 245.753906 535.734375 L 258.414062 474.046875 C 248.523438 453.082031 243 429.664062 243 405 Z M 243 405 " fill-opacity="1" fill-rule="evenodd"/><path fill="#000000" d="M 421.199219 372.601562 L 421.199219 486 L 388.800781 486 L 388.800781 388.800781 L 372.601562 388.800781 L 372.601562 356.398438 L 405 356.398438 C 413.945312 356.398438 421.199219 363.652344 421.199219 372.601562 Z M 421.199219 372.601562 " fill-opacity="1" fill-rule="evenodd"/><path fill="#000000" d="M 372.601562 469.800781 L 437.398438 469.800781 L 437.398438 502.199219 L 372.601562 502.199219 Z M 372.601562 469.800781 " fill-opacity="1" fill-rule="evenodd"/><path fill="#000000" d="M 388.800781 307.800781 L 421.199219 307.800781 L 421.199219 340.199219 L 388.800781 340.199219 Z M 388.800781 307.800781 " fill-opacity="1" fill-rule="evenodd"/></svg>