<svg xmlns="http://www.w3.org/2000/svg" xmlns:xlink="http://www.w3.org/1999/xlink" width="1080" zoomAndPan="magnify" viewBox="0 0 810 809.999993" height="1080" preserveAspectRatio="xMidYMid meet" version="1.0"><defs><clipPath id="c05f0f4a06"><path d="M 250.289062 243 L 560 243 L 560 567 L 250.289062 567 Z M 250.289062 243 " clip-rule="nonzero"/></clipPath></defs><rect x="-81" width="972" fill="#ffffff" y="-80.999999" height="971.999992" fill-opacity="1"/><rect x="-81" width="972" fill="#ffffff" y="-80.999999" height="971.999992" fill-opacity="1"/><g clip-path="url(#c05f0f4a06)"><path fill="#000000" d="M 405.164062 243 C 403.308594 243 401.679688 243.503906 400.046875 243.964844 C 399.347656 243.945312 398.671875 244.066406 398.019531 244.332031 L 397.691406 244.480469 C 397.453125 244.574219 397.21875 244.675781 397.007812 244.773438 L 258.511719 303.203125 C 258.0625 303.394531 257.644531 303.648438 257.265625 303.960938 C 256.890625 304.273438 256.566406 304.632812 256.292969 305.042969 C 256.023438 305.453125 255.816406 305.890625 255.675781 306.359375 C 255.53125 306.828125 255.460938 307.308594 255.460938 307.800781 L 255.460938 332.722656 C 255.460938 333.050781 255.496094 333.375 255.558594 333.695312 C 255.621094 334.015625 255.71875 334.328125 255.84375 334.628906 C 255.96875 334.933594 256.121094 335.21875 256.304688 335.492188 C 256.484375 335.765625 256.691406 336.015625 256.925781 336.246094 C 257.15625 336.480469 257.40625 336.6875 257.679688 336.867188 C 257.953125 337.050781 258.238281 337.203125 258.542969 337.328125 C 258.84375 337.453125 259.15625 337.546875 259.480469 337.613281 C 259.800781 337.675781 260.125 337.707031 260.453125 337.707031 L 275.421875 337.707031 L 275.421875 347.675781 C 275.421875 353.125 279.949219 357.644531 285.402344 357.644531 L 285.402344 487.246094 L 275.421875 487.246094 C 275.09375 487.246094 274.769531 487.277344 274.449219 487.34375 C 274.128906 487.40625 273.816406 487.5 273.511719 487.625 C 273.210938 487.75 272.921875 487.90625 272.652344 488.085938 C 272.378906 488.269531 272.125 488.476562 271.894531 488.707031 C 271.664062 488.9375 271.457031 489.1875 271.273438 489.460938 C 271.089844 489.734375 270.9375 490.019531 270.8125 490.324219 C 270.6875 490.625 270.59375 490.9375 270.527344 491.257812 C 270.464844 491.578125 270.433594 491.902344 270.433594 492.230469 L 270.433594 512.167969 L 255.460938 512.167969 C 255.132812 512.167969 254.808594 512.203125 254.488281 512.265625 C 254.167969 512.328125 253.855469 512.421875 253.554688 512.546875 C 253.25 512.675781 252.960938 512.828125 252.691406 513.007812 C 252.417969 513.191406 252.164062 513.398438 251.933594 513.628906 C 251.703125 513.859375 251.496094 514.113281 251.3125 514.382812 C 251.132812 514.65625 250.976562 514.945312 250.851562 515.246094 C 250.726562 515.546875 250.632812 515.859375 250.566406 516.179688 C 250.503906 516.503906 250.472656 516.828125 250.472656 517.152344 L 250.472656 542.078125 C 250.472656 542.402344 250.503906 542.726562 250.566406 543.050781 C 250.632812 543.371094 250.726562 543.683594 250.851562 543.984375 C 250.976562 544.285156 251.132812 544.574219 251.3125 544.847656 C 251.496094 545.117188 251.703125 545.371094 251.933594 545.601562 C 252.164062 545.832031 252.417969 546.039062 252.691406 546.222656 C 252.960938 546.402344 253.25 546.558594 253.554688 546.683594 C 253.855469 546.808594 254.167969 546.902344 254.488281 546.964844 C 254.808594 547.03125 255.132812 547.0625 255.460938 547.0625 L 305.605469 547.0625 C 305.511719 552.050781 305.363281 557.042969 305.363281 562.015625 C 305.363281 562.34375 305.394531 562.667969 305.460938 562.988281 C 305.523438 563.308594 305.617188 563.621094 305.742188 563.921875 C 305.867188 564.226562 306.023438 564.511719 306.203125 564.785156 C 306.386719 565.054688 306.59375 565.308594 306.824219 565.539062 C 307.054688 565.769531 307.308594 565.976562 307.582031 566.160156 C 307.851562 566.339844 308.140625 566.496094 308.445312 566.621094 C 308.746094 566.746094 309.058594 566.839844 309.378906 566.902344 C 309.699219 566.96875 310.027344 567 310.351562 567 L 499.976562 567 C 500.304688 567 500.628906 566.96875 500.949219 566.902344 C 501.273438 566.839844 501.582031 566.746094 501.886719 566.621094 C 502.1875 566.496094 502.476562 566.339844 502.75 566.160156 C 503.019531 565.976562 503.273438 565.769531 503.503906 565.539062 C 503.738281 565.308594 503.945312 565.058594 504.125 564.785156 C 504.308594 564.511719 504.460938 564.226562 504.585938 563.921875 C 504.710938 563.621094 504.808594 563.308594 504.871094 562.988281 C 504.933594 562.667969 504.964844 562.34375 504.96875 562.015625 C 504.96875 557.042969 504.816406 552.050781 504.722656 547.0625 L 554.867188 547.0625 C 555.195312 547.0625 555.519531 547.03125 555.839844 546.964844 C 556.164062 546.902344 556.472656 546.808594 556.777344 546.683594 C 557.078125 546.558594 557.367188 546.402344 557.640625 546.222656 C 557.914062 546.039062 558.164062 545.832031 558.394531 545.601562 C 558.628906 545.371094 558.835938 545.117188 559.015625 544.847656 C 559.199219 544.574219 559.351562 544.285156 559.476562 543.984375 C 559.601562 543.683594 559.699219 543.371094 559.761719 543.050781 C 559.824219 542.726562 559.859375 542.402344 559.859375 542.078125 L 559.859375 517.152344 C 559.859375 516.828125 559.824219 516.503906 559.761719 516.179688 C 559.699219 515.859375 559.601562 515.546875 559.476562 515.246094 C 559.351562 514.945312 559.199219 514.65625 559.015625 514.382812 C 558.835938 514.113281 558.628906 513.859375 558.394531 513.628906 C 558.164062 513.398438 557.914062 513.191406 557.640625 513.007812 C 557.367188 512.828125 557.078125 512.675781 556.777344 512.546875 C 556.472656 512.421875 556.164062 512.328125 555.839844 512.265625 C 555.519531 512.203125 555.195312 512.167969 554.867188 512.167969 L 539.898438 512.167969 L 539.898438 492.230469 C 539.898438 491.902344 539.867188 491.578125 539.800781 491.257812 C 539.738281 490.9375 539.644531 490.625 539.515625 490.324219 C 539.390625 490.019531 539.238281 489.734375 539.054688 489.460938 C 538.875 489.191406 538.667969 488.9375 538.4375 488.707031 C 538.203125 488.476562 537.953125 488.269531 537.679688 488.085938 C 537.40625 487.90625 537.121094 487.75 536.816406 487.625 C 536.515625 487.5 536.203125 487.40625 535.878906 487.34375 C 535.558594 487.277344 535.234375 487.246094 534.90625 487.246094 L 524.925781 487.246094 L 524.925781 357.644531 C 530.382812 357.644531 534.90625 353.125 534.90625 347.675781 L 534.90625 337.707031 L 549.878906 337.707031 C 550.207031 337.707031 550.53125 337.675781 550.851562 337.613281 C 551.171875 337.546875 551.484375 337.453125 551.789062 337.328125 C 552.089844 337.203125 552.378906 337.050781 552.648438 336.867188 C 552.921875 336.6875 553.175781 336.480469 553.40625 336.246094 C 553.636719 336.015625 553.84375 335.765625 554.027344 335.492188 C 554.207031 335.21875 554.363281 334.933594 554.488281 334.628906 C 554.613281 334.328125 554.707031 334.015625 554.773438 333.695312 C 554.835938 333.375 554.867188 333.050781 554.867188 332.722656 L 554.867188 307.800781 C 554.867188 307.308594 554.796875 306.828125 554.65625 306.359375 C 554.515625 305.890625 554.308594 305.453125 554.035156 305.042969 C 553.765625 304.632812 553.441406 304.273438 553.0625 303.960938 C 552.683594 303.648438 552.269531 303.394531 551.816406 303.203125 L 413.324219 244.773438 C 413.003906 244.625 412.777344 244.535156 412.640625 244.480469 L 412.308594 244.332031 C 411.660156 244.066406 410.984375 243.9375 410.28125 243.953125 C 408.652344 243.496094 407.023438 243 405.164062 243 Z M 405.164062 252.96875 C 406.320312 252.96875 407.457031 253.203125 408.625 253.640625 C 408.726562 253.675781 408.824219 253.710938 408.925781 253.738281 C 409.027344 253.78125 409.148438 253.828125 409.171875 253.835938 C 409.214844 253.855469 409.261719 253.875 409.308594 253.894531 L 544.886719 311.109375 L 544.886719 327.738281 L 265.441406 327.738281 L 265.441406 311.109375 L 401.023438 253.894531 C 401.070312 253.875 401.113281 253.855469 401.160156 253.835938 C 401.234375 253.800781 401.292969 253.773438 401.355469 253.75 C 401.472656 253.714844 401.589844 253.679688 401.703125 253.640625 C 402.875 253.203125 404.007812 252.96875 405.164062 252.96875 Z M 335.304688 302.816406 C 334.976562 302.816406 334.652344 302.847656 334.332031 302.910156 C 334.007812 302.976562 333.695312 303.070312 333.394531 303.195312 C 333.089844 303.320312 332.804688 303.472656 332.53125 303.65625 C 332.257812 303.835938 332.007812 304.042969 331.773438 304.273438 C 331.542969 304.507812 331.335938 304.757812 331.15625 305.03125 C 330.972656 305.304688 330.820312 305.589844 330.695312 305.890625 C 330.566406 306.195312 330.472656 306.507812 330.410156 306.828125 C 330.34375 307.148438 330.3125 307.472656 330.3125 307.800781 C 330.3125 308.128906 330.34375 308.453125 330.410156 308.773438 C 330.472656 309.09375 330.566406 309.40625 330.695312 309.707031 C 330.820312 310.011719 330.972656 310.296875 331.15625 310.570312 C 331.335938 310.839844 331.542969 311.09375 331.773438 311.324219 C 332.007812 311.554688 332.257812 311.761719 332.53125 311.945312 C 332.804688 312.125 333.089844 312.28125 333.394531 312.40625 C 333.695312 312.53125 334.007812 312.625 334.332031 312.6875 C 334.652344 312.753906 334.976562 312.785156 335.304688 312.785156 C 335.632812 312.785156 335.957031 312.753906 336.277344 312.6875 C 336.597656 312.625 336.910156 312.53125 337.214844 312.40625 C 337.515625 312.28125 337.804688 312.125 338.074219 311.945312 C 338.347656 311.761719 338.601562 311.554688 338.832031 311.324219 C 339.0625 311.09375 339.269531 310.839844 339.453125 310.570312 C 339.636719 310.296875 339.789062 310.011719 339.914062 309.707031 C 340.039062 309.40625 340.132812 309.09375 340.199219 308.773438 C 340.261719 308.453125 340.292969 308.128906 340.292969 307.800781 C 340.292969 307.472656 340.261719 307.148438 340.199219 306.828125 C 340.132812 306.507812 340.039062 306.195312 339.914062 305.890625 C 339.789062 305.589844 339.636719 305.304688 339.453125 305.03125 C 339.269531 304.757812 339.0625 304.507812 338.832031 304.273438 C 338.601562 304.042969 338.347656 303.835938 338.074219 303.65625 C 337.804688 303.472656 337.515625 303.320312 337.214844 303.195312 C 336.910156 303.070312 336.597656 302.976562 336.277344 302.910156 C 335.957031 302.847656 335.632812 302.816406 335.304688 302.816406 Z M 355.265625 302.816406 C 354.9375 302.816406 354.613281 302.847656 354.289062 302.910156 C 353.96875 302.976562 353.65625 303.070312 353.355469 303.195312 C 353.050781 303.320312 352.765625 303.472656 352.492188 303.65625 C 352.21875 303.835938 351.96875 304.042969 351.734375 304.273438 C 351.503906 304.507812 351.296875 304.757812 351.113281 305.03125 C 350.933594 305.304688 350.777344 305.589844 350.652344 305.890625 C 350.527344 306.195312 350.433594 306.507812 350.371094 306.828125 C 350.304688 307.148438 350.273438 307.472656 350.273438 307.800781 C 350.273438 308.128906 350.304688 308.453125 350.371094 308.773438 C 350.433594 309.09375 350.527344 309.40625 350.652344 309.707031 C 350.777344 310.011719 350.933594 310.296875 351.113281 310.570312 C 351.296875 310.839844 351.503906 311.09375 351.734375 311.324219 C 351.96875 311.554688 352.21875 311.761719 352.492188 311.945312 C 352.765625 312.125 353.050781 312.28125 353.355469 312.40625 C 353.65625 312.53125 353.96875 312.625 354.289062 312.6875 C 354.613281 312.753906 354.9375 312.785156 355.265625 312.785156 C 355.589844 312.785156 355.917969 312.753906 356.238281 312.6875 C 356.558594 312.625 356.871094 312.53125 357.171875 312.40625 C 357.476562 312.28125 357.765625 312.125 358.035156 311.945312 C 358.308594 311.761719 358.5625 311.554688 358.792969 311.324219 C 359.023438 311.09375 359.230469 310.839844 359.414062 310.570312 C 359.59375 310.296875 359.75 310.011719 359.875 309.707031 C 360 309.40625 360.09375 309.09375 360.160156 308.773438 C 360.222656 308.453125 360.253906 308.128906 360.253906 307.800781 C 360.253906 307.472656 360.222656 307.148438 360.160156 306.828125 C 360.09375 306.507812 360 306.195312 359.875 305.890625 C 359.75 305.589844 359.59375 305.304688 359.414062 305.03125 C 359.230469 304.757812 359.023438 304.507812 358.792969 304.273438 C 358.5625 304.042969 358.308594 303.835938 358.035156 303.65625 C 357.765625 303.472656 357.476562 303.320312 357.171875 303.195312 C 356.871094 303.070312 356.558594 302.976562 356.238281 302.910156 C 355.917969 302.847656 355.589844 302.816406 355.265625 302.816406 Z M 375.222656 302.816406 C 374.898438 302.816406 374.574219 302.847656 374.25 302.910156 C 373.929688 302.976562 373.617188 303.070312 373.316406 303.195312 C 373.011719 303.320312 372.722656 303.472656 372.453125 303.65625 C 372.179688 303.835938 371.925781 304.042969 371.695312 304.273438 C 371.464844 304.507812 371.257812 304.757812 371.074219 305.03125 C 370.894531 305.304688 370.738281 305.589844 370.613281 305.890625 C 370.488281 306.195312 370.394531 306.507812 370.332031 306.828125 C 370.265625 307.148438 370.234375 307.472656 370.234375 307.800781 C 370.234375 308.128906 370.265625 308.453125 370.332031 308.773438 C 370.394531 309.09375 370.488281 309.40625 370.613281 309.707031 C 370.738281 310.011719 370.894531 310.296875 371.074219 310.570312 C 371.257812 310.839844 371.464844 311.09375 371.695312 311.324219 C 371.925781 311.554688 372.179688 311.761719 372.453125 311.945312 C 372.722656 312.125 373.011719 312.28125 373.316406 312.40625 C 373.617188 312.53125 373.929688 312.625 374.25 312.6875 C 374.574219 312.753906 374.898438 312.785156 375.222656 312.785156 C 375.550781 312.785156 375.875 312.753906 376.199219 312.6875 C 376.519531 312.625 376.832031 312.53125 377.132812 312.40625 C 377.4375 312.28125 377.722656 312.125 377.996094 311.945312 C 378.269531 311.761719 378.519531 311.554688 378.753906 311.324219 C 378.984375 311.09375 379.191406 310.839844 379.375 310.570312 C 379.554688 310.296875 379.710938 310.011719 379.835938 309.707031 C 379.960938 309.40625 380.054688 309.09375 380.117188 308.773438 C 380.183594 308.453125 380.214844 308.128906 380.214844 307.800781 C 380.214844 307.472656 380.183594 307.148438 380.117188 306.828125 C 380.054688 306.507812 379.960938 306.195312 379.835938 305.890625 C 379.710938 305.589844 379.554688 305.304688 379.375 305.03125 C 379.191406 304.757812 378.984375 304.507812 378.753906 304.273438 C 378.519531 304.042969 378.269531 303.835938 377.996094 303.65625 C 377.722656 303.472656 377.4375 303.320312 377.132812 303.195312 C 376.832031 303.070312 376.519531 302.976562 376.199219 302.910156 C 375.875 302.847656 375.550781 302.816406 375.222656 302.816406 Z M 395.183594 302.816406 C 394.855469 302.816406 394.53125 302.847656 394.210938 302.910156 C 393.890625 302.976562 393.578125 303.070312 393.273438 303.195312 C 392.972656 303.320312 392.683594 303.472656 392.414062 303.65625 C 392.140625 303.835938 391.886719 304.042969 391.65625 304.273438 C 391.425781 304.507812 391.21875 304.757812 391.035156 305.03125 C 390.855469 305.304688 390.699219 305.589844 390.574219 305.890625 C 390.449219 306.195312 390.355469 306.507812 390.289062 306.828125 C 390.226562 307.148438 390.195312 307.472656 390.195312 307.800781 C 390.195312 308.128906 390.226562 308.453125 390.289062 308.773438 C 390.355469 309.09375 390.449219 309.40625 390.574219 309.707031 C 390.699219 310.011719 390.855469 310.296875 391.035156 310.570312 C 391.21875 310.839844 391.425781 311.09375 391.65625 311.324219 C 391.886719 311.554688 392.140625 311.761719 392.414062 311.945312 C 392.683594 312.125 392.972656 312.28125 393.273438 312.40625 C 393.578125 312.53125 393.890625 312.625 394.210938 312.6875 C 394.53125 312.753906 394.855469 312.785156 395.183594 312.785156 C 395.511719 312.785156 395.835938 312.753906 396.160156 312.6875 C 396.480469 312.625 396.792969 312.53125 397.09375 312.40625 C 397.398438 312.28125 397.683594 312.125 397.957031 311.945312 C 398.230469 311.761719 398.480469 311.554688 398.714844 311.324219 C 398.945312 311.09375 399.152344 310.839844 399.332031 310.570312 C 399.515625 310.296875 399.667969 310.011719 399.796875 309.707031 C 399.921875 309.40625 400.015625 309.09375 400.078125 308.773438 C 400.144531 308.453125 400.175781 308.128906 400.175781 307.800781 C 400.175781 307.472656 400.144531 307.148438 400.078125 306.828125 C 400.015625 306.507812 399.921875 306.195312 399.796875 305.890625 C 399.667969 305.589844 399.515625 305.304688 399.332031 305.03125 C 399.152344 304.757812 398.945312 304.507812 398.714844 304.273438 C 398.480469 304.042969 398.230469 303.835938 397.957031 303.65625 C 397.683594 303.472656 397.398438 303.320312 397.09375 303.195312 C 396.792969 303.070312 396.480469 302.976562 396.160156 302.910156 C 395.835938 302.847656 395.511719 302.816406 395.183594 302.816406 Z M 415.144531 302.816406 C 414.816406 302.816406 414.492188 302.847656 414.171875 302.910156 C 413.851562 302.976562 413.539062 303.070312 413.234375 303.195312 C 412.933594 303.320312 412.644531 303.472656 412.371094 303.65625 C 412.101562 303.835938 411.847656 304.042969 411.617188 304.273438 C 411.386719 304.507812 411.179688 304.757812 410.996094 305.03125 C 410.8125 305.304688 410.660156 305.589844 410.535156 305.890625 C 410.410156 306.195312 410.316406 306.507812 410.25 306.828125 C 410.1875 307.148438 410.15625 307.472656 410.15625 307.800781 C 410.15625 308.128906 410.1875 308.453125 410.25 308.773438 C 410.316406 309.09375 410.410156 309.40625 410.535156 309.707031 C 410.660156 310.011719 410.8125 310.296875 410.996094 310.570312 C 411.179688 310.839844 411.386719 311.09375 411.617188 311.324219 C 411.847656 311.554688 412.101562 311.761719 412.371094 311.945312 C 412.644531 312.125 412.933594 312.28125 413.234375 312.40625 C 413.539062 312.53125 413.851562 312.625 414.171875 312.6875 C 414.492188 312.753906 414.816406 312.785156 415.144531 312.785156 C 415.472656 312.785156 415.796875 312.753906 416.117188 312.6875 C 416.441406 312.625 416.753906 312.53125 417.054688 312.40625 C 417.359375 312.28125 417.644531 312.125 417.917969 311.945312 C 418.191406 311.761719 418.441406 311.554688 418.671875 311.324219 C 418.90625 311.09375 419.113281 310.839844 419.292969 310.570312 C 419.476562 310.296875 419.628906 310.011719 419.753906 309.707031 C 419.878906 309.40625 419.976562 309.09375 420.039062 308.773438 C 420.101562 308.453125 420.136719 308.128906 420.136719 307.800781 C 420.136719 307.472656 420.101562 307.148438 420.039062 306.828125 C 419.976562 306.507812 419.878906 306.195312 419.753906 305.890625 C 419.628906 305.589844 419.476562 305.304688 419.292969 305.03125 C 419.113281 304.757812 418.90625 304.507812 418.671875 304.273438 C 418.441406 304.042969 418.191406 303.835938 417.917969 303.65625 C 417.644531 303.472656 417.359375 303.320312 417.054688 303.195312 C 416.753906 303.070312 416.441406 302.976562 416.117188 302.910156 C 415.796875 302.847656 415.472656 302.816406 415.144531 302.816406 Z M 435.105469 302.816406 C 434.777344 302.816406 434.453125 302.847656 434.132812 302.910156 C 433.8125 302.976562 433.5 303.070312 433.195312 303.195312 C 432.894531 303.320312 432.605469 303.472656 432.332031 303.65625 C 432.0625 303.835938 431.808594 304.042969 431.578125 304.273438 C 431.34375 304.507812 431.136719 304.757812 430.957031 305.03125 C 430.773438 305.304688 430.621094 305.589844 430.496094 305.890625 C 430.371094 306.195312 430.273438 306.507812 430.210938 306.828125 C 430.148438 307.148438 430.117188 307.472656 430.117188 307.800781 C 430.117188 308.128906 430.148438 308.453125 430.210938 308.773438 C 430.273438 309.09375 430.371094 309.40625 430.496094 309.707031 C 430.621094 310.011719 430.773438 310.296875 430.957031 310.570312 C 431.136719 310.839844 431.34375 311.09375 431.578125 311.324219 C 431.808594 311.554688 432.0625 311.761719 432.332031 311.945312 C 432.605469 312.125 432.894531 312.28125 433.195312 312.40625 C 433.5 312.53125 433.8125 312.625 434.132812 312.6875 C 434.453125 312.753906 434.777344 312.785156 435.105469 312.785156 C 435.433594 312.785156 435.757812 312.753906 436.078125 312.6875 C 436.402344 312.625 436.710938 312.53125 437.015625 312.40625 C 437.316406 312.28125 437.605469 312.125 437.878906 311.945312 C 438.148438 311.761719 438.402344 311.554688 438.632812 311.324219 C 438.867188 311.09375 439.074219 310.839844 439.253906 310.570312 C 439.4375 310.296875 439.589844 310.011719 439.714844 309.707031 C 439.839844 309.40625 439.9375 309.09375 440 308.773438 C 440.0625 308.453125 440.09375 308.128906 440.09375 307.800781 C 440.09375 307.472656 440.0625 307.148438 440 306.828125 C 439.9375 306.507812 439.839844 306.195312 439.714844 305.890625 C 439.589844 305.589844 439.4375 305.304688 439.253906 305.03125 C 439.074219 304.757812 438.867188 304.507812 438.632812 304.273438 C 438.402344 304.042969 438.148438 303.835938 437.878906 303.65625 C 437.605469 303.472656 437.316406 303.320312 437.015625 303.195312 C 436.710938 303.070312 436.402344 302.976562 436.078125 302.910156 C 435.757812 302.847656 435.433594 302.816406 435.105469 302.816406 Z M 455.066406 302.816406 C 454.738281 302.816406 454.414062 302.847656 454.09375 302.910156 C 453.769531 302.976562 453.460938 303.070312 453.15625 303.195312 C 452.855469 303.320312 452.566406 303.472656 452.292969 303.65625 C 452.019531 303.835938 451.769531 304.042969 451.539062 304.273438 C 451.304688 304.507812 451.097656 304.757812 450.917969 305.03125 C 450.734375 305.304688 450.582031 305.589844 450.457031 305.890625 C 450.332031 306.195312 450.234375 306.507812 450.171875 306.828125 C 450.109375 307.148438 450.074219 307.472656 450.074219 307.800781 C 450.074219 308.128906 450.109375 308.453125 450.171875 308.773438 C 450.234375 309.09375 450.332031 309.40625 450.457031 309.707031 C 450.582031 310.011719 450.734375 310.296875 450.917969 310.570312 C 451.097656 310.839844 451.304688 311.09375 451.539062 311.324219 C 451.769531 311.554688 452.019531 311.761719 452.292969 311.945312 C 452.566406 312.125 452.851562 312.28125 453.15625 312.40625 C 453.457031 312.53125 453.769531 312.625 454.09375 312.6875 C 454.414062 312.753906 454.738281 312.785156 455.066406 312.785156 C 455.394531 312.785156 455.71875 312.753906 456.039062 312.6875 C 456.359375 312.625 456.671875 312.53125 456.976562 312.40625 C 457.277344 312.28125 457.566406 312.125 457.839844 311.945312 C 458.109375 311.761719 458.363281 311.554688 458.59375 311.324219 C 458.824219 311.09375 459.03125 310.839844 459.214844 310.570312 C 459.398438 310.296875 459.550781 310.011719 459.675781 309.707031 C 459.800781 309.40625 459.894531 309.09375 459.960938 308.773438 C 460.023438 308.453125 460.054688 308.128906 460.054688 307.800781 C 460.054688 307.472656 460.023438 307.148438 459.960938 306.828125 C 459.894531 306.507812 459.800781 306.195312 459.675781 305.890625 C 459.550781 305.589844 459.398438 305.304688 459.214844 305.03125 C 459.03125 304.757812 458.824219 304.507812 458.59375 304.273438 C 458.363281 304.042969 458.109375 303.835938 457.839844 303.65625 C 457.566406 303.472656 457.277344 303.320312 456.976562 303.195312 C 456.671875 303.070312 456.359375 302.976562 456.039062 302.910156 C 455.71875 302.847656 455.394531 302.816406 455.066406 302.816406 Z M 475.027344 302.816406 C 474.699219 302.816406 474.375 302.847656 474.050781 302.910156 C 473.730469 302.976562 473.417969 303.070312 473.117188 303.195312 C 472.8125 303.320312 472.527344 303.472656 472.253906 303.65625 C 471.980469 303.835938 471.730469 304.042969 471.496094 304.273438 C 471.265625 304.507812 471.058594 304.757812 470.878906 305.03125 C 470.695312 305.304688 470.542969 305.589844 470.417969 305.890625 C 470.289062 306.195312 470.195312 306.507812 470.132812 306.828125 C 470.066406 307.148438 470.035156 307.472656 470.035156 307.800781 C 470.035156 308.128906 470.066406 308.453125 470.132812 308.773438 C 470.195312 309.09375 470.289062 309.40625 470.414062 309.707031 C 470.542969 310.011719 470.695312 310.296875 470.878906 310.570312 C 471.058594 310.839844 471.265625 311.09375 471.496094 311.324219 C 471.730469 311.554688 471.980469 311.761719 472.253906 311.945312 C 472.527344 312.125 472.8125 312.28125 473.117188 312.40625 C 473.417969 312.53125 473.730469 312.625 474.050781 312.6875 C 474.375 312.753906 474.699219 312.785156 475.027344 312.785156 C 475.355469 312.785156 475.679688 312.753906 476 312.6875 C 476.320312 312.625 476.632812 312.53125 476.9375 312.40625 C 477.238281 312.28125 477.527344 312.125 477.796875 311.945312 C 478.070312 311.761719 478.324219 311.554688 478.554688 311.324219 C 478.785156 311.09375 478.992188 310.839844 479.175781 310.570312 C 479.355469 310.296875 479.511719 310.011719 479.636719 309.707031 C 479.761719 309.40625 479.855469 309.09375 479.921875 308.773438 C 479.984375 308.453125 480.015625 308.128906 480.015625 307.800781 C 480.015625 307.472656 479.984375 307.148438 479.921875 306.828125 C 479.855469 306.507812 479.761719 306.195312 479.636719 305.890625 C 479.511719 305.589844 479.355469 305.304688 479.175781 305.03125 C 478.992188 304.757812 478.785156 304.507812 478.554688 304.273438 C 478.324219 304.042969 478.070312 303.835938 477.796875 303.65625 C 477.527344 303.472656 477.238281 303.320312 476.9375 303.195312 C 476.632812 303.070312 476.320312 302.976562 476 302.910156 C 475.679688 302.847656 475.355469 302.816406 475.027344 302.816406 Z M 285.402344 337.707031 L 325.324219 337.707031 L 325.324219 347.675781 L 315.34375 347.675781 L 315.34375 413.390625 C 309.539062 415.449219 305.363281 420.925781 305.363281 427.429688 C 305.363281 432.878906 308.304688 437.597656 312.664062 440.214844 C 311.339844 452.5625 309.761719 468.648438 308.394531 487.246094 L 295.382812 487.246094 L 295.382812 347.675781 L 285.402344 347.675781 Z M 335.304688 337.707031 L 375.222656 337.707031 L 375.222656 347.675781 L 365.246094 347.675781 L 365.246094 412.476562 L 345.285156 412.476562 L 345.285156 347.675781 L 335.304688 347.675781 Z M 385.203125 337.707031 L 425.125 337.707031 L 425.125 347.675781 L 415.144531 347.675781 L 415.144531 412.476562 L 395.183594 412.476562 L 395.183594 347.675781 L 385.203125 347.675781 Z M 435.105469 337.707031 L 475.027344 337.707031 L 475.027344 347.675781 L 465.046875 347.675781 L 465.046875 412.476562 L 445.085938 412.476562 L 445.085938 347.675781 L 435.105469 347.675781 Z M 485.007812 337.707031 L 524.925781 337.707031 L 524.925781 347.675781 L 514.945312 347.675781 L 514.945312 487.246094 L 501.9375 487.246094 C 500.566406 468.648438 498.992188 452.5625 497.667969 440.214844 C 502.023438 437.597656 504.96875 432.878906 504.96875 427.429688 C 504.96875 420.925781 500.789062 415.449219 494.988281 413.390625 L 494.988281 347.675781 L 485.007812 347.675781 Z M 330.3125 356.246094 C 331.792969 357.117188 333.484375 357.644531 335.304688 357.644531 L 335.304688 412.476562 L 325.324219 412.476562 L 325.324219 357.644531 C 327.140625 357.644531 328.835938 357.117188 330.3125 356.246094 Z M 380.214844 356.246094 C 381.691406 357.117188 383.386719 357.644531 385.203125 357.644531 L 385.203125 412.476562 L 375.222656 412.476562 L 375.222656 357.644531 C 377.042969 357.644531 378.734375 357.117188 380.214844 356.246094 Z M 430.117188 356.246094 C 431.59375 357.117188 433.289062 357.644531 435.105469 357.644531 L 435.105469 412.476562 L 425.125 412.476562 L 425.125 357.644531 C 426.941406 357.644531 428.636719 357.117188 430.117188 356.246094 Z M 480.015625 356.246094 C 481.496094 357.117188 483.1875 357.644531 485.007812 357.644531 L 485.007812 412.476562 L 475.027344 412.476562 L 475.027344 357.644531 C 476.84375 357.644531 478.539062 357.117188 480.015625 356.246094 Z M 324.816406 422.445312 L 485.511719 422.445312 C 486.339844 428.800781 494.40625 492.457031 494.839844 557.03125 L 315.488281 557.03125 C 315.921875 492.457031 323.988281 428.800781 324.816406 422.445312 Z M 450.242188 452.304688 C 449.503906 452.289062 448.800781 452.425781 448.125 452.71875 C 447.449219 453.015625 446.871094 453.4375 446.382812 453.988281 L 399.699219 505.285156 L 373.429688 483.421875 C 373.179688 483.199219 372.910156 483.007812 372.621094 482.84375 C 372.332031 482.675781 372.03125 482.542969 371.714844 482.4375 C 371.398438 482.332031 371.078125 482.257812 370.746094 482.21875 C 370.414062 482.179688 370.085938 482.171875 369.753906 482.195312 C 369.421875 482.222656 369.09375 482.28125 368.773438 482.371094 C 368.453125 482.460938 368.144531 482.582031 367.851562 482.734375 C 367.554688 482.890625 367.277344 483.070312 367.015625 483.277344 C 366.757812 483.484375 366.519531 483.71875 366.308594 483.972656 C 366.09375 484.226562 365.90625 484.5 365.75 484.792969 C 365.589844 485.085938 365.464844 485.390625 365.367188 485.710938 C 365.269531 486.027344 365.203125 486.351562 365.171875 486.683594 C 365.140625 487.015625 365.140625 487.34375 365.175781 487.675781 C 365.207031 488.007812 365.273438 488.332031 365.375 488.648438 C 365.472656 488.964844 365.601562 489.269531 365.761719 489.5625 C 365.921875 489.855469 366.109375 490.125 366.324219 490.382812 C 366.539062 490.636719 366.777344 490.867188 367.039062 491.070312 L 400.652344 519.050781 L 453.769531 460.6875 C 454.097656 460.335938 454.367188 459.945312 454.582031 459.515625 C 454.796875 459.085938 454.949219 458.636719 455.03125 458.160156 C 455.117188 457.6875 455.132812 457.214844 455.078125 456.738281 C 455.027344 456.257812 454.90625 455.800781 454.71875 455.355469 C 454.53125 454.914062 454.289062 454.507812 453.984375 454.132812 C 453.679688 453.761719 453.328125 453.441406 452.929688 453.171875 C 452.535156 452.898438 452.105469 452.691406 451.648438 452.542969 C 451.191406 452.398438 450.722656 452.316406 450.242188 452.304688 Z M 280.414062 497.214844 L 307.742188 497.214844 C 306.898438 510.007812 306.179688 523.34375 305.773438 537.09375 L 260.453125 537.09375 L 260.453125 522.136719 L 275.421875 522.136719 C 275.75 522.136719 276.074219 522.105469 276.394531 522.042969 C 276.71875 521.980469 277.03125 521.882812 277.332031 521.757812 C 277.636719 521.632812 277.921875 521.480469 278.195312 521.296875 C 278.46875 521.117188 278.71875 520.910156 278.949219 520.679688 C 279.183594 520.445312 279.390625 520.195312 279.570312 519.921875 C 279.753906 519.652344 279.90625 519.363281 280.03125 519.0625 C 280.15625 518.757812 280.253906 518.449219 280.316406 518.125 C 280.378906 517.804688 280.414062 517.480469 280.414062 517.152344 Z M 502.589844 497.214844 L 529.917969 497.214844 L 529.917969 517.152344 C 529.917969 517.480469 529.949219 517.804688 530.011719 518.125 C 530.078125 518.445312 530.171875 518.757812 530.296875 519.0625 C 530.421875 519.363281 530.578125 519.652344 530.757812 519.921875 C 530.941406 520.195312 531.148438 520.445312 531.378906 520.679688 C 531.609375 520.910156 531.863281 521.117188 532.136719 521.296875 C 532.40625 521.480469 532.695312 521.632812 532.996094 521.757812 C 533.300781 521.882812 533.613281 521.980469 533.933594 522.042969 C 534.253906 522.105469 534.578125 522.136719 534.90625 522.136719 L 549.878906 522.136719 L 549.878906 537.09375 L 504.558594 537.09375 C 504.148438 523.34375 503.433594 510.007812 502.589844 497.214844 Z M 295.382812 512.167969 C 295.054688 512.167969 294.730469 512.199219 294.410156 512.265625 C 294.089844 512.328125 293.777344 512.421875 293.472656 512.546875 C 293.171875 512.675781 292.882812 512.828125 292.609375 513.007812 C 292.339844 513.191406 292.085938 513.398438 291.855469 513.628906 C 291.621094 513.859375 291.414062 514.113281 291.234375 514.382812 C 291.050781 514.65625 290.898438 514.945312 290.773438 515.246094 C 290.648438 515.546875 290.550781 515.859375 290.488281 516.179688 C 290.425781 516.503906 290.394531 516.828125 290.394531 517.152344 C 290.394531 517.480469 290.425781 517.804688 290.488281 518.125 C 290.550781 518.449219 290.648438 518.757812 290.773438 519.0625 C 290.898438 519.363281 291.050781 519.652344 291.234375 519.921875 C 291.414062 520.195312 291.621094 520.445312 291.855469 520.679688 C 292.085938 520.910156 292.339844 521.117188 292.609375 521.296875 C 292.882812 521.480469 293.171875 521.632812 293.472656 521.757812 C 293.777344 521.882812 294.089844 521.980469 294.410156 522.042969 C 294.730469 522.105469 295.054688 522.136719 295.382812 522.136719 C 295.710938 522.136719 296.035156 522.105469 296.355469 522.042969 C 296.679688 521.980469 296.988281 521.882812 297.292969 521.757812 C 297.59375 521.632812 297.882812 521.480469 298.15625 521.296875 C 298.429688 521.117188 298.679688 520.910156 298.910156 520.679688 C 299.144531 520.445312 299.351562 520.195312 299.53125 519.921875 C 299.714844 519.652344 299.867188 519.363281 299.992188 519.0625 C 300.117188 518.757812 300.214844 518.449219 300.277344 518.125 C 300.339844 517.804688 300.375 517.480469 300.375 517.152344 C 300.375 516.828125 300.339844 516.503906 300.277344 516.179688 C 300.214844 515.859375 300.117188 515.546875 299.992188 515.246094 C 299.867188 514.945312 299.714844 514.65625 299.53125 514.382812 C 299.351562 514.113281 299.144531 513.859375 298.910156 513.628906 C 298.679688 513.398438 298.429688 513.191406 298.15625 513.007812 C 297.882812 512.828125 297.59375 512.675781 297.292969 512.546875 C 296.988281 512.421875 296.679688 512.328125 296.355469 512.265625 C 296.035156 512.199219 295.710938 512.167969 295.382812 512.167969 Z M 514.945312 512.167969 C 514.621094 512.167969 514.292969 512.199219 513.972656 512.265625 C 513.652344 512.328125 513.339844 512.421875 513.039062 512.546875 C 512.734375 512.675781 512.445312 512.828125 512.175781 513.007812 C 511.902344 513.191406 511.648438 513.398438 511.417969 513.628906 C 511.1875 513.859375 510.980469 514.113281 510.796875 514.382812 C 510.617188 514.65625 510.460938 514.945312 510.335938 515.246094 C 510.210938 515.546875 510.117188 515.859375 510.054688 516.179688 C 509.988281 516.503906 509.957031 516.828125 509.957031 517.152344 C 509.957031 517.480469 509.988281 517.804688 510.054688 518.125 C 510.117188 518.449219 510.210938 518.757812 510.335938 519.0625 C 510.460938 519.363281 510.617188 519.652344 510.796875 519.921875 C 510.980469 520.195312 511.1875 520.445312 511.417969 520.679688 C 511.648438 520.910156 511.902344 521.117188 512.175781 521.296875 C 512.445312 521.480469 512.734375 521.632812 513.039062 521.757812 C 513.339844 521.882812 513.652344 521.980469 513.972656 522.042969 C 514.292969 522.105469 514.621094 522.136719 514.945312 522.136719 C 515.273438 522.136719 515.597656 522.105469 515.921875 522.042969 C 516.242188 521.980469 516.554688 521.882812 516.855469 521.757812 C 517.160156 521.632812 517.445312 521.480469 517.71875 521.296875 C 517.992188 521.117188 518.242188 520.910156 518.476562 520.679688 C 518.707031 520.445312 518.914062 520.195312 519.097656 519.921875 C 519.277344 519.652344 519.433594 519.363281 519.558594 519.0625 C 519.683594 518.757812 519.777344 518.449219 519.839844 518.125 C 519.90625 517.804688 519.9375 517.480469 519.9375 517.152344 C 519.9375 516.828125 519.90625 516.503906 519.839844 516.179688 C 519.777344 515.859375 519.683594 515.546875 519.558594 515.246094 C 519.433594 514.945312 519.277344 514.65625 519.097656 514.382812 C 518.914062 514.113281 518.707031 513.859375 518.476562 513.628906 C 518.242188 513.398438 517.992188 513.191406 517.71875 513.007812 C 517.445312 512.828125 517.160156 512.675781 516.855469 512.546875 C 516.554688 512.421875 516.242188 512.328125 515.921875 512.265625 C 515.597656 512.199219 515.273438 512.167969 514.945312 512.167969 Z M 514.945312 512.167969 " fill-opacity="1" fill-rule="nonzero"/></g></svg>