<svg xmlns="http://www.w3.org/2000/svg" xmlns:xlink="http://www.w3.org/1999/xlink" width="1080" zoomAndPan="magnify" viewBox="0 0 810 809.999993" height="1080" preserveAspectRatio="xMidYMid meet" version="1.0"><defs><clipPath id="15bc0b2a97"><path d="M 243 306.382812 L 567 306.382812 L 567 503.632812 L 243 503.632812 Z M 243 306.382812 " clip-rule="nonzero"/></clipPath></defs><rect x="-81" width="972" fill="#ffffff" y="-80.999999" height="971.999992" fill-opacity="1"/><rect x="-81" width="972" fill="#ffffff" y="-80.999999" height="971.999992" fill-opacity="1"/><path fill="#100f0d" d="M 442.714844 420.316406 C 427.878906 420.765625 413.957031 424.484375 403.375 433.132812 C 392.789062 424.484375 378.867188 420.765625 364.03125 420.316406 L 364.03125 391.675781 L 402.71875 402.046875 C 403.148438 402.160156 403.597656 402.160156 404.019531 402.046875 L 442.714844 391.675781 Z M 488.097656 392.160156 C 488.097656 390.746094 487.125 389.566406 485.824219 389.226562 L 485.824219 380.039062 C 487.820312 379.074219 487.6875 376.011719 485.375 375.394531 L 404.019531 353.582031 C 403.597656 353.46875 403.148438 353.46875 402.71875 353.582031 L 321.371094 375.394531 C 318.894531 376.050781 318.894531 379.578125 321.371094 380.242188 L 352.816406 388.664062 L 352.816406 432.191406 C 355.746094 431.730469 358.777344 431.492188 361.859375 431.492188 C 379.246094 431.492188 394.523438 437.632812 403.3125 449.035156 L 403.375 449.066406 L 403.433594 449.035156 C 412.226562 437.632812 427.5 431.492188 444.886719 431.492188 C 447.96875 431.492188 451 431.730469 453.933594 432.191406 L 453.933594 388.664062 L 484.316406 380.519531 L 484.316406 389.226562 C 483.007812 389.566406 482.042969 390.746094 482.042969 392.160156 C 482.042969 393.222656 482.585938 394.148438 483.417969 394.691406 C 482.472656 398.214844 479.882812 408.59375 479.882812 417.242188 C 479.882812 417.242188 480.957031 418.972656 485.054688 419.199219 C 489.175781 418.972656 490.261719 417.242188 490.261719 417.242188 C 490.261719 408.59375 487.667969 398.214844 486.695312 394.691406 C 487.535156 394.148438 488.097656 393.222656 488.097656 392.160156 " fill-opacity="1" fill-rule="nonzero"/><g clip-path="url(#15bc0b2a97)"><path fill="#100f0d" d="M 513.8125 475.632812 L 432.785156 475.632812 C 432.539062 482.457031 426.792969 488 419.816406 488 L 390.394531 488 C 383.386719 488 377.730469 482.457031 377.433594 475.632812 L 295.945312 475.632812 L 295.945312 326.933594 L 513.8125 326.933594 Z M 534.683594 475.898438 C 534.835938 474.730469 534.917969 473.535156 534.917969 472.304688 L 534.917969 330.375 C 534.917969 317.136719 524.917969 306.386719 512.5 306.386719 L 297.183594 306.386719 C 284.839844 306.386719 274.851562 317.136719 274.851562 330.375 L 274.851562 472.304688 C 274.851562 473.535156 274.914062 474.730469 275.023438 475.898438 L 243.195312 475.898438 L 243.195312 479.640625 C 243.195312 492.992188 253.191406 503.625 265.527344 503.625 L 544.210938 503.625 C 556.542969 503.625 566.542969 492.992188 566.542969 479.640625 L 566.542969 475.898438 L 534.683594 475.898438 " fill-opacity="1" fill-rule="nonzero"/></g></svg>