<svg xmlns="http://www.w3.org/2000/svg" xmlns:xlink="http://www.w3.org/1999/xlink" width="1080" zoomAndPan="magnify" viewBox="0 0 810 809.999993" height="1080" preserveAspectRatio="xMidYMid meet" version="1.0"><rect x="-81" width="972" fill="#ffffff" y="-80.999999" height="971.999992" fill-opacity="1"/><rect x="-81" width="972" fill="#ffffff" y="-80.999999" height="971.999992" fill-opacity="1"/><path fill="#000000" d="M 303.75 329.0625 C 303.75 323.46875 308.28125 318.9375 313.875 318.9375 L 435.375 318.9375 C 440.96875 318.9375 445.5 323.46875 445.5 329.0625 C 445.5 334.65625 440.96875 339.1875 435.375 339.1875 L 313.875 339.1875 C 308.28125 339.1875 303.75 334.65625 303.75 329.0625 Z M 303.75 329.0625 " fill-opacity="1" fill-rule="nonzero"/><path fill="#000000" d="M 303.75 369.5625 C 303.75 363.96875 308.28125 359.4375 313.875 359.4375 L 435.375 359.4375 C 440.96875 359.4375 445.5 363.96875 445.5 369.5625 C 445.5 375.15625 440.96875 379.6875 435.375 379.6875 L 313.875 379.6875 C 308.28125 379.6875 303.75 375.15625 303.75 369.5625 Z M 303.75 369.5625 " fill-opacity="1" fill-rule="nonzero"/><path fill="#000000" d="M 303.75 410.0625 C 303.75 404.46875 308.28125 399.9375 313.875 399.9375 L 435.375 399.9375 C 440.96875 399.9375 445.5 404.46875 445.5 410.0625 C 445.5 415.65625 440.96875 420.1875 435.375 420.1875 L 313.875 420.1875 C 308.28125 420.1875 303.75 415.65625 303.75 410.0625 Z M 303.75 410.0625 " fill-opacity="1" fill-rule="nonzero"/><path fill="#000000" d="M 303.75 450.5625 C 303.75 444.972656 308.28125 440.4375 313.875 440.4375 L 435.375 440.4375 C 440.96875 440.4375 445.5 444.972656 445.5 450.5625 C 445.5 456.152344 440.96875 460.6875 435.375 460.6875 L 313.875 460.6875 C 308.28125 460.6875 303.75 456.152344 303.75 450.5625 Z M 303.75 450.5625 " fill-opacity="1" fill-rule="nonzero"/><path fill="#000000" d="M 303.75 491.0625 C 303.75 485.472656 308.28125 480.9375 313.875 480.9375 L 435.375 480.9375 C 440.96875 480.9375 445.5 485.472656 445.5 491.0625 C 445.5 496.652344 440.96875 501.1875 435.375 501.1875 L 313.875 501.1875 C 308.28125 501.1875 303.75 496.652344 303.75 491.0625 Z M 303.75 491.0625 " fill-opacity="1" fill-rule="nonzero"/><path fill="#000000" d="M 475.875 318.9375 C 470.285156 318.9375 465.75 323.46875 465.75 329.0625 C 465.75 334.65625 470.285156 339.1875 475.875 339.1875 L 496.125 339.1875 C 501.714844 339.1875 506.25 334.65625 506.25 329.0625 C 506.25 323.46875 501.714844 318.9375 496.125 318.9375 Z M 475.875 318.9375 " fill-opacity="1" fill-rule="nonzero"/><path fill="#000000" d="M 475.875 359.4375 C 470.285156 359.4375 465.75 363.96875 465.75 369.5625 C 465.75 375.15625 470.285156 379.6875 475.875 379.6875 L 496.125 379.6875 C 501.714844 379.6875 506.25 375.15625 506.25 369.5625 C 506.25 363.96875 501.714844 359.4375 496.125 359.4375 Z M 475.875 359.4375 " fill-opacity="1" fill-rule="nonzero"/><path fill="#000000" d="M 475.875 399.9375 C 470.285156 399.9375 465.75 404.46875 465.75 410.0625 C 465.75 415.65625 470.285156 420.1875 475.875 420.1875 L 496.125 420.1875 C 501.714844 420.1875 506.25 415.65625 506.25 410.0625 C 506.25 404.46875 501.714844 399.9375 496.125 399.9375 Z M 475.875 399.9375 " fill-opacity="1" fill-rule="nonzero"/><path fill="#000000" d="M 475.875 440.4375 C 470.285156 440.4375 465.75 444.972656 465.75 450.5625 C 465.75 456.152344 470.285156 460.6875 475.875 460.6875 L 496.125 460.6875 C 501.714844 460.6875 506.25 456.152344 506.25 450.5625 C 506.25 444.972656 501.714844 440.4375 496.125 440.4375 Z M 475.875 440.4375 " fill-opacity="1" fill-rule="nonzero"/><path fill="#000000" d="M 475.875 480.9375 C 470.285156 480.9375 465.75 485.472656 465.75 491.0625 C 465.75 496.652344 470.285156 501.1875 475.875 501.1875 L 496.125 501.1875 C 501.714844 501.1875 506.25 496.652344 506.25 491.0625 C 506.25 485.472656 501.714844 480.9375 496.125 480.9375 Z M 475.875 480.9375 " fill-opacity="1" fill-rule="nonzero"/><path fill="#000000" d="M 290.660156 251.027344 C 288.359375 248.726562 285.089844 247.671875 281.878906 248.195312 C 278.664062 248.714844 275.898438 250.75 274.445312 253.660156 L 264.320312 273.910156 C 263.617188 275.316406 263.25 276.867188 263.25 278.4375 L 263.25 541.6875 L 253.125 541.6875 C 247.53125 541.6875 243 546.222656 243 551.8125 C 243 557.402344 247.53125 561.9375 253.125 561.9375 L 556.875 561.9375 C 562.464844 561.9375 567 557.402344 567 551.8125 C 567 546.222656 562.464844 541.6875 556.875 541.6875 L 546.75 541.6875 L 546.75 278.4375 C 546.75 276.867188 546.382812 275.316406 545.679688 273.910156 L 535.554688 253.660156 C 534.101562 250.75 531.332031 248.714844 528.121094 248.195312 C 524.910156 247.671875 521.640625 248.726562 519.339844 251.027344 L 506.25 264.117188 L 493.160156 251.027344 C 489.207031 247.074219 482.792969 247.074219 478.839844 251.027344 L 465.75 264.117188 L 452.660156 251.027344 C 448.707031 247.074219 442.292969 247.074219 438.339844 251.027344 L 425.25 264.117188 L 412.160156 251.027344 C 408.207031 247.074219 401.792969 247.074219 397.839844 251.027344 L 384.75 264.117188 L 371.660156 251.027344 C 367.707031 247.074219 361.292969 247.074219 357.339844 251.027344 L 344.25 264.117188 L 331.160156 251.027344 C 327.207031 247.074219 320.792969 247.074219 316.839844 251.027344 L 303.75 264.117188 Z M 286.273438 275.28125 L 296.589844 285.597656 C 300.542969 289.550781 306.957031 289.550781 310.910156 285.597656 L 324 272.507812 L 337.089844 285.597656 C 341.042969 289.550781 347.457031 289.550781 351.410156 285.597656 L 364.5 272.507812 L 377.589844 285.597656 C 381.542969 289.550781 387.957031 289.550781 391.910156 285.597656 L 405 272.507812 L 418.089844 285.597656 C 422.042969 289.550781 428.457031 289.550781 432.410156 285.597656 L 445.5 272.507812 L 458.589844 285.597656 C 462.542969 289.550781 468.957031 289.550781 472.910156 285.597656 L 486 272.507812 L 499.089844 285.597656 C 503.042969 289.550781 509.457031 289.550781 513.410156 285.597656 L 523.726562 275.28125 L 526.5 280.828125 L 526.5 541.6875 L 283.5 541.6875 L 283.5 280.828125 Z M 286.273438 275.28125 " fill-opacity="1" fill-rule="nonzero"/></svg>