<svg xmlns="http://www.w3.org/2000/svg" xmlns:xlink="http://www.w3.org/1999/xlink" width="1080" zoomAndPan="magnify" viewBox="0 0 810 809.999993" height="1080" preserveAspectRatio="xMidYMid meet" version="1.0"><defs><clipPath id="7356279a86"><path d="M 288.5625 243 L 521.8125 243 L 521.8125 567 L 288.5625 567 Z M 288.5625 243 " clip-rule="nonzero"/></clipPath></defs><rect x="-81" width="972" fill="#ffffff" y="-80.999999" height="971.999992" fill-opacity="1"/><rect x="-81" width="972" fill="#ffffff" y="-80.999999" height="971.999992" fill-opacity="1"/><g clip-path="url(#7356279a86)"><path fill="#000000" d="M 521.980469 243.484375 L 499.910156 292.183594 L 449.363281 292.183594 C 451.871094 295.125 454.304688 298.898438 456.65625 303.535156 C 459.003906 308.152344 460.554688 312.824219 461.296875 317.519531 L 521.984375 317.519531 L 499.914062 366.21875 L 461.296875 366.21875 C 459.53125 376.796875 455.886719 386.382812 450.359375 394.972656 C 444.851562 403.574219 437.972656 411.027344 429.730469 417.339844 C 421.484375 423.660156 412.144531 428.761719 401.691406 432.65625 C 391.257812 436.546875 380.222656 439.011719 368.601562 440.035156 L 488.660156 566.515625 L 410.515625 566.515625 L 299.738281 443.5625 L 299.738281 394.863281 L 332.402344 394.863281 C 336.519531 394.863281 341.746094 394.570312 348.066406 393.980469 C 354.386719 393.398438 360.683594 392.109375 366.933594 390.121094 C 373.183594 388.148438 378.890625 385.273438 384.035156 381.535156 C 389.1875 377.785156 392.71875 372.6875 394.628906 366.21875 L 288.6875 366.21875 L 310.757812 317.519531 L 394.410156 317.519531 C 392.644531 311.648438 389.414062 307.023438 384.699219 303.640625 C 379.984375 300.261719 374.363281 297.726562 367.8125 296.042969 C 361.261719 294.351562 353.941406 293.285156 345.855469 292.84375 C 337.765625 292.402344 329.378906 292.183594 320.695312 292.183594 L 288.6875 292.183594 L 310.761719 243.484375 Z M 521.980469 243.484375 " fill-opacity="1" fill-rule="nonzero"/></g></svg>