<?xml version="1.0" encoding="UTF-8"?>
<svg version="1.1" xmlns="http://www.w3.org/2000/svg" width="436" height="522">
<path d="M0 0 C143.88 0 287.76 0 436 0 C436 172.26 436 344.52 436 522 C292.12 522 148.24 522 0 522 C0 349.74 0 177.48 0 0 Z " fill="#FEFEFE" transform="translate(0,0)"/>
<path d="M0 0 C143.88 0 287.76 0 436 0 C436 172.26 436 344.52 436 522 C292.12 522 148.24 522 0 522 C0 349.74 0 177.48 0 0 Z M106 64 C105.43732422 64.53931152 104.87464844 65.07862305 104.29492188 65.63427734 C78.16133352 91.14665745 63.23630855 127.88320727 61 164 C60.95472168 164.68594238 60.90944336 165.37188477 60.86279297 166.07861328 C58.95542513 199.58923064 74.02987031 230.92479507 89 260 C89.51320801 260.99757324 90.02641602 261.99514648 90.55517578 263.02294922 C109.26419256 299.02746748 133.18617741 332.24610448 157 365 C156.11554199 365.12528076 155.23108398 365.25056152 154.31982422 365.37963867 C137.61989333 367.76735412 121.02732387 370.20272708 104.65087891 374.33203125 C101.79609262 375.0513806 98.93536008 375.74388998 96.07421875 376.4375 C71.47801291 382.50638324 39.56894821 392.47734273 25.5625 415.3125 C21.35620412 422.61334599 20.96819188 429.58857467 22.54296875 437.84765625 C26.75998064 451.60738987 38.91616428 460.33908833 51 467 C79.08796926 481.4460619 109.88120589 488.02561149 141 492 C143.03457778 492.26935071 145.06879265 492.54134969 147.10302734 492.8132782 C150.6092603 493.27980637 154.11709698 493.73373443 157.625 494.1875 C158.90407227 494.35467529 160.18314453 494.52185059 161.50097656 494.6940918 C178.63902793 496.83800503 195.62554297 497.17247541 212.875 497.125 C213.91113434 497.12311676 214.94726868 497.12123352 216.01480103 497.11929321 C261.77848253 497.02186834 309.24392582 494.7375153 353 480 C354.70957024 479.4503181 356.41920771 478.90084522 358.12890625 478.3515625 C378.93720818 471.51371244 401.95694894 462.05947476 413 442 C413.54914063 441.11248047 413.54914063 441.11248047 414.109375 440.20703125 C416.47553281 434.34352615 415.88900832 426.15468485 414.1953125 420.14453125 C404.61881343 399.37343498 381.43618788 390.01988356 361.31640625 382.52734375 C355.29720947 380.35607175 349.18391538 378.63335251 343 377 C341.89269531 376.67386719 340.78539062 376.34773438 339.64453125 376.01171875 C327.94642525 372.64900015 316.01257896 370.85515698 304 369 C303.28408691 368.88914062 302.56817383 368.77828125 301.83056641 368.6640625 C299.14820181 368.25020797 296.46511314 367.84152241 293.78125 367.4375 C289.1716974 366.71240184 284.58532427 365.8637685 280 365 C280.83917969 363.94039063 280.83917969 363.94039063 281.6953125 362.859375 C304.72016798 333.39348278 326.00605202 301.35283781 343.70361328 268.40771484 C344.60692664 266.73003568 345.51730976 265.05615205 346.43310547 263.38525391 C360.93565215 236.89557133 376.52387386 205.08431934 376.3125 174.1875 C376.30686035 173.29224609 376.3012207 172.39699219 376.29541016 171.47460938 C375.67035953 135.90242105 363.4461604 100.98607089 340 74 C339.28070313 73.17113281 338.56140625 72.34226563 337.8203125 71.48828125 C335.58092131 68.95831162 333.30432268 66.47090022 331 64 C329.95392578 62.87271484 329.95392578 62.87271484 328.88671875 61.72265625 C306.9575682 38.91152889 276.03973499 24.13711232 245 19 C243.81148437 18.79632812 242.62296875 18.59265625 241.3984375 18.3828125 C190.29019053 10.78423403 142.74596835 28.71380299 106 64 Z " fill="#FEFEFE" transform="translate(0,0)"/>
<path d="M0 0 C2.4640185 2.25600436 4.88448349 4.55456991 7.30297852 6.859375 C8.02227539 7.52582031 8.74157227 8.19226563 9.48266602 8.87890625 C37.70118697 35.79416218 52.48882447 76.15021917 53.64013672 114.5402832 C54.25148311 158.06420204 28.68889559 202.05709862 6.30297852 237.859375 C5.73933594 238.76316895 5.17569336 239.66696289 4.5949707 240.59814453 C-2.88372724 252.55538909 -10.59320785 264.31757982 -18.69702148 275.859375 C-19.67244054 277.25900404 -20.64769684 278.65874651 -21.62280273 280.05859375 C-28.44312077 289.81583782 -35.49951348 299.37755152 -42.69702148 308.859375 C-40.77116211 309.11460937 -40.77116211 309.11460937 -38.80639648 309.375 C-27.07805826 310.9675578 -15.49802746 312.94179598 -3.91870117 315.390625 C-1.90136693 315.81626036 0.11864306 316.22916411 2.13891602 316.640625 C23.75070444 321.10868013 44.90863267 327.18479733 64.30297852 337.859375 C65.71643555 338.61347656 65.71643555 338.61347656 67.15844727 339.3828125 C78.14336887 345.54799331 88.32006319 354.57127749 92.30297852 366.859375 C93.27810812 375.93321261 93.0949613 383.49273968 87.30297852 390.859375 C86.70614258 391.65601563 86.10930664 392.45265625 85.49438477 393.2734375 C64.88448816 418.44166663 25.56209033 427.05317846 -4.72827148 432.33740234 C-7.61929602 432.84570912 -10.50165734 433.38889056 -13.38452148 433.94140625 C-59.87875178 442.68404909 -110.66756273 444.37550273 -157.69702148 438.859375 C-159.18096376 438.69547829 -160.66502234 438.53263253 -162.14916992 438.37060547 C-266.88084533 426.86389949 -266.88084533 426.86389949 -296.13452148 390.859375 C-300.50999801 382.45846006 -302.75315358 373.56415358 -299.88842773 364.22265625 C-292.27960263 347.45164728 -276.52948282 339.2666913 -260.69702148 331.859375 C-259.5278418 331.31023437 -258.35866211 330.76109375 -257.15405273 330.1953125 C-228.80546389 317.4727007 -196.26212099 312.94710867 -165.69702148 308.859375 C-166.19347168 308.17500366 -166.19347168 308.17500366 -166.69995117 307.47680664 C-270.71338562 164.00197801 -270.71338562 164.00197801 -259.73608398 90.71484375 C-254.40328323 58.71273825 -238.73945594 31.28454519 -216.69702148 7.859375 C-216.12209961 7.22 -215.54717773 6.580625 -214.95483398 5.921875 C-159.22670069 -53.52146718 -59.23138421 -53.2649035 0 0 Z M-209.12963867 21.37792969 C-216.31983193 29.23379094 -222.28393797 37.70552233 -227.69702148 46.859375 C-228.04361816 47.43349121 -228.39021484 48.00760742 -228.74731445 48.59912109 C-238.3605852 64.69649555 -243.36010252 82.3534415 -245.69702148 100.859375 C-245.78983398 101.52622314 -245.88264648 102.19307129 -245.97827148 102.88012695 C-247.70881996 115.65373792 -246.83970792 127.39083045 -243.69702148 139.859375 C-243.37991211 141.138125 -243.06280273 142.416875 -242.73608398 143.734375 C-232.8772547 181.12412174 -211.40116097 215.57812518 -190.23999023 247.52734375 C-188.44708264 250.23713067 -186.66653829 252.95491447 -184.88452148 255.671875 C-178.00977092 266.11094586 -171.00970331 276.37001209 -163.40795898 286.29296875 C-160.83488643 289.6528112 -158.38121796 293.08573613 -155.94702148 296.546875 C-149.133294 306.18451087 -141.89574037 315.50819208 -134.69702148 324.859375 C-134.07714355 325.6652002 -133.45726562 326.47102539 -132.81860352 327.30126953 C-126.49030926 335.51589873 -120.09348585 343.67202854 -113.57202148 351.734375 C-112.77308472 352.72497925 -112.77308472 352.72497925 -111.95800781 353.7355957 C-109.3445477 356.94644213 -106.70131025 359.9988321 -103.69702148 362.859375 C-97.05427694 355.20490984 -90.71952576 347.37907976 -84.60424805 339.29663086 C-81.06598962 334.62673439 -77.449651 330.03485923 -73.75952148 325.484375 C-67.40746404 317.61912285 -61.44863811 309.47880261 -55.49243164 301.31201172 C-53.6997183 298.86305901 -51.89414475 296.42417832 -50.08374023 293.98828125 C-42.73102628 284.08924218 -35.58782717 274.0849619 -28.69702148 263.859375 C-28.16109375 263.06837402 -27.62516602 262.27737305 -27.07299805 261.46240234 C-13.73710917 241.76286768 -1.30191901 221.62557604 10.30297852 200.859375 C10.6776123 200.19808594 11.05224609 199.53679687 11.43823242 198.85546875 C31.63777624 163.13895955 45.17154819 123.8871567 34.37231445 82.99902344 C23.49077775 44.14842724 -1.07726289 12.45131328 -36.27978516 -7.37939453 C-93.330792 -38.48447158 -164.92299277 -25.48051229 -209.12963867 21.37792969 Z " fill="#040404" transform="translate(322.697021484375,56.140625)"/>
<path d="M0 0 C4.16350369 0.87797112 6.1060273 4.46980606 8.55859375 7.75 C9.09162109 8.43191406 9.62464844 9.11382812 10.17382812 9.81640625 C12.58869621 12.94510327 14.68065966 15.91444048 16.37109375 19.5 C13.58826403 20.89141486 10.96759604 20.91917711 7.87109375 21.25 C-7.28929476 23.11418004 -25.74323335 27.05608746 -36.62890625 38.5 C-39.43790585 43.46256596 -40.56063722 47.89852217 -39.62890625 53.5 C-36.91698411 60.86093151 -31.42972884 64.00315287 -24.62890625 67.5 C-2.06888483 77.44403874 22.802791 78.86108765 47.10375977 78.76074219 C50.17028735 78.75004641 53.23622464 78.76069611 56.30273438 78.7734375 C73.50085847 78.78685808 91.08832859 78.3651093 107.87109375 74.25 C108.7741626 74.03601563 109.67723145 73.82203125 110.60766602 73.6015625 C121.57634772 70.87676462 135.1337265 67.12983052 141.80859375 57.3125 C144.03894293 52.83232262 144.37088973 48.37686741 143.37109375 43.5 C140.53961209 37.66694768 136.24527039 34.1070784 130.37109375 31.5 C129.51773437 31.10167969 128.664375 30.70335937 127.78515625 30.29296875 C114.86710914 24.56123471 101.21144203 21.90069116 87.37109375 19.5 C88.73439497 17.36209582 90.12628574 15.2565849 91.5703125 13.171875 C93.41551053 10.51824616 93.41551053 10.51824616 94.953125 7.640625 C96.87161448 4.57450637 98.40824796 2.59427344 101.37109375 0.5 C107.20103799 -0.32297704 112.59863933 0.5599042 118.37109375 1.5 C119.85369241 1.70271804 121.33677024 1.90196327 122.8203125 2.09765625 C135.14393494 3.81071582 147.35089659 6.35987152 159.52392578 8.90771484 C161.97943526 9.41852482 164.43787156 9.90891535 166.8984375 10.39453125 C188.59072824 14.8683402 218.75376591 23.87747422 232.09375 42.96484375 C234.20704955 47.1591294 234.21090524 50.92302741 233.37109375 55.5 C226.47768541 70.07015855 206.97341992 77.4183144 192.80859375 82.625 C170.3596678 90.62542542 147.47123873 95.58918957 123.87109375 98.625 C122.65760254 98.78371582 121.44411133 98.94243164 120.19384766 99.10595703 C97.99888626 101.82423241 75.77511744 102.83673963 53.42456055 102.76074219 C49.67415329 102.74997289 45.92422158 102.76074994 42.17382812 102.7734375 C-6.9672978 102.80154292 -86.09215592 100.08818664 -123.88671875 63.36328125 C-127.50619034 59.49223203 -129.81857745 56.54111798 -130.25390625 51.1875 C-129.91410014 44.66541504 -126.32937676 40.25520978 -121.89453125 35.73046875 C-88.63928579 7.33048913 -40.40817314 7.68535834 0 0 Z " fill="#FCFCFC" transform="translate(166.62890625,379.5)"/>
<path d="M0 0 C12.97801331 10.22281562 22.47702379 24.38510864 25.36572266 40.81591797 C27.03284463 61.77733899 23.66631146 79.2991912 10.17822266 96.00341797 C-1.20800538 108.23024002 -16.88780361 116.46345089 -33.68505859 117.28466797 C-35.77204873 117.318576 -37.85954952 117.32847127 -39.94677734 117.31591797 C-41.59045288 117.30842529 -41.59045288 117.30842529 -43.26733398 117.30078125 C-51.95896253 117.11411367 -58.83001139 115.84049168 -66.63427734 111.81591797 C-67.97425781 111.14689453 -67.97425781 111.14689453 -69.34130859 110.46435547 C-75.9081282 106.85310905 -81.30689772 102.04430912 -86.63427734 96.81591797 C-87.27365234 96.20103516 -87.91302734 95.58615234 -88.57177734 94.95263672 C-100.88898383 82.11304871 -104.13256629 65.42120429 -104.05859375 48.25683594 C-103.87762424 40.83465683 -102.86610095 34.56566104 -99.63427734 27.81591797 C-99.27205078 26.96384766 -98.90982422 26.11177734 -98.53662109 25.23388672 C-90.42047511 7.32334084 -75.43941669 -3.49126716 -57.60693359 -10.34814453 C-38.3810822 -16.11859642 -16.122059 -11.68090621 0 0 Z " fill="#FEFEFE" transform="translate(257.63427734375,121.18408203125)"/>
<path d="M0 0 C15.65484038 12.61971827 27.04254602 29.57186512 31.0625 49.46875 C31.48566484 53.89463243 31.53938468 58.27489777 31.5 62.71875 C31.49315186 63.90662109 31.48630371 65.09449219 31.47924805 66.31835938 C31.31568127 75.28206392 30.33006397 83.05423887 27.0625 91.46875 C26.68867188 92.44328125 26.31484375 93.4178125 25.9296875 94.421875 C17.53527835 114.32385165 2.78299862 129.56802708 -17.12890625 137.9609375 C-18.39638502 138.46869543 -19.66585756 138.97151158 -20.9375 139.46875 C-22.59072266 140.12230469 -22.59072266 140.12230469 -24.27734375 140.7890625 C-41.4942428 146.42942118 -62.36932744 145.74492312 -78.9375 138.46875 C-80.55978516 137.78232422 -80.55978516 137.78232422 -82.21484375 137.08203125 C-89.30255585 133.81971736 -95.04194334 129.52798426 -100.9375 124.46875 C-101.53949219 124.02273437 -102.14148438 123.57671875 -102.76171875 123.1171875 C-112.81708619 115.47604581 -119.39597369 102.95029621 -123.9375 91.46875 C-124.35 90.55996094 -124.7625 89.65117187 -125.1875 88.71484375 C-131.58039624 72.39963981 -129.8076735 50.35787876 -123.09179688 34.46777344 C-119.18077712 25.53719649 -114.56131257 17.68781915 -107.9375 10.46875 C-107.27363281 9.71335937 -106.60976562 8.95796875 -105.92578125 8.1796875 C-78.59036386 -21.22736041 -31.75067864 -23.34608724 0 0 Z M-96.9375 20.46875 C-107.42014967 33.07751027 -113.55330017 46.34412239 -113.3125 62.84375 C-113.30162354 63.85816162 -113.29074707 64.87257324 -113.27954102 65.91772461 C-112.91403897 83.08804535 -106.8843005 97.61792627 -94.75390625 109.78125 C-79.41627442 124.41688204 -64.15027018 129.20905289 -43.2734375 128.84375 C-27.41123279 128.18459041 -11.85061951 121.107944 -0.9375 109.46875 C10.37018824 96.15547516 16.68930964 81.72925281 16.5 64.15625 C16.48755249 62.65130981 16.48755249 62.65130981 16.47485352 61.1159668 C16.07718357 43.55197515 9.07299753 29.62810303 -3.11328125 17.1640625 C-16.32405466 4.55627045 -32.65912525 -1.0963802 -50.7253418 -0.94848633 C-68.7299845 -0.38254962 -84.67715669 7.29154623 -96.9375 20.46875 Z " fill="#040404" transform="translate(266.9375,109.53125)"/>
<path d="M0 0 C3.0390625 0.4140625 3.0390625 0.4140625 5.75 3.125 C6.65627827 4.33286866 7.54348376 5.555215 8.4140625 6.7890625 C8.88811523 7.42158936 9.36216797 8.05411621 9.85058594 8.70581055 C12.033899 11.62070302 14.15641148 14.57741064 16.28125 17.53515625 C20.13351333 22.77483522 20.13351333 22.77483522 25.7265625 25.8515625 C31.87794434 25.03911584 35.67423118 18.62313524 39.5390625 14.0390625 C40.03043701 13.46978027 40.52181152 12.90049805 41.02807617 12.31396484 C43.56809183 9.33525395 45.57682262 6.5461182 47.3515625 3.0390625 C50.0390625 0.4140625 50.0390625 0.4140625 52.8828125 0.1171875 C56.66954218 0.30481825 60.2980361 0.79859136 64.0390625 1.4140625 C65.32941406 1.60742188 66.61976563 1.80078125 67.94921875 2 C80.47289322 4.01839964 93.65672422 6.8436075 104.0390625 14.4140625 C102.18313064 18.98622797 99.64576976 20.10665542 95.30078125 22.12109375 C74.25662715 30.46314765 51.621001 31.94016976 29.20507812 31.80517578 C26.03992665 31.7890669 22.87605135 31.80515769 19.7109375 31.82421875 C-33.20380245 31.87998148 -33.20380245 31.87998148 -48.9609375 18.4140625 C-50.1796875 16.26171875 -50.1796875 16.26171875 -50.9609375 14.4140625 C-35.65250709 3.71132033 -17.87459688 2.49961381 0 0 Z " fill="#FCFCFC" transform="translate(191.9609375,412.5859375)"/>
</svg>
