<svg xmlns="http://www.w3.org/2000/svg" xmlns:xlink="http://www.w3.org/1999/xlink" width="1080" zoomAndPan="magnify" viewBox="0 0 810 809.999993" height="1080" preserveAspectRatio="xMidYMid meet" version="1.0"><defs><clipPath id="372a3cf7d8"><path d="M 243 246.441406 L 561 246.441406 L 561 563.691406 L 243 563.691406 Z M 243 246.441406 " clip-rule="nonzero"/></clipPath></defs><rect x="-81" width="972" fill="#ffffff" y="-80.999999" height="971.999992" fill-opacity="1"/><rect x="-81" width="972" fill="#ffffff" y="-80.999999" height="971.999992" fill-opacity="1"/><path fill="#7e6451" d="M 332.121094 278.046875 L 487.609375 278.046875 C 489.101562 278.046875 490.316406 279.261719 490.316406 280.753906 L 490.316406 390.320312 C 490.316406 391.8125 489.101562 393.027344 487.609375 393.027344 L 332.121094 393.027344 C 330.628906 393.027344 329.414062 391.8125 329.414062 390.320312 L 329.414062 280.753906 C 329.414062 279.261719 330.628906 278.046875 332.121094 278.046875 Z M 332.121094 278.046875 " fill-opacity="1" fill-rule="evenodd"/><path fill="#937661" d="M 332.121094 278.046875 L 487.609375 278.046875 C 489.101562 278.046875 490.316406 279.261719 490.316406 280.753906 L 490.316406 301.648438 L 417.699219 331.511719 C 412.488281 333.652344 407.242188 333.652344 402.03125 331.511719 L 329.414062 301.648438 L 329.414062 280.753906 C 329.414062 279.261719 330.628906 278.046875 332.121094 278.046875 Z M 332.121094 278.046875 " fill-opacity="1" fill-rule="evenodd"/><path fill="#d5a889" d="M 403 318.230469 L 416.730469 318.230469 C 417.4375 318.230469 418.015625 318.808594 418.015625 319.515625 L 418.015625 339.816406 C 418.015625 344.300781 414.347656 347.96875 409.867188 347.96875 C 405.382812 347.96875 401.71875 344.300781 401.71875 339.816406 L 401.71875 319.515625 C 401.714844 318.808594 402.292969 318.230469 403 318.230469 Z M 403 318.230469 " fill-opacity="1" fill-rule="evenodd"/><path fill="#efc7a4" d="M 329.460938 437.3125 C 308.570312 447.484375 287.488281 457.257812 266.464844 467.15625 L 295.925781 538.269531 L 339.5625 517.136719 C 345.871094 514.082031 352.3125 513.542969 359.039062 515.511719 L 405.25 529.019531 C 419.890625 533.300781 438.054688 525.542969 451.699219 520.308594 L 538.523438 487.007812 C 561.386719 478.238281 567 432.390625 513.019531 448.101562 L 451.085938 466.125 C 449.300781 459.597656 444.203125 454.140625 437.234375 452.257812 L 395.335938 440.949219 C 366.808594 420.632812 352.257812 426.207031 329.460938 437.3125 Z M 329.460938 437.3125 " fill-opacity="1" fill-rule="evenodd"/><path fill="#d5a889" d="M 451.105469 476.386719 L 357.433594 451.101562 C 354.617188 461.554688 360.855469 472.414062 371.304688 475.230469 L 426.988281 490.261719 C 437.433594 493.082031 448.289062 486.839844 451.105469 476.386719 Z M 451.105469 476.386719 " fill-opacity="1" fill-rule="evenodd"/><path fill="#e4e8eb" d="M 320.386719 548.398438 L 298.160156 557.632812 C 293.335938 559.636719 287.769531 557.339844 285.761719 552.515625 C 273.214844 522.375 260.671875 492.234375 248.125 462.097656 C 247.121094 459.683594 247.113281 457.246094 248.113281 454.828125 C 249.109375 452.410156 250.828125 450.683594 253.242188 449.683594 L 275.46875 440.449219 C 280.292969 438.445312 285.859375 440.742188 287.867188 445.5625 C 300.414062 475.703125 312.960938 505.84375 325.503906 535.984375 C 326.511719 538.398438 326.515625 540.835938 325.515625 543.253906 C 324.519531 545.671875 322.800781 547.394531 320.386719 548.398438 Z M 320.386719 548.398438 " fill-opacity="1" fill-rule="evenodd"/><g clip-path="url(#372a3cf7d8)"><path fill="#000000" d="M 260.644531 374.011719 C 260.644531 372.613281 261.300781 371.289062 262.421875 370.441406 L 288.28125 350.789062 C 289.636719 349.757812 291.464844 349.582031 292.988281 350.347656 C 294.515625 351.105469 295.484375 352.660156 295.484375 354.367188 L 295.484375 359.941406 L 311.953125 359.941406 C 314.433594 359.941406 316.4375 361.949219 316.4375 364.429688 C 316.4375 366.914062 314.433594 368.917969 311.953125 368.917969 L 290.996094 368.917969 C 288.515625 368.917969 286.511719 366.910156 286.511719 364.429688 L 286.511719 363.410156 L 272.554688 374.011719 L 286.511719 384.613281 L 286.511719 383.601562 C 286.511719 381.117188 288.515625 379.109375 290.996094 379.109375 L 311.953125 379.109375 C 314.433594 379.109375 316.4375 381.117188 316.4375 383.601562 C 316.4375 386.074219 314.433594 388.089844 311.953125 388.089844 L 295.484375 388.089844 L 295.484375 393.664062 C 295.484375 395.371094 294.515625 396.929688 292.988281 397.683594 C 292.359375 398 291.675781 398.152344 290.996094 398.152344 C 290.035156 398.152344 289.078125 397.847656 288.285156 397.234375 L 262.421875 377.589844 C 261.300781 376.738281 260.644531 375.417969 260.644531 374.011719 Z M 486.320312 283.171875 L 486.320312 299.273438 L 422.996094 325.3125 L 422.996094 318.867188 C 422.996094 316.386719 420.984375 314.378906 418.507812 314.378906 L 402.203125 314.378906 C 399.730469 314.378906 397.714844 316.386719 397.714844 318.867188 L 397.714844 325.3125 L 334.390625 299.273438 L 334.390625 283.171875 Z M 388.972656 260.285156 C 388.972656 257.722656 391.0625 255.628906 393.625 255.628906 L 427.085938 255.628906 C 429.648438 255.628906 431.738281 257.722656 431.738281 260.285156 L 431.738281 274.191406 L 388.972656 274.191406 Z M 406.691406 340.457031 C 406.691406 342.476562 408.332031 344.117188 410.351562 344.117188 C 412.371094 344.117188 414.019531 342.476562 414.019531 340.457031 L 414.019531 323.359375 L 406.691406 323.359375 Z M 334.390625 389.175781 L 486.320312 389.175781 L 486.320312 308.984375 L 422.992188 335.023438 L 422.992188 340.457031 C 422.992188 347.429688 417.320312 353.097656 410.351562 353.097656 C 403.382812 353.097656 397.714844 347.429688 397.714844 340.457031 L 397.714844 335.023438 L 334.390625 308.984375 Z M 332.609375 398.152344 L 488.101562 398.152344 C 492.070312 398.152344 495.296875 394.925781 495.296875 390.957031 L 495.296875 281.386719 C 495.296875 277.425781 492.070312 274.191406 488.101562 274.191406 L 440.714844 274.191406 L 440.714844 260.285156 C 440.714844 252.769531 434.597656 246.652344 427.085938 246.652344 L 393.625 246.652344 C 386.113281 246.652344 379.996094 252.769531 379.996094 260.285156 L 379.996094 274.191406 L 332.609375 274.191406 C 328.640625 274.191406 325.414062 277.425781 325.414062 281.386719 L 325.414062 390.957031 C 325.414062 394.925781 328.640625 398.152344 332.609375 398.152344 Z M 534.203125 307.914062 L 534.203125 308.933594 L 548.152344 298.332031 L 534.203125 287.730469 L 534.203125 288.75 C 534.203125 291.226562 532.1875 293.238281 529.714844 293.238281 L 508.757812 293.238281 C 506.277344 293.238281 504.269531 291.226562 504.269531 288.75 C 504.269531 286.269531 506.277344 284.261719 508.757812 284.261719 L 525.226562 284.261719 L 525.226562 278.679688 C 525.226562 276.972656 526.1875 275.417969 527.722656 274.660156 C 529.246094 273.902344 531.066406 274.074219 532.425781 275.109375 L 558.289062 294.753906 C 559.402344 295.605469 560.0625 296.929688 560.0625 298.332031 C 560.0625 299.738281 559.402344 301.058594 558.289062 301.90625 L 532.425781 321.554688 C 531.628906 322.160156 530.675781 322.464844 529.714844 322.464844 C 529.035156 322.464844 528.347656 322.3125 527.722656 322.003906 C 526.1875 321.242188 525.226562 319.683594 525.226562 317.976562 L 525.226562 312.402344 L 508.757812 312.402344 C 506.277344 312.402344 504.269531 310.394531 504.269531 307.914062 C 504.269531 305.433594 506.277344 303.425781 508.757812 303.425781 L 529.714844 303.425781 C 532.1875 303.425781 534.203125 305.433594 534.203125 307.914062 Z M 537.445312 483.09375 L 450.675781 516.550781 C 449.753906 516.902344 448.804688 517.273438 447.839844 517.644531 C 435.121094 522.597656 419.300781 528.753906 407.101562 525.214844 L 360.867188 511.785156 C 353.097656 509.527344 345.464844 510.175781 338.179688 513.722656 L 324.15625 520.539062 L 298.183594 458.132812 C 308.972656 453.027344 320.390625 447.597656 331.871094 441.980469 C 353.996094 431.160156 366.765625 426.382812 393.191406 445.132812 C 393.625 445.441406 394.105469 445.667969 394.625 445.808594 L 436.546875 457.042969 C 444.632812 459.210938 449.453125 467.554688 447.28125 475.652344 C 446.238281 479.550781 443.722656 482.820312 440.195312 484.855469 C 436.667969 486.894531 432.578125 487.4375 428.679688 486.394531 L 372.972656 471.460938 C 370.578125 470.820312 368.117188 472.238281 367.480469 474.636719 C 366.835938 477.03125 368.261719 479.492188 370.652344 480.132812 L 426.359375 495.070312 C 432.574219 496.730469 439.078125 495.867188 444.679688 492.632812 C 450.285156 489.394531 454.285156 484.195312 455.953125 477.972656 C 456.6875 475.226562 456.921875 472.457031 456.695312 469.769531 L 514.746094 452.726562 C 533.925781 447.097656 547.246094 449.257812 550.375 458.5 C 553.335938 467.253906 546.933594 479.433594 537.445312 483.09375 Z M 321.878906 542.183594 C 322.382812 540.960938 322.367188 539.601562 321.851562 538.347656 L 284.214844 447.929688 C 283.414062 446.003906 281.554688 444.851562 279.589844 444.851562 C 278.953125 444.851562 278.304688 444.972656 277.679688 445.230469 L 255.457031 454.464844 C 254.203125 454.984375 253.234375 455.949219 252.730469 457.171875 C 252.230469 458.398438 252.238281 459.757812 252.757812 461.007812 L 290.394531 551.425781 C 291.449219 553.972656 294.382812 555.179688 296.929688 554.125 L 319.152344 544.890625 C 320.402344 544.371094 321.371094 543.410156 321.878906 542.183594 Z M 558.875 455.621094 C 556.613281 448.929688 551.203125 444.074219 543.648438 441.941406 C 535.515625 439.652344 524.945312 440.382812 512.21875 444.113281 L 454.3125 461.109375 C 451.351562 455.050781 445.882812 450.253906 438.867188 448.367188 L 397.714844 437.339844 C 367.6875 416.285156 351.589844 422.332031 327.929688 433.910156 C 316.632812 439.4375 305.375 444.800781 294.730469 449.832031 L 292.496094 444.472656 C 289.542969 437.367188 281.351562 433.988281 274.242188 436.9375 L 252.015625 446.171875 C 248.546875 447.609375 245.859375 450.304688 244.433594 453.746094 C 243.015625 457.191406 243.03125 460.996094 244.472656 464.457031 L 282.109375 554.875 C 284.339844 560.246094 289.554688 563.484375 295.03125 563.484375 C 296.8125 563.484375 298.625 563.144531 300.371094 562.417969 L 322.597656 553.183594 C 326.066406 551.742188 328.75 549.054688 330.171875 545.609375 C 331.589844 542.164062 331.585938 538.359375 330.144531 534.898438 L 327.613281 528.835938 L 342.105469 521.796875 C 347.402344 519.21875 352.714844 518.769531 358.367188 520.402344 L 404.597656 533.835938 C 408.007812 534.828125 411.519531 535.25 415.089844 535.25 C 427.378906 535.25 440.265625 530.234375 451.09375 526.015625 C 452.050781 525.644531 452.984375 525.277344 453.902344 524.925781 L 540.671875 491.472656 C 554.714844 486.058594 563.394531 468.964844 558.875 455.621094 Z M 558.875 455.621094 " fill-opacity="1" fill-rule="evenodd"/></g></svg>