<svg xmlns="http://www.w3.org/2000/svg" xmlns:xlink="http://www.w3.org/1999/xlink" width="1080" zoomAndPan="magnify" viewBox="0 0 810 809.999993" height="1080" preserveAspectRatio="xMidYMid meet" version="1.0"><defs><clipPath id="c4edf1deb5"><path d="M 288 537 L 565.761719 537 L 565.761719 567 L 288 567 Z M 288 537 " clip-rule="nonzero"/></clipPath><clipPath id="800033fca1"><path d="M 244.011719 537 L 310 537 L 310 567 L 244.011719 567 Z M 244.011719 537 " clip-rule="nonzero"/></clipPath></defs><rect x="-81" width="972" fill="#ffffff" y="-80.999999" height="971.999992" fill-opacity="1"/><rect x="-81" width="972" fill="#ffffff" y="-80.999999" height="971.999992" fill-opacity="1"/><path fill="#ff455f" d="M 483.625 412.722656 C 465.636719 455.882812 464.980469 500.558594 483.625 546.925781 C 501.8125 548.5 528.972656 546.671875 536.511719 537.566406 L 536.511719 420.484375 C 530.195312 412.582031 502.394531 411.222656 483.625 412.722656 Z M 483.625 412.722656 " fill-opacity="1" fill-rule="nonzero"/><path fill="#f52e52" d="M 458.511719 420.484375 C 445.394531 458.402344 446.105469 497.488281 458.511719 537.566406 C 460.183594 541.5625 469.421875 545.546875 485.339844 546.925781 L 485.339844 412.722656 C 469.363281 414 460.007812 417.34375 458.511719 420.484375 Z M 458.511719 420.484375 " fill-opacity="1" fill-rule="nonzero"/><path fill="#00c4fd" d="M 351.261719 537.566406 C 362.636719 503.417969 361.777344 471.570312 351.261719 440 C 350.226562 436.171875 338.605469 433.195312 324.539062 431.992188 C 313.433594 433.039062 302.382812 434.027344 298.527344 438.472656 C 285.234375 470.554688 285.804688 506.015625 298.519531 538.957031 C 304.175781 543.753906 315.003906 545.058594 325.21875 546.230469 C 338.84375 544.804688 349.878906 541.414062 351.261719 537.566406 Z M 351.261719 537.566406 " fill-opacity="1" fill-rule="nonzero"/><path fill="#00a7ff" d="M 300.074219 440 C 303.929688 435.554688 313.433594 433.039062 324.535156 431.992188 C 304.742188 430.296875 280.101562 432.109375 273.261719 440 L 273.261719 537.566406 C 283.800781 546.5 306.863281 548.148438 325.21875 546.230469 C 315.003906 545.058594 305.734375 542.363281 300.074219 537.566406 Z M 300.074219 440 " fill-opacity="1" fill-rule="nonzero"/><path fill="#ff6e81" d="M 551.136719 405.851562 C 551.136719 397.765625 544.59375 391.214844 536.511719 391.214844 C 529.675781 391.214844 485.707031 391.214844 483.699219 391.214844 C 467.628906 391.214844 467.597656 400.074219 467.628906 405.851562 C 467.660156 411.828125 466.964844 420.484375 483.699219 420.484375 L 536.511719 420.484375 C 544.582031 420.484375 551.136719 413.941406 551.136719 405.851562 Z M 551.136719 405.851562 " fill-opacity="1" fill-rule="nonzero"/><path fill="#ff455f" d="M 485.148438 391.214844 C 474.941406 391.214844 466.492188 391.214844 458.511719 391.214844 C 445.1875 397.394531 446.324219 415.121094 458.511719 420.484375 L 485.148438 420.484375 C 472.960938 415.121094 471.824219 397.394531 485.148438 391.214844 Z M 485.148438 391.214844 " fill-opacity="1" fill-rule="nonzero"/><path fill="#00d5ff" d="M 351.261719 410.730469 C 342.257812 410.730469 312.175781 410.730469 298.449219 410.730469 C 276.511719 410.730469 277.328125 417.273438 277.328125 425.363281 C 277.328125 433.449219 282.472656 440 298.449219 440 L 351.261719 440 C 359.605469 435.011719 359.496094 416.476562 351.261719 410.730469 Z M 351.261719 410.730469 " fill-opacity="1" fill-rule="nonzero"/><path fill="#00c4fd" d="M 285.464844 425.363281 C 285.464844 417.289062 292.003906 410.730469 300.089844 410.730469 L 273.261719 410.730469 C 265.195312 410.730469 258.636719 417.273438 258.636719 425.363281 C 258.636719 433.449219 265.183594 440 273.261719 440 L 300.089844 440 C 292.011719 440 285.464844 433.449219 285.464844 425.363281 Z M 285.464844 425.363281 " fill-opacity="1" fill-rule="nonzero"/><path fill="#00cd8a" d="M 458.511719 357.066406 C 430.074219 342.324219 403.261719 342.324219 378.074219 357.066406 C 363.179688 367.40625 362.78125 526.648438 378.074219 537.566406 C 404.921875 552.960938 431.738281 553.511719 458.511719 537.566406 C 458.511719 532.710938 458.511719 362.574219 458.511719 357.066406 Z M 458.511719 357.066406 " fill-opacity="1" fill-rule="nonzero"/><path fill="#00b65c" d="M 391.074219 357.066406 C 386.6875 347.148438 353.210938 346.007812 351.261719 357.066406 L 351.261719 537.566406 C 356.027344 549.273438 385.28125 549.925781 391.074219 537.566406 C 391.074219 526.941406 391.074219 367.691406 391.074219 357.066406 Z M 391.074219 357.066406 " fill-opacity="1" fill-rule="nonzero"/><path fill="#fbe95e" d="M 427.171875 296.90625 L 424.675781 289.230469 C 423.6875 286.175781 424.773438 282.832031 427.371094 280.9375 L 433.890625 276.195312 C 439.695312 271.976562 436.710938 262.785156 429.535156 262.785156 L 421.476562 262.785156 C 418.265625 262.785156 415.417969 260.714844 414.421875 257.660156 L 411.933594 249.988281 C 409.71875 243.152344 400.058594 243.152344 397.84375 249.988281 L 395.632812 256.789062 C 386.578125 280.3125 402.828125 298.960938 426.640625 302.769531 C 427.566406 301.113281 427.871094 299.070312 427.171875 296.90625 Z M 427.171875 296.90625 " fill-opacity="1" fill-rule="nonzero"/><path fill="#ffc94b" d="M 395.632812 256.789062 L 395.351562 257.660156 C 394.359375 260.714844 391.511719 262.785156 388.300781 262.785156 L 380.238281 262.785156 C 373.0625 262.785156 370.078125 271.976562 375.882812 276.195312 L 382.402344 280.9375 C 385.003906 282.832031 386.089844 286.175781 385.101562 289.230469 L 382.605469 296.90625 C 380.390625 303.738281 388.203125 309.414062 394.007812 305.191406 L 400.53125 300.453125 C 403.125 298.566406 406.648438 298.566406 409.242188 300.453125 L 415.769531 305.191406 C 419.734375 308.078125 424.636719 306.339844 426.636719 302.769531 C 409.019531 294.664062 396.574219 277.234375 395.632812 256.789062 Z M 395.632812 256.789062 " fill-opacity="1" fill-rule="nonzero"/><path fill="#00b65c" d="M 473.136719 342.433594 C 473.136719 334.347656 466.59375 327.796875 458.511719 327.796875 L 392.699219 327.796875 C 374.554688 327.796875 371.574219 334.339844 371.574219 342.433594 C 371.574219 350.515625 374.230469 357.066406 392.699219 357.066406 L 458.511719 357.066406 C 466.582031 357.066406 473.136719 350.523438 473.136719 342.433594 Z M 473.136719 342.433594 " fill-opacity="1" fill-rule="nonzero"/><path fill="#009b5e" d="M 376.449219 342.433594 C 376.449219 334.355469 382.988281 327.796875 391.074219 327.796875 L 351.261719 327.796875 C 343.195312 327.796875 336.636719 334.339844 336.636719 342.433594 C 336.636719 350.515625 343.183594 357.066406 351.261719 357.066406 L 391.074219 357.066406 C 382.996094 357.066406 376.449219 350.515625 376.449219 342.433594 Z M 376.449219 342.433594 " fill-opacity="1" fill-rule="nonzero"/><g clip-path="url(#c4edf1deb5)"><path fill="#4b73a6" d="M 565.761719 552.203125 C 565.761719 544.117188 559.21875 537.566406 551.136719 537.566406 C 524.53125 537.566406 350.757812 537.566406 309.824219 537.566406 C 292.84375 537.566406 288.699219 544.109375 288.699219 552.203125 C 288.699219 560.285156 293.332031 566.835938 309.824219 566.835938 L 551.136719 566.835938 C 559.207031 566.835938 565.761719 560.292969 565.761719 552.203125 Z M 565.761719 552.203125 " fill-opacity="1" fill-rule="nonzero"/></g><g clip-path="url(#800033fca1)"><path fill="#225a9d" d="M 295.199219 552.203125 C 295.199219 544.125 301.738281 537.566406 309.824219 537.566406 C 294.949219 537.566406 274.710938 537.566406 258.636719 537.566406 C 250.570312 537.566406 244.011719 544.109375 244.011719 552.203125 C 244.011719 560.285156 250.558594 566.835938 258.636719 566.835938 L 309.824219 566.835938 C 301.746094 566.835938 295.199219 560.285156 295.199219 552.203125 Z M 295.199219 552.203125 " fill-opacity="1" fill-rule="nonzero"/></g><path fill="#ffffff" d="M 329.324219 476.585938 C 329.324219 467.171875 321.671875 459.511719 312.265625 459.511719 L 300.074219 459.511719 C 297.382812 459.511719 295.199219 461.695312 295.199219 464.390625 C 295.199219 467.085938 297.382812 469.269531 300.074219 469.269531 L 312.261719 469.269531 C 316.296875 469.269531 319.574219 472.550781 319.574219 476.585938 C 319.574219 478.542969 318.816406 480.382812 317.433594 481.761719 C 316.054688 483.144531 314.21875 483.90625 312.261719 483.90625 L 300.074219 483.90625 C 297.382812 483.90625 295.199219 486.089844 295.199219 488.785156 C 295.199219 491.476562 297.382812 493.660156 300.074219 493.660156 L 312.261719 493.660156 C 316.296875 493.660156 319.574219 496.945312 319.574219 500.980469 C 319.574219 502.933594 318.816406 504.773438 317.433594 506.15625 C 316.054688 507.535156 314.21875 508.296875 312.261719 508.296875 L 300.074219 508.296875 C 297.382812 508.296875 295.199219 510.480469 295.199219 513.175781 C 295.199219 515.871094 297.382812 518.054688 300.074219 518.054688 L 312.261719 518.054688 C 316.824219 518.054688 321.109375 516.277344 324.328125 513.054688 C 327.550781 509.828125 329.324219 505.542969 329.324219 500.980469 C 329.324219 496.207031 327.359375 491.890625 324.195312 488.789062 C 324.238281 488.746094 324.285156 488.707031 324.328125 488.660156 C 327.550781 485.4375 329.324219 481.148438 329.324219 476.585938 Z M 329.324219 476.585938 " fill-opacity="1" fill-rule="nonzero"/><path fill="#ffffff" d="M 417.074219 425.363281 L 409.761719 425.363281 L 409.761719 381.460938 C 409.761719 381.300781 409.753906 381.136719 409.738281 380.976562 C 409.730469 380.90625 409.71875 380.839844 409.710938 380.773438 C 409.695312 380.683594 409.6875 380.59375 409.667969 380.503906 C 409.652344 380.425781 409.628906 380.347656 409.609375 380.269531 C 409.59375 380.195312 409.574219 380.117188 409.554688 380.042969 C 409.53125 379.964844 409.5 379.890625 409.472656 379.816406 C 409.449219 379.742188 409.421875 379.664062 409.390625 379.589844 C 409.363281 379.519531 409.328125 379.453125 409.296875 379.386719 C 409.261719 379.308594 409.226562 379.234375 409.1875 379.160156 C 409.152344 379.09375 409.109375 379.027344 409.074219 378.964844 C 409.03125 378.890625 408.988281 378.820312 408.941406 378.75 C 408.894531 378.675781 408.839844 378.609375 408.789062 378.539062 C 408.746094 378.480469 408.703125 378.421875 408.660156 378.367188 C 408.453125 378.117188 408.226562 377.890625 407.976562 377.6875 C 407.925781 377.640625 407.867188 377.601562 407.8125 377.5625 C 407.738281 377.507812 407.667969 377.453125 407.59375 377.402344 C 407.527344 377.355469 407.457031 377.316406 407.390625 377.277344 C 407.320312 377.238281 407.253906 377.195312 407.1875 377.15625 C 407.117188 377.121094 407.042969 377.085938 406.972656 377.054688 C 406.898438 377.019531 406.828125 376.984375 406.753906 376.953125 C 406.683594 376.921875 406.613281 376.902344 406.542969 376.875 C 406.464844 376.847656 406.382812 376.816406 406.304688 376.792969 C 406.234375 376.769531 406.164062 376.753906 406.09375 376.738281 C 406.007812 376.714844 405.925781 376.691406 405.839844 376.675781 C 405.761719 376.660156 405.679688 376.652344 405.601562 376.640625 C 405.523438 376.628906 405.445312 376.613281 405.367188 376.605469 C 405.226562 376.589844 405.085938 376.585938 404.945312 376.585938 C 404.925781 376.585938 404.910156 376.582031 404.890625 376.582031 C 404.871094 376.582031 404.851562 376.582031 404.832031 376.585938 C 404.691406 376.585938 404.550781 376.589844 404.410156 376.605469 C 404.328125 376.613281 404.253906 376.628906 404.175781 376.640625 C 404.097656 376.652344 404.015625 376.660156 403.9375 376.675781 C 403.851562 376.691406 403.769531 376.714844 403.683594 376.738281 C 403.613281 376.753906 403.542969 376.769531 403.476562 376.792969 C 403.394531 376.816406 403.316406 376.847656 403.234375 376.875 C 403.164062 376.898438 403.09375 376.921875 403.023438 376.953125 C 402.949219 376.984375 402.878906 377.019531 402.804688 377.054688 C 402.734375 377.085938 402.664062 377.121094 402.59375 377.15625 C 402.523438 377.195312 402.457031 377.238281 402.386719 377.277344 C 402.320312 377.320312 402.25 377.359375 402.183594 377.402344 C 402.109375 377.453125 402.039062 377.507812 401.964844 377.5625 C 401.910156 377.605469 401.851562 377.640625 401.800781 377.6875 C 401.675781 377.789062 401.554688 377.898438 401.441406 378.011719 L 386.816406 392.644531 C 384.914062 394.550781 384.914062 397.640625 386.816406 399.542969 C 387.769531 400.496094 389.015625 400.972656 390.261719 400.972656 C 391.511719 400.972656 392.757812 400.496094 393.710938 399.542969 L 400.011719 393.238281 L 400.011719 425.367188 L 392.703125 425.367188 C 390.007812 425.367188 387.824219 427.550781 387.824219 430.242188 C 387.824219 432.9375 390.007812 435.121094 392.703125 435.121094 L 417.078125 435.121094 C 419.769531 435.121094 421.953125 432.9375 421.953125 430.242188 C 421.949219 427.546875 419.769531 425.363281 417.074219 425.363281 Z M 417.074219 425.363281 " fill-opacity="1" fill-rule="nonzero"/><path fill="#ffffff" d="M 514.574219 469.730469 L 514.574219 466.828125 C 514.574219 457.414062 506.921875 449.753906 497.515625 449.753906 C 492.953125 449.753906 488.667969 451.53125 485.449219 454.753906 C 482.226562 457.980469 480.449219 462.269531 480.449219 466.828125 L 480.449219 469.269531 C 480.449219 471.964844 482.632812 474.148438 485.328125 474.148438 C 488.019531 474.148438 490.203125 471.964844 490.203125 469.269531 L 490.203125 466.828125 C 490.203125 464.875 490.960938 463.035156 492.34375 461.65625 C 493.722656 460.273438 495.558594 459.511719 497.515625 459.511719 C 501.546875 459.511719 504.828125 462.796875 504.828125 466.828125 L 504.828125 469.730469 C 504.828125 471.441406 504.222656 473.105469 503.128906 474.417969 L 481.582031 500.292969 C 480.371094 501.75 480.109375 503.773438 480.910156 505.488281 C 481.714844 507.199219 483.433594 508.296875 485.328125 508.296875 L 509.703125 508.296875 C 512.394531 508.296875 514.578125 506.113281 514.578125 503.417969 C 514.578125 500.722656 512.394531 498.539062 509.703125 498.539062 L 495.734375 498.539062 L 510.617188 480.667969 C 513.171875 477.605469 514.574219 473.71875 514.574219 469.730469 Z M 514.574219 469.730469 " fill-opacity="1" fill-rule="nonzero"/></svg>