<svg xmlns="http://www.w3.org/2000/svg" xmlns:xlink="http://www.w3.org/1999/xlink" width="1080" zoomAndPan="magnify" viewBox="0 0 810 809.999993" height="1080" preserveAspectRatio="xMidYMid meet" version="1.0"><rect x="-81" width="972" fill="#ffffff" y="-80.999999" height="971.999992" fill-opacity="1"/><rect x="-81" width="972" fill="#ffffff" y="-80.999999" height="971.999992" fill-opacity="1"/><path fill="#000000" d="M 395.316406 283.382812 C 395.316406 284.707031 395.261719 286.027344 395.15625 287.34375 C 395.046875 288.660156 394.886719 289.964844 394.671875 291.261719 C 394.460938 292.558594 394.191406 293.84375 393.875 295.109375 C 393.554688 296.375 393.1875 297.617188 392.765625 298.839844 C 392.347656 300.0625 391.878906 301.253906 391.359375 302.421875 C 390.84375 303.589844 390.28125 304.722656 389.671875 305.820312 C 389.0625 306.921875 388.410156 307.980469 387.710938 309.003906 C 387.015625 310.027344 386.28125 311.003906 385.503906 311.941406 C 384.730469 312.875 383.917969 313.761719 383.070312 314.601562 C 382.21875 315.441406 381.339844 316.226562 380.429688 316.964844 C 379.515625 317.699219 378.574219 318.378906 377.609375 319 C 376.640625 319.625 375.648438 320.1875 374.636719 320.695312 C 373.621094 321.203125 372.589844 321.644531 371.539062 322.03125 C 370.492188 322.414062 369.429688 322.734375 368.351562 322.992188 C 367.277344 323.25 366.191406 323.445312 365.101562 323.574219 C 364.007812 323.703125 362.914062 323.769531 361.816406 323.769531 C 360.71875 323.769531 359.625 323.703125 358.53125 323.574219 C 357.441406 323.445312 356.355469 323.25 355.28125 322.992188 C 354.203125 322.734375 353.140625 322.414062 352.089844 322.03125 C 351.042969 321.644531 350.007812 321.203125 348.996094 320.695312 C 347.980469 320.1875 346.992188 319.625 346.023438 319 C 345.054688 318.378906 344.117188 317.699219 343.203125 316.964844 C 342.292969 316.226562 341.410156 315.441406 340.5625 314.601562 C 339.714844 313.761719 338.902344 312.875 338.128906 311.941406 C 337.351562 311.003906 336.617188 310.027344 335.917969 309.003906 C 335.222656 307.980469 334.570312 306.921875 333.960938 305.820312 C 333.351562 304.722656 332.789062 303.589844 332.269531 302.421875 C 331.753906 301.253906 331.285156 300.0625 330.867188 298.839844 C 330.445312 297.617188 330.078125 296.375 329.757812 295.109375 C 329.4375 293.84375 329.171875 292.558594 328.957031 291.261719 C 328.746094 289.964844 328.585938 288.660156 328.476562 287.34375 C 328.367188 286.027344 328.316406 284.707031 328.316406 283.382812 C 328.316406 282.0625 328.367188 280.742188 328.476562 279.425781 C 328.585938 278.109375 328.746094 276.804688 328.957031 275.507812 C 329.171875 274.207031 329.4375 272.925781 329.757812 271.660156 C 330.078125 270.394531 330.445312 269.152344 330.867188 267.929688 C 331.285156 266.707031 331.753906 265.515625 332.269531 264.347656 C 332.789062 263.179688 333.351562 262.046875 333.960938 260.949219 C 334.570312 259.847656 335.222656 258.789062 335.917969 257.765625 C 336.617188 256.742188 337.351562 255.761719 338.128906 254.828125 C 338.902344 253.894531 339.714844 253.007812 340.5625 252.167969 C 341.410156 251.328125 342.292969 250.539062 343.203125 249.804688 C 344.117188 249.070312 345.054688 248.390625 346.023438 247.769531 C 346.992188 247.144531 347.980469 246.582031 348.996094 246.074219 C 350.007812 245.566406 351.042969 245.121094 352.089844 244.738281 C 353.140625 244.355469 354.203125 244.035156 355.28125 243.777344 C 356.355469 243.519531 357.441406 243.324219 358.53125 243.195312 C 359.625 243.066406 360.71875 243 361.816406 243 C 362.914062 243 364.007812 243.066406 365.101562 243.195312 C 366.191406 243.324219 367.277344 243.519531 368.351562 243.777344 C 369.429688 244.035156 370.492188 244.355469 371.539062 244.738281 C 372.589844 245.121094 373.621094 245.566406 374.636719 246.074219 C 375.648438 246.582031 376.640625 247.144531 377.609375 247.769531 C 378.574219 248.390625 379.515625 249.070312 380.429688 249.804688 C 381.339844 250.539062 382.21875 251.328125 383.070312 252.167969 C 383.917969 253.007812 384.730469 253.894531 385.503906 254.828125 C 386.28125 255.761719 387.015625 256.742188 387.710938 257.765625 C 388.410156 258.789062 389.0625 259.847656 389.671875 260.949219 C 390.28125 262.046875 390.84375 263.179688 391.359375 264.347656 C 391.878906 265.515625 392.347656 266.707031 392.765625 267.929688 C 393.1875 269.152344 393.554688 270.394531 393.875 271.660156 C 394.191406 272.925781 394.460938 274.207031 394.671875 275.507812 C 394.886719 276.804688 395.046875 278.109375 395.15625 279.425781 C 395.261719 280.742188 395.316406 282.0625 395.316406 283.382812 Z M 395.316406 283.382812 " fill-opacity="1" fill-rule="nonzero"/><path fill="#000000" d="M 432.402344 497.039062 L 343.175781 497.039062 L 310.257812 346.699219 C 307.78125 338.125 298.824219 333.175781 290.238281 335.648438 C 281.652344 338.125 276.699219 347.066406 279.175781 355.644531 L 313.851562 512.09375 C 313.046875 514.402344 312.519531 516.839844 312.519531 519.425781 C 312.519531 531.792969 322.558594 541.820312 334.941406 541.820312 L 432.402344 541.820312 C 444.789062 541.820312 454.824219 531.792969 454.824219 519.425781 C 454.824219 507.054688 444.789062 497.039062 432.402344 497.039062 Z M 432.402344 497.039062 " fill-opacity="1" fill-rule="nonzero"/><path fill="#000000" d="M 527.710938 535.949219 L 485.347656 461.234375 C 492.214844 460.023438 497.777344 454.457031 498.621094 447.175781 C 499.628906 438.3125 493.257812 430.300781 484.386719 429.285156 L 426.351562 422.640625 L 424.910156 419.898438 C 421.914062 402.046875 419.011719 388.808594 410.277344 367.882812 C 401.554688 346.949219 381.574219 330.507812 361.824219 333.765625 C 361.824219 333.765625 319.859375 335.308594 328.324219 375.304688 C 332.734375 396.082031 343.554688 437.695312 352.648438 461.179688 C 359.578125 478.875 370.53125 487.328125 377.148438 487.328125 C 387.15625 487.328125 452.523438 487.605469 452.523438 487.605469 L 491.53125 556.414062 C 495.359375 563.160156 502.398438 566.953125 509.644531 566.953125 C 513.121094 566.953125 516.640625 566.085938 519.867188 564.257812 C 529.855469 558.609375 533.378906 545.933594 527.710938 535.949219 Z M 527.710938 535.949219 " fill-opacity="1" fill-rule="nonzero"/></svg>